<?xml version="1.0" standalone="no"?>
<!DOCTYPE svg PUBLIC "-//W3C//DTD SVG 1.1//EN" "http://www.w3.org/Graphics/SVG/1.1/DTD/svg11.dtd" >
<svg>
<metadata>
Created by FontForge 20090622 at Wed Dec  2 19:54:04 2015
 By deploy user
Copyright (c) 2011-2012, Jovanny Lemonad (lemonad@jovanny.ru), with Reserved Font Name 'Yeseva'
</metadata>
<defs>
<font id="YesevaOne" horiz-adv-x="560" >
  <font-face 
    font-family="Yeseva One"
    font-weight="400"
    font-stretch="normal"
    units-per-em="1000"
    panose-1="2 0 5 3 9 0 0 2 0 4"
    ascent="800"
    descent="-200"
    x-height="500"
    cap-height="700"
    bbox="-130 -309 1275 940"
    underline-thickness="50"
    underline-position="-50"
    unicode-range="U+0020-U+2122"
  />
<missing-glyph horiz-adv-x="285" 
 />
    <glyph glyph-name=".notdef" horiz-adv-x="285" 
 />
    <glyph glyph-name=".null" horiz-adv-x="0" 
 />
    <glyph glyph-name="nonmarkingreturn" horiz-adv-x="280" 
 />
    <glyph glyph-name="space" unicode=" " horiz-adv-x="280" 
 />
    <glyph glyph-name="m" unicode="m" horiz-adv-x="950" 
d="M710 350q0 36 -6 60.5t-15.5 40t-21 22.5t-22.5 7q-19 0 -33.5 -12.5t-25.5 -27.5q-12 -18 -21 -40v-370l60 -15v-15h-280v15l60 15v320q0 36 -6 60.5t-15.5 40t-21 22.5t-22.5 7q-19 0 -33.5 -12.5t-25.5 -27.5q-12 -18 -21 -40v-370l60 -15v-15h-280v15l60 15v440
l-60 15v15h90q35 0 57.5 -12t35.5 -26q15 -17 22 -37q13 25 32 45q17 17 42 31t61 14q60 0 103.5 -26.5t66.5 -68.5q13 26 32 47q17 18 42 33t61 15q41 0 75 -13t58.5 -35.5t38 -52.5t13.5 -64v-320l60 -15v-15h-130q-90 0 -90 90v260z" />
    <glyph glyph-name="o" unicode="o" horiz-adv-x="610" 
d="M305 5q17 0 34 11t30.5 38.5t22 75t8.5 120.5t-8.5 120.5t-22 75t-30.5 38.5t-34 11t-34 -11t-30.5 -38.5t-22 -75t-8.5 -120.5t8.5 -120.5t22 -75t30.5 -38.5t34 -11zM305 515q62 0 111 -18t83.5 -52.5t52.5 -83.5t18 -111t-18 -111t-52.5 -83.5t-83.5 -52.5t-111 -18
t-111 18t-83.5 52.5t-52.5 83.5t-18 111t18 111t52.5 83.5t83.5 52.5t111 18z" />
    <glyph glyph-name="b" unicode="b" horiz-adv-x="615" 
d="M240 100q9 -22 22 -40q11 -15 28 -27.5t40 -12.5q13 0 26.5 9t24 34.5t17.5 70.5t7 116q0 73 -7 119t-19 71.5t-28.5 35t-35.5 9.5q-15 0 -28.5 -6t-24.5 -14q-12 -9 -22 -20v-345zM150 700q90 0 90 -90v-135q13 11 31 20q15 8 36.5 14t47.5 6q49 0 89.5 -17t69.5 -50
t45 -82.5t16 -115.5t-16 -115.5t-43.5 -82.5t-65 -50t-80.5 -17q-40 0 -67.5 14t-44.5 31q-20 19 -33 45q-7 -22 -24 -40q-14 -15 -41 -27.5t-70 -12.5h-10v675l-60 15v15h130z" />
    <glyph glyph-name="c" unicode="c" horiz-adv-x="530" 
d="M330 495q-26 0 -48 -11t-38 -38.5t-25 -75t-9 -120.5q0 -71 9 -117.5t25 -73.5t38 -38t48 -11q30 0 56.5 11t46 29.5t31 42t11.5 47.5h25q0 -30 -13.5 -58t-38.5 -49.5t-60 -34.5t-78 -13q-128 0 -199 70.5t-71 194.5t71 194.5t199 70.5q49 0 84 -9.5t57.5 -25t33 -35
t10.5 -40.5q0 -34 -20.5 -54.5t-54.5 -20.5q-8 0 -15.5 0.5t-12.5 1.5q-7 1 -12 3v150q-6 2 -14 5q-7 2 -16 3.5t-20 1.5z" />
    <glyph glyph-name="d" unicode="d" horiz-adv-x="620" 
d="M375 445q-11 11 -23 20q-11 8 -24 14t-28 6q-19 0 -35.5 -9.5t-28.5 -35t-19 -71.5t-7 -119q0 -71 7 -116t17.5 -70.5t24 -34.5t26.5 -9q23 0 39.5 12.5t27.5 27.5q13 18 23 40v345zM445 700q90 0 90 -90v-580l60 -15v-15h-90q-36 0 -58 11.5t-35 25.5q-15 17 -22 38
q-13 -26 -33 -45q-17 -17 -45 -31t-67 -14q-43 0 -80.5 17t-65 50t-43.5 82.5t-16 115.5t16 115.5t45 82.5t69.5 50t89.5 17q26 0 47.5 -6t36.5 -14q18 -9 31 -20v195l-60 15v15h130z" />
    <glyph glyph-name="f" unicode="f" horiz-adv-x="425" 
d="M25 455v25h70v50q0 39 14.5 73t41.5 59t66 39t88 14q41 0 72 -9.5t51.5 -25t31 -35t10.5 -40.5q0 -34 -20.5 -54.5t-54.5 -20.5q-8 0 -15.5 0.5t-12.5 1.5q-7 1 -12 3v155q-4 1 -9 2l-10.5 2t-10.5 1q-15 0 -28 -7t-22 -25t-14.5 -50t-5.5 -83v-50h160v-25h-160v-425
l60 -15v-15h-280v15l60 15v425h-70z" />
    <glyph glyph-name="e" unicode="e" 
d="M210 250q34 0 60 1.5t44 3.5q21 2 36 5q2 10 5 22q2 11 3.5 24.5t1.5 28.5q0 45 -7 75.5t-17.5 49.5t-24 27t-26.5 8t-26.5 -9.5t-24 -36t-17.5 -74.5t-7 -125zM310 -15q-128 0 -199 70.5t-71 194.5q0 62 18 111t50 83.5t77.5 52.5t99.5 18q56 0 100.5 -16t75.5 -43
t47.5 -63.5t16.5 -77.5q0 -14 -1.5 -24.5t-3.5 -18.5l-5 -17q-44 -9 -93 -15q-42 -6 -97 -10.5t-115 -4.5q0 -62 9 -103.5t25 -66t38 -35t48 -10.5q30 0 56.5 11t46 29.5t31 42t11.5 47.5h25q0 -30 -13.5 -58t-38.5 -49.5t-60 -34.5t-78 -13z" />
    <glyph glyph-name="g" unicode="g" horiz-adv-x="605" 
d="M280 505q49 0 88 -10t62 -25q8 17 21 30q11 11 29.5 20.5t44.5 9.5q34 0 57 -23.5t23 -61.5q0 -30 -16 -47.5t-39 -17.5q-8 0 -14 0.5t-11 1.5t-10 3v120q-17 0 -29 -8t-20 -17q-10 -11 -16 -25q26 -23 38 -52t12 -63q0 -36 -13.5 -66t-40.5 -52t-68.5 -34.5t-97.5 -12.5
q-38 0 -71 7t-59 18q-11 -5 -20 -10q-8 -5 -14 -11t-6 -14q0 -15 15.5 -25t64.5 -10h190q75 0 117.5 -43t42.5 -122q0 -38 -15.5 -70.5t-47.5 -57t-82.5 -38.5t-119.5 -14q-71 0 -119 10t-77 26t-41.5 35.5t-12.5 38.5q0 34 20.5 54.5t54.5 20.5q9 0 16.5 -1t12.5 -2
q6 -1 11 -2v-140q18 -6 38 -10q17 -4 39.5 -7t47.5 -3q66 0 110.5 10.5t72.5 27t40 38t12 44.5q0 13 -6 25t-20 21t-37 14t-57 5h-190q-79 0 -117 32.5t-38 77.5q0 30 14.5 50.5t32.5 34.5q21 15 48 25q-38 23 -54 55.5t-16 74.5q0 36 13.5 66t40.5 52t68.5 34.5t97.5 12.5z
M280 195q15 0 28 6.5t22 23t14.5 44.5t5.5 71t-5.5 71t-14.5 44.5t-22 23t-28 6.5t-28 -6.5t-22 -23t-14.5 -44.5t-5.5 -71t5.5 -71t14.5 -44.5t22 -23t28 -6.5z" />
    <glyph glyph-name="h" unicode="h" horiz-adv-x="665" 
d="M425 350q0 34 -7 58.5t-17.5 40.5t-24 23.5t-26.5 7.5q-23 0 -40 -12.5t-28 -27.5q-13 -18 -22 -40v-370l60 -15v-15h-280v15l60 15v640l-60 15v15h130q90 0 90 -90v-160q13 18 31 32q16 12 40.5 22.5t58.5 10.5q43 0 79 -14t61.5 -37t40 -52.5t14.5 -61.5v-320l60 -15
v-15h-130q-90 0 -90 90v260z" />
    <glyph glyph-name="j" unicode="j" horiz-adv-x="330" 
d="M90 625q0 17 7 32.5t18.5 27t27 18.5t32.5 7t32.5 -7t27 -18.5t18.5 -27t7 -32.5t-7 -32.5t-18.5 -27t-27 -18.5t-32.5 -7t-32.5 7t-27 18.5t-18.5 27t-7 32.5zM5 -190q2 -2 6 -3q8 -2 14 -2q13 0 25.5 7.5t22.5 26t16 50.5t6 81v500l-60 15v15h130q90 0 90 -90v-440
q0 -39 -14.5 -73t-43 -59t-69.5 -39t-93 -14q-79 0 -112 26.5t-33 68.5q0 34 20.5 54.5t54.5 20.5q8 0 14.5 -1l12.5 -2t13 -2v-140z" />
    <glyph glyph-name="r" unicode="r" horiz-adv-x="505" 
d="M385 480q-30 0 -53.5 -12.5t-39.5 -27.5q-18 -18 -32 -40v-370l60 -15v-15h-280v15l60 15v440l-60 15v15h90q35 0 57.5 -12t35.5 -26q15 -17 22 -37q15 22 37 40q19 15 46.5 27.5t65.5 12.5q54 0 80 -25t26 -70q0 -34 -20.5 -54.5t-54.5 -20.5q-8 0 -15.5 0.5t-12.5 1.5
q-7 1 -12 3v140z" />
    <glyph glyph-name="t" unicode="t" horiz-adv-x="450" 
d="M85 550q0 90 90 90h70v-140h140v-25h-140v-305q0 -49 5.5 -80t15 -49t23.5 -24.5t31 -6.5t33 8.5t29 25t20.5 40.5t7.5 56h25q0 -75 -37.5 -115t-97.5 -40q-51 0 -90.5 14t-67.5 39t-42.5 59t-14.5 73v305h-70v25h70v50z" />
    <glyph glyph-name="x" unicode="x" horiz-adv-x="555" 
d="M214 204l-169 266l-50 15v15h135q26 0 46 -6.5t35.5 -17.5t28.5 -26.5t25 -34.5l51 -81l94 121l-75 30v15h190v-15l-80 -30l-114 -145l179 -280l50 -15v-15h-135q-26 0 -46 6t-36 17.5t-28.5 27t-24.5 34.5l-60 94l-105 -134l75 -30v-15h-190v15l80 30z" />
    <glyph glyph-name="k" unicode="k" horiz-adv-x="600" 
d="M170 700q90 0 90 -90v-350l185 195l-75 30v15h190v-15l-80 -30l-115 -120l195 -305l50 -15v-15h-130q-26 0 -46 6t-36 17.5t-28.5 27t-24.5 34.5l-85 135v-190l60 -15v-15h-280v15l60 15v640l-60 15v15h130z" />
    <glyph glyph-name="p" unicode="p" horiz-adv-x="625" 
d="M250 55q10 -11 22 -20q11 -8 24.5 -14t28.5 -6q19 0 35.5 9.5t28.5 35t19 71.5t7 119q0 71 -7 116t-17.5 70.5t-24 34.5t-26.5 9q-23 0 -40 -12.5t-28 -27.5q-13 -18 -22 -40v-345zM90 470l-60 15v15h90q35 0 57.5 -12t35.5 -26q15 -17 22 -37q13 25 33 45q17 17 44.5 31
t67.5 14q43 0 80.5 -17t65 -50t43.5 -82.5t16 -115.5t-16 -115.5t-45 -82.5t-69.5 -50t-89.5 -17q-26 0 -47.5 6t-36.5 14q-18 9 -31 20v-195l60 -15v-15h-280v15l60 15v640z" />
    <glyph glyph-name="q" unicode="q" horiz-adv-x="615" 
d="M375 400q-10 22 -23 40q-11 15 -27.5 27.5t-39.5 12.5q-13 0 -26.5 -9t-24 -34.5t-17.5 -70.5t-7 -116q0 -73 7 -119t19 -71.5t28.5 -35t35.5 -9.5q15 0 28 6t24 14q12 9 23 20v345zM375 25q-13 -11 -31 -20q-15 -8 -36.5 -14t-47.5 -6q-49 0 -89.5 17t-69.5 50t-45 82.5
t-16 115.5t16 115.5t43.5 82.5t65 50t80.5 17q39 0 67 -14t45 -31q20 -20 33 -45q7 22 24 40q14 15 40.5 27.5t70.5 12.5h10v-675l60 -15v-15h-280v15l60 15v195z" />
    <glyph glyph-name="s" unicode="s" horiz-adv-x="540" 
d="M275 -15q-36 0 -63.5 8t-47.5 19q-23 12 -39 28q-8 -11 -17.5 -20t-17.5 -14q-10 -7 -20 -11h-25v170h40q14 -44 38 -78q20 -29 52 -53t80 -24q42 0 63.5 21t21.5 59q0 28 -21.5 48t-53.5 38t-70 36.5t-70 41.5t-53.5 53t-21.5 73q0 28 11.5 52.5t37 43t65.5 29t96 10.5
q30 0 55 -8.5t43 -19.5q21 -12 38 -27q8 11 17.5 19.5t17.5 14.5q10 6 20 11h25v-170h-40q-15 43 -37 77q-19 29 -48 53.5t-71 24.5q-26 0 -45.5 -20t-19.5 -50t21.5 -52t53.5 -41t70 -37t70 -40.5t53.5 -51t21.5 -68.5q0 -32 -12 -58.5t-39 -46t-71 -30t-108 -10.5z" />
    <glyph glyph-name="u" unicode="u" horiz-adv-x="650" 
d="M155 500q90 0 90 -90v-260q0 -34 7 -58.5t17.5 -40.5t24 -23.5t26.5 -7.5q23 0 39.5 12.5t27.5 27.5q13 18 23 40v370l-60 15v15h280v-15l-60 -15v-475h-10q-44 0 -70.5 12.5t-40.5 27.5q-17 18 -24 40q-13 -26 -33 -45q-17 -17 -45 -31t-67 -14q-43 0 -79 14t-61.5 37
t-40 52.5t-14.5 61.5v320l-60 15v15h130z" />
    <glyph glyph-name="v" unicode="v" 
d="M470 455l-75 30v15h185v-15l-80 -30l-190 -465h-30l-250 480l-50 15v15h125q28 0 49 -6.5t37 -17.5t27.5 -26.5t21.5 -34.5l119 -231z" />
    <glyph glyph-name="y" unicode="y" 
d="M470 455l-75 30v15h185v-15l-80 -30l-200 -515q-32 -83 -68.5 -119t-81.5 -36t-70 24t-25 66q0 38 20.5 59t54.5 21q8 0 14.5 -1l12.5 -2t13 -2v-135q13 2 25.5 9t24.5 21.5t24 37.5t26 57l20 50l-260 480l-50 15v15h125q28 0 49 -6.5t36.5 -17.5t27.5 -26.5t22 -34.5
l125 -231z" />
    <glyph glyph-name="w" unicode="w" horiz-adv-x="835" 
d="M30 470l-50 15v15h115q56 0 86.5 -24t48.5 -61l110 -230l57 146l-67 139l-50 15v15h115q56 0 86.5 -24t48.5 -61l110 -230l105 270l-75 30v15h185v-15l-80 -30l-185 -465h-30l-148 308l-122 -308h-30z" />
    <glyph glyph-name="z" unicode="z" horiz-adv-x="545" 
d="M145 475q0 -36 -10.5 -63.5t-22.5 -47.5q-14 -23 -32 -39h-30v175h455v-25l-285 -450h190q0 35 10 63t22 48q14 23 33 39h30v-175h-465v25l285 450h-180z" />
    <glyph glyph-name="A" unicode="A" horiz-adv-x="680" 
d="M165 15v-15h-185v15l80 30l275 665h30l285 -680l50 -15v-15h-120q-56 0 -88 25.5t-46 59.5l-51 120h-239l-66 -160zM166 230h219l-110 263z" />
    <glyph glyph-name="B" unicode="B" horiz-adv-x="680" 
d="M395 365q71 -3 127 -22q24 -8 47 -21t41 -31.5t29 -43t11 -57.5q0 -41 -16 -76t-52.5 -60.5t-96 -39.5t-145.5 -14h-290v15l60 15v640l-60 15v15h270q81 0 137 -14t91 -38t51 -55.5t16 -67.5q0 -29 -9.5 -51.5t-25 -39t-35 -27.5t-40.5 -18q-48 -17 -110 -19v-5zM275 355
v-330h65q60 0 100 43t40 122t-40 122t-100 43h-65zM275 380h45q24 0 47 10.5t40 30t27.5 46t10.5 58.5q0 34 -10.5 61.5t-27.5 47t-40 30.5t-47 11h-45v-295z" />
    <glyph glyph-name="C" unicode="C" horiz-adv-x="650" 
d="M361 715q35 0 64.5 -10.5t50.5 -22.5q25 -14 44 -32q8 13 17.5 23.5t17.5 17.5q10 8 20 14h25v-190h-40q-14 48 -39 87q-21 33 -56 60.5t-85 27.5q-30 0 -59 -16.5t-51.5 -56t-36 -105t-13.5 -162.5q0 -98 14 -163t39 -104.5t59 -56t73 -16.5q36 0 69 15.5t59 42
t41.5 60.5t15.5 72h25q0 -43 -17.5 -82t-48.5 -68.5t-73 -47t-91 -17.5q-79 0 -142 24t-107 70.5t-67.5 114.5t-23.5 156t23 156t65 114.5t100 70.5t128 24z" />
    <glyph glyph-name="D" unicode="D" horiz-adv-x="715" 
d="M305 700q180 0 275 -92.5t95 -257.5t-95 -257.5t-275 -92.5h-255v15l60 15v640l-60 15v15h255zM275 675v-650h30q43 0 79 16.5t61.5 54.5t40 100t14.5 154t-14.5 154t-40 100t-61.5 54.5t-79 16.5h-30z" />
    <glyph glyph-name="E" unicode="E" horiz-adv-x="645" 
d="M390 360q4 20 11 38.5t15 32.5q9 16 19 29h30v-225h-30q-10 13 -19 29q-8 14 -15 32t-11 39h-115v-310h235q0 39 10 68t22 49q14 23 33 38h30v-180h-555v15l60 15v640l-60 15v15h535v-180h-30q-19 15 -33 38q-12 20 -22 48.5t-10 68.5h-215v-315h115z" />
    <glyph glyph-name="F" unicode="F" horiz-adv-x="610" 
d="M390 360q4 20 11 38.5t15 32.5q9 16 19 29h30v-225h-30q-10 13 -19 29q-8 14 -15 32t-11 39h-115v-305l60 -15v-15h-285v15l60 15v640l-60 15v15h535v-180h-30q-19 15 -33 38q-12 20 -22 48.5t-10 68.5h-215v-315h115z" />
    <glyph glyph-name="G" unicode="G" horiz-adv-x="700" 
d="M365 20q23 0 39.5 12.5t27.5 27.5q13 18 23 40v230l-60 15v15h285v-15l-60 -15v-335h-15q-44 0 -70.5 12.5t-40.5 27.5q-17 18 -24 40q-13 -26 -33 -45q-17 -17 -45 -31t-67 -14q-56 0 -107 24t-89.5 70.5t-61 114.5t-22.5 156t23 156t65 114.5t100 70.5t128 24
q35 0 64.5 -10.5t50.5 -22.5q25 -14 44 -32q8 13 17.5 23.5t17.5 17.5q10 8 20 14h25v-190h-40q-14 48 -39 87q-21 33 -56 60.5t-85 27.5q-30 0 -59 -16.5t-51.5 -56t-36 -105t-13.5 -162.5q0 -98 12 -161.5t32.5 -101t46.5 -52.5t54 -15z" />
    <glyph glyph-name="H" unicode="H" horiz-adv-x="765" 
d="M50 685v15h285v-15l-60 -15v-310h215v310l-60 15v15h285v-15l-60 -15v-640l60 -15v-15h-285v15l60 15v305h-215v-305l60 -15v-15h-285v15l60 15v640z" />
    <glyph glyph-name="I" unicode="I" horiz-adv-x="385" 
d="M50 685v15h285v-15l-60 -15v-640l60 -15v-15h-285v15l60 15v640z" />
    <glyph glyph-name="J" unicode="J" horiz-adv-x="550" 
d="M165 5q26 0 48 10t38 33t25 60.5t9 91.5v470l-60 15v15h285v-15l-60 -15v-470q0 -101 -63 -158t-202 -57q-49 0 -84 9.5t-57.5 25t-33 35t-10.5 40.5q0 34 20.5 54.5t54.5 20.5q8 0 14.5 -1l12.5 -2t13 -2v-150q6 -3 14 -5q15 -5 36 -5z" />
    <glyph glyph-name="K" unicode="K" horiz-adv-x="690" 
d="M700 15v-15h-140q-49 0 -80.5 25.5t-54.5 59.5l-150 230v-285l60 -15v-15h-285v15l60 15v640l-60 15v15h285v-15l-60 -15v-314l245 299l-75 30v15h190v-15l-80 -30l-175 -215l270 -410z" />
    <glyph glyph-name="L" unicode="L" horiz-adv-x="610" 
d="M335 700v-15l-60 -15v-645h215q0 39 10 68t22 49q14 23 33 38h30v-180h-535v15l60 15v640l-60 15v15h285z" />
    <glyph glyph-name="M" unicode="M" horiz-adv-x="985" 
d="M935 700v-15l-60 -15v-640l60 -15v-15h-285v15l60 15v545l-235 -585h-30l-305 585v-530l80 -30v-15h-190v15l80 30v625l-60 15v15h125q28 0 49 -6.5t37 -17.5t27.5 -26.5t21.5 -34.5l218 -417l167 417q8 21 18.5 36.5t25.5 26.5t37 16.5t54 5.5h105z" />
    <glyph glyph-name="O" unicode="O" horiz-adv-x="740" 
d="M520 350q0 99 -13.5 165.5t-35 106.5t-48.5 56.5t-53 16.5t-53 -16.5t-48.5 -56.5t-35 -106.5t-13.5 -165.5t13.5 -165.5t35 -106.5t48.5 -56.5t53 -16.5t53 16.5t48.5 56.5t35 106.5t13.5 165.5zM695 350q0 -88 -23.5 -156t-66 -114.5t-102.5 -70.5t-133 -24t-133 24
t-102.5 70.5t-66 114.5t-23.5 156t23.5 156t66 114.5t102.5 70.5t133 24t133 -24t102.5 -70.5t66 -114.5t23.5 -156z" />
    <glyph glyph-name="N" unicode="N" horiz-adv-x="740" 
d="M605 655l-80 30v15h190v-15l-80 -30v-670h-30l-465 545v-485l80 -30v-15h-190v15l80 30v620l-70 20v15h105q30 0 52 -6.5t38.5 -17t28.5 -23t21 -23.5l320 -375v400z" />
    <glyph glyph-name="P" unicode="P" horiz-adv-x="675" 
d="M330 295q30 0 55.5 11.5t44.5 35t29.5 59t10.5 84.5q0 97 -40 143.5t-100 46.5h-55v-380h55zM275 270v-240l60 -15v-15h-285v15l60 15v640l-60 15v15h280q86 0 145.5 -14.5t96 -42.5t52.5 -67.5t16 -90.5t-16 -90.5t-52.5 -67.5t-96 -42.5t-145.5 -14.5h-55z" />
    <glyph glyph-name="Q" unicode="Q" horiz-adv-x="740" 
d="M695 350q0 -151 -66 -241.5t-179 -113.5q0 -41 4.5 -67.5t11.5 -41.5t16 -20.5t18 -5.5q14 0 22 5q4 2 8 5l10 -25q-6 -4 -16 -8q-19 -7 -54 -7q-41 0 -74.5 12.5t-57 34.5t-36 52t-12.5 66q-113 23 -179 113.5t-66 241.5q0 88 23.5 156t66 114.5t102.5 70.5t133 24
t133 -24t102.5 -70.5t66 -114.5t23.5 -156zM520 350q0 99 -13.5 165.5t-35 106.5t-48.5 56.5t-53 16.5t-53 -16.5t-48.5 -56.5t-35 -106.5t-13.5 -165.5t13.5 -165.5t35 -106.5t48.5 -56.5t53 -16.5t53 16.5t48.5 56.5t35 106.5t13.5 165.5z" />
    <glyph glyph-name="R" unicode="R" horiz-adv-x="700" 
d="M400 320q34 -1 65 -11q26 -8 53 -26.5t42 -52.5l90 -200l50 -15v-15h-140q-45 0 -74 23.5t-46 61.5l-100 225h-65v-280l70 -15v-15h-295v15l60 15v640l-60 15v15h265q90 0 151 -14.5t98.5 -40t54 -61.5t16.5 -79q0 -34 -10 -59.5t-26.5 -45t-38 -32.5t-43.5 -21
q-52 -20 -117 -22v-5zM315 335q68 0 109 43.5t41 126.5t-41 126.5t-109 43.5h-40v-340h40z" />
    <glyph glyph-name="T" unicode="T" horiz-adv-x="635" 
d="M175 0v15l60 15v645h-115q0 -40 -10.5 -68.5t-22.5 -48.5q-14 -23 -32 -38h-30v180h585v-180h-30q-19 15 -33 38q-12 20 -22 48.5t-10 68.5h-115v-645l60 -15v-15h-285z" />
    <glyph glyph-name="S" unicode="S" horiz-adv-x="595" 
d="M275 10q57 0 91 34t34 91q0 39 -26.5 67.5t-65.5 53.5t-85.5 50t-85.5 57t-65.5 74.5t-26.5 102.5q0 36 15 67.5t45.5 55.5t76.5 38t108 14q35 0 65 -10.5t51 -22.5q25 -14 44 -32q8 13 17.5 23.5t17.5 17.5q10 8 20 14h25v-190h-40q-14 48 -39 87q-21 33 -56 60.5
t-85 27.5q-19 0 -36 -8t-30 -22.5t-21 -35t-8 -44.5q0 -43 26.5 -73.5t65.5 -56.5t85.5 -51t85.5 -55.5t65.5 -69.5t26.5 -94q0 -39 -17 -74.5t-51 -62.5t-86 -42.5t-121 -15.5q-44 0 -77 10t-56 22q-27 14 -47 33q-8 -14 -17.5 -24t-17.5 -17q-10 -8 -20 -14h-25v190h40
q15 -49 42 -88q12 -17 27 -32.5t34.5 -27.5t43.5 -19.5t53 -7.5z" />
    <glyph glyph-name="U" unicode="U" horiz-adv-x="710" 
d="M595 655l-80 30v15h190v-15l-80 -30v-405q0 -62 -17.5 -111t-48.5 -83.5t-73 -52.5t-91 -18q-150 0 -225 70.5t-75 194.5v420l-60 15v15h285v-15l-60 -15v-420q0 -68 11 -113.5t31 -74t48.5 -40.5t64.5 -12q34 0 66 16.5t57.5 47.5t41 75.5t15.5 100.5v405z" />
    <glyph glyph-name="V" unicode="V" horiz-adv-x="665" 
d="M575 655l-75 30v15h185v-15l-80 -30l-245 -665h-30l-300 680l-50 15v15h120q56 0 88 -25.5t47 -59.5l177 -403z" />
    <glyph glyph-name="X" unicode="X" horiz-adv-x="665" 
d="M265 296l-220 374l-50 15v15h145q53 0 82.5 -23.5t52.5 -61.5l96 -164l139 204l-75 30v15h190v-15l-80 -30l-157 -231l232 -394l50 -15v-15h-145q-53 0 -82.5 23.5t-52.5 61.5l-108 183l-152 -223l75 -30v-15h-190v15l80 30z" />
    <glyph glyph-name="Z" unicode="Z" horiz-adv-x="635" 
d="M495 25q0 39 10 68t22 49q14 23 33 38h30v-180h-550v25l371 650h-261q0 -40 -10.5 -68.5t-22.5 -48.5q-14 -23 -32 -38h-30v180h540v-25l-370 -650h270z" />
    <glyph glyph-name="W" unicode="W" horiz-adv-x="985" 
d="M35 675l-55 10v15h120q57 0 89.5 -25.5t45.5 -59.5l151 -385l88 258l-74 187l-55 10v15h120q57 0 89 -25.5t46 -59.5l151 -385l144 425l-75 30v15h185v-15l-80 -30l-225 -665h-30l-180 457l-155 -457h-30z" />
    <glyph glyph-name="Y" unicode="Y" horiz-adv-x="665" 
d="M50 670l-50 15v15h125q28 0 49 -6.5t37 -17.5t28 -26.5t21 -34.5l148 -295l152 335l-75 30v15h190v-15l-80 -30l-175 -385v-240l60 -15v-15h-285v15l60 15v230z" />
    <glyph glyph-name="zero" unicode="0" horiz-adv-x="670" 
d="M335 -15q-60 0 -113 24t-92 70.5t-62 114.5t-23 156t23 156t62 114.5t92 70.5t113 24t113 -24t92 -70.5t62 -114.5t23 -156t-23 -156t-62 -114.5t-92 -70.5t-113 -24zM335 5q21 0 41.5 14t37 52t26.5 105t10 174t-10 174t-26.5 105t-37 52t-41.5 14t-41.5 -14t-37 -52
t-26.5 -105t-10 -174t10 -174t26.5 -105t37 -52t41.5 -14z" />
    <glyph glyph-name="one" unicode="1" horiz-adv-x="415" 
d="M305 35l70 -20v-15h-305v15l70 20v549l-105 -74l-20 25l182 165h108v-665z" />
    <glyph glyph-name="two" unicode="2" horiz-adv-x="575" 
d="M519 510q0 -60 -29 -101.5t-73.5 -72.5t-98.5 -56t-104.5 -53t-91 -62.5t-57.5 -84.5h370q4 30 13.5 52.5t20.5 37.5q12 18 26 30h30v-200h-495v45q0 61 23.5 108t59 86t77 73.5t77 70t59 76t23.5 91.5q0 68 -33 104t-82 36q-19 0 -33.5 -2.5t-25.5 -5.5l-21 -7v-160
q-7 -2 -13 -3t-12.5 -1.5t-14.5 -0.5q-34 0 -54.5 20.5t-20.5 54.5q0 22 13 45.5t40 42t67.5 30.5t94.5 12q69 0 119.5 -14.5t82.5 -41t47.5 -64.5t15.5 -85z" />
    <glyph glyph-name="three" unicode="3" horiz-adv-x="585" 
d="M295 365q67 -3 120 -23q22 -9 44 -22.5t38.5 -33t27 -46t10.5 -60.5q0 -41 -16.5 -77t-52 -62t-91.5 -41t-135 -15q-54 0 -94.5 12t-67.5 30.5t-40 41.5t-13 46q0 34 20.5 54.5t54.5 20.5q8 0 14.5 -1l12.5 -2t13 -2v-160q9 -4 21 -8q11 -3 25.5 -5t33.5 -2
q68 0 106.5 41.5t38.5 128.5q0 90 -37.5 132.5t-97.5 42.5h-50v25h50q21 0 40 9.5t33.5 28.5t23 48.5t8.5 68.5q0 79 -32.5 117t-77.5 38q-15 0 -28 -2.5t-22 -5.5l-20 -7v-160q-7 -2 -13 -3t-12.5 -1.5t-14.5 -0.5q-34 0 -54.5 20.5t-20.5 54.5q0 22 13 45.5t39 42t64 30.5
t89 12q66 0 114.5 -15t81 -39.5t48.5 -57t16 -68.5q0 -31 -9 -54.5t-24 -41t-34 -29t-38 -19.5q-47 -18 -105 -21v-5z" />
    <glyph glyph-name="four" unicode="4" horiz-adv-x="600" 
d="M540 15v-15h-305v15l70 20v150h-285l-20 30l375 495h95v-480h105v-45h-105v-150zM305 230v330l-250 -330h250z" />
    <glyph glyph-name="five" unicode="5" horiz-adv-x="570" 
d="M230 10q28 0 52 11t41 35.5t27 63.5t10 95q0 109 -37.5 154.5t-102.5 45.5q-29 0 -53.5 -10.5t-44.5 -22.5q-23 -14 -42 -32l-20 15l40 335h295q4 30 13.5 52.5t20.5 37.5q12 18 26 30h30v-195h-363l-27 -230q18 12 41 22q20 8 46 15.5t58 7.5q75 0 129.5 -16t90.5 -45.5
t53 -71t17 -92.5q0 -105 -69 -167.5t-211 -62.5q-54 0 -94.5 12t-67.5 30.5t-40 41.5t-13 46q0 34 20.5 54.5t54.5 20.5q8 0 14.5 -1l12.5 -2t13 -2v-160q9 -4 21 -8q11 -3 25.5 -5t33.5 -2z" />
    <glyph glyph-name="n" unicode="n" horiz-adv-x="665" 
d="M425 350q0 34 -7 58.5t-17.5 40.5t-24 23.5t-26.5 7.5q-23 0 -40 -12.5t-28 -27.5q-13 -18 -22 -40v-370l60 -15v-15h-280v15l60 15v440l-60 15v15h90q35 0 57.5 -12t35.5 -26q15 -17 22 -37q13 25 33 45q17 17 44.5 31t67.5 14q43 0 79 -14t61.5 -37t40 -52.5
t14.5 -61.5v-320l60 -15v-15h-130q-90 0 -90 90v260z" />
    <glyph glyph-name="six" unicode="6" horiz-adv-x="620" 
d="M320 5q13 0 28 10t27.5 33.5t21 62t8.5 94.5t-8.5 94.5t-21.5 62t-29 33.5t-31 10q-19 0 -35.5 -9t-28.5 -28.5t-19 -51t-7 -76.5q0 -69 8.5 -114.5t22 -72.5t30.5 -37.5t34 -10.5zM365 690q-34 0 -61 -12.5t-45.5 -48t-28.5 -98t-10 -161.5q10 17 27 30q14 11 36 20.5
t52 9.5q56 0 100.5 -16t75.5 -44.5t47.5 -68t16.5 -86.5q0 -105 -65.5 -167.5t-189.5 -62.5q-60 0 -109.5 21t-85.5 65.5t-55.5 113.5t-19.5 165q0 92 21 160.5t59 114t92.5 68t122.5 22.5q47 0 83.5 -12t61 -30.5t37.5 -42t13 -45.5q0 -34 -20.5 -54.5t-54.5 -20.5
q-8 0 -15.5 0.5t-12.5 1.5q-7 1 -12 3v160q-9 3 -19 7q-8 3 -19 5.5t-22 2.5z" />
    <glyph glyph-name="seven" unicode="7" horiz-adv-x="530" 
d="M505 700v-45q0 -49 -13.5 -92t-34.5 -86.5l-44.5 -90.5t-44.5 -103.5t-34.5 -126t-13.5 -156.5h-175q0 85 20 151t51 119t69.5 97l75 85t67.5 82.5t47 90.5h-355q-4 -30 -13.5 -52.5t-20.5 -37.5q-12 -18 -26 -30h-30v195h475z" />
    <glyph glyph-name="nine" unicode="9" horiz-adv-x="620" 
d="M300 695q-13 0 -28 -10t-27.5 -33.5t-21 -62t-8.5 -94.5t8.5 -94.5t21.5 -62t29 -33.5t31 -10q19 0 35.5 9t28.5 28.5t19 51t7 76.5q0 69 -8.5 114.5t-22 72.5t-30.5 37.5t-34 10.5zM255 10q34 0 60.5 12.5t45.5 48t29 98t10 161.5q-11 -17 -28 -30q-14 -11 -35.5 -20.5
t-51.5 -9.5q-56 0 -100.5 16t-75.5 44.5t-47.5 68t-16.5 86.5q0 105 65.5 167.5t189.5 62.5q60 0 109.5 -21t85.5 -65.5t55.5 -113.5t19.5 -165q0 -92 -21 -160.5t-59 -114t-93 -68t-122 -22.5q-47 0 -83.5 12t-61 30.5t-37.5 41.5t-13 46q0 34 20.5 54.5t54.5 20.5
q8 0 14.5 -1l12.5 -2t13 -2v-160q9 -4 19 -8q19 -7 41 -7z" />
    <glyph glyph-name="ampersand" unicode="&#x26;" horiz-adv-x="690" 
d="M300 10q24 0 44.5 9.5t34.5 20.5q17 13 31 30l-180 255q-11 -12 -20 -34q-8 -19 -14 -50.5t-6 -80.5q0 -75 32.5 -112.5t77.5 -37.5zM560 345q0 -30 -7 -58t-15 -50q-10 -26 -21 -47l113 -160l50 -15v-15h-140q-42 0 -71 13.5t-44 36.5q-16 -19 -37 -33
q-18 -12 -45.5 -22t-62.5 -10q-71 0 -120.5 12.5t-80.5 35.5t-45 55.5t-14 71.5q0 28 8.5 51t22 41t31 32t35.5 25q43 24 98 36l-55 80q-18 26 -34 59.5t-16 75.5q0 32 13 60t39 49t64 33.5t89 12.5q32 0 58 -10.5t44 -22.5q21 -14 38 -32q8 13 17.5 23.5t17.5 17.5
q10 8 20 14h25v-190h-40q-14 48 -37 87q-10 16 -22.5 32t-27.5 28.5t-33.5 20t-39.5 7.5q-30 0 -52.5 -24t-22.5 -66q0 -19 6.5 -38t16 -37t20.5 -33.5l19 -26.5l178 -250q9 17 17 37q7 17 12.5 40.5t5.5 52.5l-80 30v15h185v-15z" />
    <glyph glyph-name="quotesingle" unicode="'" horiz-adv-x="210" 
d="M105 710q26 0 43 -18t17 -52l-40 -195h-40l-40 195q0 34 17 52t43 18z" />
    <glyph glyph-name="exclam" unicode="!" horiz-adv-x="310" 
d="M170 215h-30l-80 385q0 53 28.5 84t66.5 31t66.5 -31t28.5 -84zM230 70q0 -34 -22.5 -57t-52.5 -23t-52.5 23t-22.5 57t22.5 57t52.5 23t52.5 -23t22.5 -57z" />
    <glyph glyph-name="quotedbl" unicode="&#x22;" horiz-adv-x="370" 
d="M105 710q26 0 43 -18t17 -52l-40 -195h-40l-40 195q0 34 17 52t43 18zM265 710q26 0 43 -18t17 -52l-40 -195h-40l-40 195q0 34 17 52t43 18z" />
    <glyph glyph-name="numbersign" unicode="#" horiz-adv-x="650" 
d="M277 515h180l48 185h60l-48 -185h113v-50h-126l-59 -230h135v-50h-148l-47 -185h-60l47 185h-180l-47 -185h-60l47 185h-112v50h125l59 230h-134v50h147l48 185h60zM205 235h180l59 230h-180z" />
    <glyph glyph-name="dollar" unicode="$" horiz-adv-x="595" 
d="M275 10q10 0 15 1v255l-82.5 48.5t-79.5 55.5t-59.5 72t-23.5 98q0 36 15 67.5t45.5 55.5t76.5 38t108 14v65h30v-68q29 -5 53 -14.5t41 -20.5q20 -12 36 -27q8 13 17.5 23.5t17.5 17.5q10 8 20 14h25v-190h-40q-13 46 -37 84q-10 16 -23.5 31.5t-30 28t-36 20.5
t-43.5 10v-248q39 -25 83 -49t81 -53.5t61.5 -67.5t24.5 -91q0 -38 -15.5 -71.5t-46.5 -60t-78 -43t-110 -19.5v-66h-30v65q-42 1 -74.5 11t-55.5 22q-26 14 -45 32q-8 -14 -17.5 -24t-17.5 -17q-10 -8 -20 -14h-25v190h40q15 -49 42 -88q12 -17 27 -32.5t34.5 -27.5
t43.5 -19.5t53 -7.5zM400 135q0 35 -22.5 62.5t-57.5 50.5v-231q37 12 58.5 42.5t21.5 75.5zM215 580q0 -38 21 -66.5t54 -52.5v226q-32 -8 -53.5 -36.5t-21.5 -70.5z" />
    <glyph glyph-name="percent" unicode="%" horiz-adv-x="750" 
d="M660 700l-515 -700h-55l515 700h55zM610 165q0 47 -5 77t-13 47.5t-18 24t-19 6.5t-19 -6.5t-18 -24t-13 -47.5t-5 -77t5 -77t13 -47.5t18 -24t19 -6.5t19 6.5t18 24t13 47.5t5 77zM720 165q0 -39 -12.5 -71.5t-34.5 -55.5t-52 -35.5t-66 -12.5t-66 12.5t-52 35.5
t-34.5 55.5t-12.5 71.5t12.5 71.5t34.5 55.5t52 35.5t66 12.5t66 -12.5t52 -35.5t34.5 -55.5t12.5 -71.5zM250 535q0 47 -5 77t-13 47.5t-18 24t-19 6.5t-19 -6.5t-18 -24t-13 -47.5t-5 -77t5 -77t13 -47.5t18 -24t19 -6.5t19 6.5t18 24t13 47.5t5 77zM360 535
q0 -39 -12.5 -71.5t-34.5 -55.5t-52 -35.5t-66 -12.5t-66 12.5t-52 35.5t-34.5 55.5t-12.5 71.5t12.5 71.5t34.5 55.5t52 35.5t66 12.5t66 -12.5t52 -35.5t34.5 -55.5t12.5 -71.5z" />
    <glyph glyph-name="parenleft" unicode="(" horiz-adv-x="355" 
d="M220 265q0 -77 7.5 -148.5t22.5 -134t37.5 -115.5t52.5 -92l-10 -15q-56 37 -107 88t-89.5 114t-61 139t-22.5 164t22.5 164t61 139t89.5 113.5t107 88.5l10 -15q-30 -39 -52.5 -92t-37.5 -115.5t-22.5 -134t-7.5 -148.5z" />
    <glyph glyph-name="parenright" unicode=")" horiz-adv-x="355" 
d="M135 265q0 77 -7.5 148.5t-22.5 134t-37.5 115.5t-52.5 92l10 15q56 -38 107 -88.5t89.5 -113.5t61 -139t22.5 -164t-22.5 -164t-61 -139t-89.5 -114t-107 -88l-10 15q30 39 52.5 92t37.5 115.5t22.5 134t7.5 148.5z" />
    <glyph glyph-name="asterisk" unicode="*" horiz-adv-x="390" 
d="M195 370q-19 0 -32 13t-13 32l30 100l-70 -75q-17 -10 -37 -6t-28 21t-2.5 34t22.5 26l100 25l-100 25q-17 9 -22.5 26t2.5 34t28 21t37 -6l70 -75l-30 100q0 19 13 32t32 13t32 -13t13 -32l-30 -100l70 75q17 10 37 6t28 -21t2.5 -34t-22.5 -26l-100 -25l100 -25
q17 -9 22.5 -26t-2.5 -34t-28 -21t-37 6l-70 75l30 -100q0 -19 -13 -32t-32 -13z" />
    <glyph glyph-name="plus" unicode="+" horiz-adv-x="515" 
d="M235 95v215h-200v45h200v215h45v-215h200v-45h-200v-215h-45z" />
    <glyph glyph-name="period" unicode="." horiz-adv-x="240" 
d="M195 65q0 -30 -22.5 -52.5t-52.5 -22.5t-52.5 22.5t-22.5 52.5t22.5 52.5t52.5 22.5t52.5 -22.5t22.5 -52.5z" />
    <glyph glyph-name="comma" unicode="," horiz-adv-x="245" 
d="M70 -105q23 8 42 23q17 13 32 34t21 53q-6 -4 -13 -8q-14 -7 -32 -7q-30 0 -52.5 22.5t-22.5 52.5t22.5 52.5t52.5 22.5q34 0 57 -24t23 -66q0 -55 -18.5 -89.5t-41.5 -54.5q-26 -24 -60 -36z" />
    <glyph glyph-name="hyphen" unicode="-" horiz-adv-x="470" 
d="M435 345v-45h-400v45h400z" />
    <glyph glyph-name="slash" unicode="/" horiz-adv-x="350" 
d="M370 750l-345 -800h-45l345 800h45z" />
    <glyph glyph-name="backslash" unicode="\" horiz-adv-x="350" 
d="M25 750l345 -800h-45l-345 800h45z" />
    <glyph glyph-name="equal" unicode="=" horiz-adv-x="460" 
d="M425 430v-45h-390v45h390zM425 280v-45h-390v45h390z" />
    <glyph glyph-name="colon" unicode=":" horiz-adv-x="240" 
d="M195 65q0 -30 -22.5 -52.5t-52.5 -22.5t-52.5 22.5t-22.5 52.5t22.5 52.5t52.5 22.5t52.5 -22.5t22.5 -52.5zM195 435q0 -30 -22.5 -52.5t-52.5 -22.5t-52.5 22.5t-22.5 52.5t22.5 52.5t52.5 22.5t52.5 -22.5t22.5 -52.5z" />
    <glyph glyph-name="semicolon" unicode=";" horiz-adv-x="245" 
d="M70 -105q23 8 42 23q17 13 32 34t21 53q-6 -4 -13 -8q-14 -7 -32 -7q-30 0 -52.5 22.5t-22.5 52.5t22.5 52.5t52.5 22.5q34 0 57 -24t23 -66q0 -55 -18.5 -89.5t-41.5 -54.5q-26 -24 -60 -36zM195 435q0 -30 -22.5 -52.5t-52.5 -22.5t-52.5 22.5t-22.5 52.5t22.5 52.5
t52.5 22.5t52.5 -22.5t22.5 -52.5z" />
    <glyph glyph-name="greater" unicode="&#x3e;" horiz-adv-x="505" 
d="M480 250l-445 -250v55l345 195l-345 195v55z" />
    <glyph glyph-name="question" unicode="?" 
d="M210 690q-19 0 -33.5 -2.5t-25.5 -5.5l-21 -7v-160q-7 -2 -13 -3t-12.5 -1.5t-14.5 -0.5q-34 0 -54.5 20.5t-20.5 54.5q0 22 13 45.5t40 42t67.5 30.5t94.5 12q77 0 132.5 -16t91.5 -43.5t53.5 -65t17.5 -80.5q0 -83 -61 -139.5t-189 -75.5l-5 -80h-40l-5 95q28 11 51 27
t39.5 39.5t25.5 56t9 77.5q0 98 -35.5 139t-104.5 41zM320 70q0 -34 -22.5 -57t-52.5 -23t-52.5 23t-22.5 57t22.5 57t52.5 23t52.5 -23t22.5 -57z" />
    <glyph glyph-name="bracketleft" unicode="[" horiz-adv-x="350" 
d="M340 720v-25h-95v-890h95v-25h-255v940h255z" />
    <glyph glyph-name="bracketright" unicode="]" horiz-adv-x="350" 
d="M265 720v-940h-255v25h95v890h-95v25h255z" />
    <glyph glyph-name="underscore" unicode="_" horiz-adv-x="390" 
d="M390 -55v-45h-390v45h390z" />
    <glyph glyph-name="braceleft" unicode="{" horiz-adv-x="370" 
d="M30 265q34 0 54.5 23.5t20.5 76.5v205q0 30 13 57t37.5 48t61 33t83.5 12h60v-25h-10q-38 0 -61.5 -26t-23.5 -79v-185q0 -56 -25 -87.5t-55 -46.5q-35 -18 -80 -21q45 -3 80 -21q30 -15 55 -46.5t25 -87.5v-185q0 -53 23.5 -79t61.5 -26h10v-25h-60q-47 0 -83.5 12
t-61 33t-37.5 48t-13 57v205q0 53 -20.5 76.5t-54.5 23.5v30z" />
    <glyph glyph-name="braceright" unicode="}" horiz-adv-x="370" 
d="M340 235q-34 0 -54.5 -23.5t-20.5 -76.5v-205q0 -30 -13 -57t-37.5 -48t-61 -33t-83.5 -12h-60v25h10q38 0 61.5 26t23.5 79v185q0 56 25 87.5t55 46.5q35 18 80 21q-45 3 -80 21q-30 15 -55 46.5t-25 87.5v185q0 53 -23.5 79t-61.5 26h-10v25h60q47 0 83.5 -12t61 -33
t37.5 -48t13 -57v-205q0 -53 20.5 -76.5t54.5 -23.5v-30z" />
    <glyph glyph-name="asciicircum" unicode="^" horiz-adv-x="480" 
d="M240 720l210 -290h-60l-150 205l-150 -205h-60z" />
    <glyph glyph-name="at" unicode="@" horiz-adv-x="840" 
d="M345 260q0 -43 5 -72t13.5 -46t19.5 -24.5t22 -7.5q13 0 22.5 9.5t15.5 20.5q7 13 12 30v305q-23 0 -43 -10.5t-35 -35t-23.5 -66t-8.5 -103.5zM75 290q0 -77 27 -143t74 -114t110 -75.5t134 -27.5q42 0 76 9.5t60 20.5q30 13 54 30l15 -25q-26 -19 -58 -33
q-27 -12 -64.5 -22t-82.5 -10q-79 0 -148 30t-120.5 82.5t-81.5 123.5t-30 154q0 82 30 153.5t81.5 124t120.5 82.5t148 30t148 -30t120.5 -82.5t81.5 -124t30 -153.5q0 -51 -14 -90.5t-37 -67.5t-52.5 -42.5t-61.5 -14.5q-57 0 -88.5 12.5t-47.5 27.5q-18 18 -24 40
q-7 -22 -21 -40q-12 -15 -33.5 -27.5t-55.5 -12.5q-36 0 -66 12.5t-52 36.5t-34.5 58.5t-12.5 77.5q0 113 65 176.5t190 63.5h145v-325q0 -38 16 -56.5t39 -18.5q17 0 36 12t35.5 36t27.5 59.5t11 82.5q0 77 -27 143t-74 114t-110 75.5t-134 27.5t-134 -27.5t-110 -75.5
t-74 -114t-27 -143z" />
    <glyph glyph-name="copyright" unicode="&#xa9;" horiz-adv-x="840" 
d="M460 545q-17 0 -34 -10t-30.5 -33t-22 -60.5t-8.5 -91.5q0 -53 8.5 -89t22.5 -58.5t32 -32.5t37 -10q24 0 45 8.5t36.5 23.5t24.5 35t9 43h25q0 -26 -11.5 -50.5t-32.5 -43.5t-50.5 -30t-65.5 -11q-106 0 -163 56.5t-57 158.5t56.5 158.5t158.5 56.5q41 0 71.5 -8.5
t50 -22.5t29 -32t9.5 -37q0 -30 -17.5 -47.5t-47.5 -17.5q-8 0 -15.5 0.5t-12.5 1.5q-7 1 -12 3v135l-10 2t-11 2t-14 1zM40 350q0 82 30 153.5t81.5 124t120.5 82.5t148 30t148 -30t120.5 -82.5t81.5 -124t30 -153.5q0 -83 -30 -154t-81.5 -123.5t-120.5 -82.5t-148 -30
t-148 30t-120.5 82.5t-81.5 123.5t-30 154zM765 350q0 79 -26.5 145t-73 114t-109.5 74.5t-136 26.5t-136 -26.5t-109.5 -74.5t-73 -114t-26.5 -145t26.5 -145t73 -114t109.5 -74.5t136 -26.5t136 26.5t109.5 74.5t73 114t26.5 145z" />
    <glyph glyph-name="registered" unicode="&#xae;" horiz-adv-x="840" 
d="M560 140q-38 0 -61.5 18.5t-33.5 41.5l-55 125h-20v-160l50 -10v-15h-230v15l50 10v370l-50 10v15h190q64 0 106 -9t67.5 -25t36 -38t10.5 -48q0 -38 -22 -59t-48 -31q-31 -12 -70 -15q20 -2 38 -9q16 -6 31.5 -18.5t25.5 -32.5l50 -110l35 -10v-15h-100zM390 535v-190
h10q40 0 60 25t20 70t-23 70t-57 25h-10zM40 350q0 82 30 153.5t81.5 124t120.5 82.5t148 30t148 -30t120.5 -82.5t81.5 -124t30 -153.5q0 -83 -30 -154t-81.5 -123.5t-120.5 -82.5t-148 -30t-148 30t-120.5 82.5t-81.5 123.5t-30 154zM765 350q0 79 -26.5 145t-73 114
t-109.5 74.5t-136 26.5t-136 -26.5t-109.5 -74.5t-73 -114t-26.5 -145t26.5 -145t73 -114t109.5 -74.5t136 -26.5t136 26.5t109.5 74.5t73 114t26.5 145z" />
    <glyph glyph-name="section" unicode="&#xa7;" horiz-adv-x="520" 
d="M230 -210q-49 0 -84 9.5t-57.5 25t-33 35t-10.5 40.5q0 34 20.5 54.5t54.5 20.5q8 0 14.5 -1l12.5 -2t13 -2v-150q6 -3 14 -5q15 -5 36 -5q49 0 77 29t28 86q0 35 -20.5 60t-51 45t-66 38.5t-66 41.5t-51 52.5t-20.5 72.5t32.5 80.5t102.5 54.5q-23 15 -43.5 32.5
t-36.5 39t-25.5 48t-9.5 60.5t13.5 63t41 50.5t70 34t100.5 12.5q45 0 78 -9.5t54.5 -25t32 -35t10.5 -40.5q0 -34 -20.5 -54.5t-54.5 -20.5q-8 0 -15.5 0.5t-12.5 1.5q-7 1 -12 3v155q-7 1 -13 2l-12.5 2t-14.5 1q-30 0 -55 -28.5t-25 -81.5q0 -36 19 -61.5t47 -46.5
t61.5 -40t61.5 -42t47 -53t19 -72q0 -38 -32 -74t-103 -51q25 -14 49.5 -31t43.5 -38.5t30.5 -50t11.5 -65.5q0 -36 -14 -66t-44 -52t-77.5 -34.5t-114.5 -12.5zM320 150q2 5 5 14q2 8 3.5 20t1.5 31q0 32 -20.5 58t-44.5 44q-29 21 -65 38q-3 -5 -5 -14q-2 -8 -3.5 -20
t-1.5 -31q0 -32 20 -58t45 -44q28 -21 65 -38z" />
    <glyph glyph-name="trademark" unicode="&#x2122;" horiz-adv-x="890" 
d="M360 575h-20q-11 12 -20 28q-8 14 -14 33t-6 44h-50v-285l40 -10v-15h-190v15l40 10v285h-50q0 -25 -6 -44t-14 -33q-9 -16 -20 -28h-20v125h330v-125zM500 385v-15h-125v15l50 15v275l-40 10v15h85q26 0 47.5 -18t32.5 -37l83 -147l67 147q8 19 28.5 37t46.5 18h80v-15
l-40 -10v-280l40 -10v-15h-190v15l40 10v195l-105 -230h-20l-130 230v-190z" />
    <glyph glyph-name="paragraph" unicode="&#xb6;" horiz-adv-x="590" 
d="M270 -200v470q-117 0 -176 56.5t-59 158.5t59 158.5t176 56.5h295v-30h-80v-870h-55v870h-105v-870h-55z" />
    <glyph glyph-name="guillemotright" unicode="&#xbb;" horiz-adv-x="440" 
d="M165 20l-25 25l185 205l-185 205l25 25l260 -230zM55 75l-25 25l120 150l-120 150l25 25l190 -175z" />
    <glyph glyph-name="guillemotleft" unicode="&#xab;" horiz-adv-x="440" 
d="M15 250l260 230l25 -25l-185 -205l185 -205l-25 -25zM195 250l190 175l25 -25l-120 -150l120 -150l-25 -25z" />
    <glyph glyph-name="ordmasculine" unicode="&#xba;" horiz-adv-x="390" 
d="M250 535q0 47 -5 77t-13 47.5t-18 24t-19 6.5t-19 -6.5t-18 -24t-13 -47.5t-5 -77t5 -77t13 -47.5t18 -24t19 -6.5t19 6.5t18 24t13 47.5t5 77zM360 535q0 -39 -12.5 -71.5t-34.5 -55.5t-52 -35.5t-66 -12.5t-66 12.5t-52 35.5t-34.5 55.5t-12.5 71.5t12.5 71.5
t34.5 55.5t52 35.5t66 12.5t66 -12.5t52 -35.5t34.5 -55.5t12.5 -71.5z" />
    <glyph glyph-name="onesuperior" unicode="&#xb9;" horiz-adv-x="285" 
d="M215 395l40 -10v-15h-190v15l40 10v225l-60 -45l-15 15l110 110h75v-305z" />
    <glyph glyph-name="twosuperior" unicode="&#xb2;" horiz-adv-x="345" 
d="M175 710q71 0 105.5 -29.5t34.5 -70.5q0 -30 -14.5 -51t-38 -36.5t-52.5 -27l-57.5 -23t-53 -25t-39.5 -32.5h190q2 17 8.5 31.5t13.5 25.5q8 12 18 23h20v-125h-280v30q0 30 13 51t32.5 37.5t42 30.5t42 29.5t32.5 34.5t13 47q0 26 -15.5 43t-34.5 17q-8 0 -14.5 -1
l-12.5 -2q-7 -1 -13 -2v-100q-5 -2 -10 -3t-11 -1.5t-14 -0.5q-23 0 -36.5 13.5t-13.5 36.5q0 15 8 29.5t25 25.5t45 18t67 7z" />
    <glyph glyph-name="threesuperior" unicode="&#xb3;" horiz-adv-x="360" 
d="M175 360q-39 0 -67 7t-45 18t-25 25.5t-8 29.5q0 23 13.5 36.5t36.5 13.5q8 0 14 -1t11 -2l10 -2v-100q6 -2 13 -3q6 -1 12.5 -1.5t14.5 -0.5q30 0 47.5 19t17.5 56q0 38 -17 56.5t-43 18.5h-26v20h26q15 0 30 18t15 52t-15 52t-30 18q-8 0 -14.5 -1l-12.5 -2
q-7 -1 -13 -2v-100q-5 -2 -10 -3t-11 -1.5t-14 -0.5q-23 0 -36.5 13.5t-13.5 36.5q0 15 8 29.5t25 25.5t45 18t67 7q34 0 59 -7.5t42 -20.5t25.5 -29t8.5 -33q0 -29 -17.5 -44.5t-37.5 -23.5q-25 -10 -55 -12q35 -3 62 -13q23 -8 43 -25t20 -47q0 -38 -36.5 -66.5
t-118.5 -28.5z" />
    <glyph glyph-name="onequarter" unicode="&#xbc;" horiz-adv-x="705" 
d="M635 700l-515 -700h-55l515 700h55zM205 395l40 -10v-15h-190v15l40 10v225l-60 -45l-15 15l110 110h75v-305zM535 340q71 0 105.5 -29.5t34.5 -70.5q0 -30 -14.5 -51t-38 -36.5t-52.5 -27l-57.5 -23t-53 -25t-39.5 -32.5h190q2 17 8.5 31.5t13.5 25.5q8 12 18 23h20
v-125h-280v30q0 30 13 51t32.5 37.5t42 30.5t42 29.5t32.5 34.5t13 47q0 26 -15.5 43t-34.5 17q-8 0 -14.5 -1l-12.5 -2q-7 -1 -13 -2v-100q-5 -2 -10 -3t-11 -1.5t-14 -0.5q-23 0 -36.5 13.5t-13.5 36.5q0 15 8 29.5t25 25.5t45 18t67 7z" />
    <glyph glyph-name="onehalf" unicode="&#xbd;" horiz-adv-x="687" 
d="M645 700l-515 -700h-55l515 700h55zM205 395l40 -10v-15h-190v15l40 10v225l-60 -45l-15 15l110 110h75v-305zM325 100l210 230h60v-225h62v-30h-62v-50l40 -10v-15h-190v15l40 10v50h-145zM365 105h120v130z" />
    <glyph glyph-name="threequarters" unicode="&#xbe;" horiz-adv-x="707" 
d="M345 100l210 230h60v-225h62v-30h-62v-50l40 -10v-15h-190v15l40 10v50h-145zM385 105h120v130zM675 700l-515 -700h-55l515 700h55zM175 360q-39 0 -67 7t-45 18t-25 25.5t-8 29.5q0 23 13.5 36.5t36.5 13.5q8 0 14 -1t11 -2l10 -2v-100q6 -2 13 -3q6 -1 12.5 -1.5
t14.5 -0.5q30 0 47.5 19t17.5 56q0 38 -17 56.5t-43 18.5h-26v20h26q15 0 30 18t15 52t-15 52t-30 18q-8 0 -14.5 -1l-12.5 -2q-7 -1 -13 -2v-100q-5 -2 -10 -3t-11 -1.5t-14 -0.5q-23 0 -36.5 13.5t-13.5 36.5q0 15 8 29.5t25 25.5t45 18t67 7q34 0 59 -7.5t42 -20.5
t25.5 -29t8.5 -33q0 -29 -17.5 -44.5t-37.5 -23.5q-25 -10 -55 -12q35 -3 62 -13q23 -8 43 -25t20 -47q0 -38 -36.5 -66.5t-118.5 -28.5z" />
    <glyph glyph-name="ordfeminine" unicode="&#xaa;" horiz-adv-x="415" 
d="M155 520q-4 -7 -8 -17q-7 -19 -7 -43q0 -38 15 -56.5t30 -18.5q11 0 20 8t16 18q8 11 14 27v87q-15 0 -29.5 -1t-25.5 -2zM195 710q72 0 111 -39t39 -111v-165l40 -10v-15h-60q-26 0 -42 7.5t-24 17.5q-10 11 -14 25q-7 -17 -19 -30q-11 -11 -28 -20.5t-43 -9.5
q-64 0 -94.5 26t-30.5 64q0 15 3 27t7 20q4 10 10 18q28 8 59 15q26 5 59 10t67 5v35q0 64 -17 87t-43 23q-8 0 -14.5 -1l-12.5 -2q-7 -1 -13 -2v-100q-5 -2 -10 -3t-11 -1.5t-14 -0.5q-23 0 -36.5 13.5t-13.5 36.5q0 15 8 29.5t25 25.5t45 18t67 7z" />
    <glyph glyph-name="i" unicode="i" horiz-adv-x="340" 
d="M95 625q0 17 7 32.5t18.5 27t27 18.5t32.5 7t32.5 -7t27 -18.5t18.5 -27t7 -32.5t-7 -32.5t-18.5 -27t-27 -18.5t-32.5 -7t-32.5 7t-27 18.5t-18.5 27t-7 32.5zM170 500q90 0 90 -90v-380l60 -15v-15h-280v15l60 15v440l-60 15v15h130z" />
    <glyph glyph-name="grave" unicode="`" horiz-adv-x="220" 
d="M150 700l40 -150h-35l-135 150h130z" />
    <glyph glyph-name="bar" unicode="|" horiz-adv-x="225" 
d="M140 700v-900h-55v900h55z" />
    <glyph glyph-name="asciitilde" unicode="~" horiz-adv-x="515" 
d="M380 345q34 0 57 22.5t23 52.5h25q0 -98 -37 -141.5t-98 -43.5q-36 0 -62 11.5t-49.5 26t-47.5 26t-56 11.5q-34 0 -57 -22.5t-23 -52.5h-25q0 98 37.5 141.5t97.5 43.5q36 0 62.5 -11.5t50.5 -26t48 -26t54 -11.5z" />
    <glyph glyph-name="quotesinglbase" unicode="&#x201a;" horiz-adv-x="245" 
d="M70 -105q23 8 42 23q17 13 32 34t21 53q-6 -4 -13 -8q-14 -7 -32 -7q-30 0 -52.5 22.5t-22.5 52.5t22.5 52.5t52.5 22.5q34 0 57 -24t23 -66q0 -55 -18.5 -89.5t-41.5 -54.5q-26 -24 -60 -36z" />
    <glyph glyph-name="quotedblbase" unicode="&#x201e;" horiz-adv-x="435" 
d="M70 -105q23 8 42 23q17 13 32 34t21 53q-6 -4 -13 -8q-14 -7 -32 -7q-30 0 -52.5 22.5t-22.5 52.5t22.5 52.5t52.5 22.5q34 0 57 -24t23 -66q0 -55 -18.5 -89.5t-41.5 -54.5q-26 -24 -60 -36zM260 -105q23 8 42 23q17 13 32 34t21 53q-6 -4 -13 -8q-14 -7 -32 -7
q-30 0 -52.5 22.5t-22.5 52.5t22.5 52.5t52.5 22.5q34 0 57 -24t23 -66q0 -55 -18.5 -89.5t-41.5 -54.5q-26 -24 -60 -36z" />
    <glyph glyph-name="quotedblright" unicode="&#x201d;" horiz-adv-x="435" 
d="M70 465q23 8 42 23q17 13 32 34t21 53q-6 -4 -13 -8q-14 -7 -32 -7q-30 0 -52.5 22.5t-22.5 52.5t22.5 52.5t52.5 22.5q34 0 57 -24t23 -66q0 -55 -18.5 -89.5t-41.5 -54.5q-26 -24 -60 -36zM260 465q23 8 42 23q17 13 32 34t21 53q-6 -4 -13 -8q-14 -7 -32 -7
q-30 0 -52.5 22.5t-22.5 52.5t22.5 52.5t52.5 22.5q34 0 57 -24t23 -66q0 -55 -18.5 -89.5t-41.5 -54.5q-26 -24 -60 -36z" />
    <glyph glyph-name="quotedblleft" unicode="&#x201c;" horiz-adv-x="435" 
d="M365 685q-23 -8 -42 -23q-17 -13 -32.5 -34t-20.5 -53q6 3 13 7q6 3 14 5.5t18 2.5q30 0 52.5 -22.5t22.5 -52.5t-22.5 -52.5t-52.5 -22.5q-34 0 -57 24t-23 66q0 54 18.5 89t41.5 55q26 24 60 36zM175 685q-23 -8 -42 -23q-17 -13 -32.5 -34t-20.5 -53q6 3 13 7
q6 3 14 5.5t18 2.5q30 0 52.5 -22.5t22.5 -52.5t-22.5 -52.5t-52.5 -22.5q-34 0 -57 24t-23 66q0 54 18.5 89t41.5 55q26 24 60 36z" />
    <glyph glyph-name="endash" unicode="&#x2013;" 
d="M30 295v40h500v-40h-500z" />
    <glyph glyph-name="emdash" unicode="&#x2014;" horiz-adv-x="780" 
d="M30 295v40h720v-40h-720z" />
    <glyph glyph-name="guilsinglright" unicode="&#x203a;" horiz-adv-x="365" 
d="M350 250l-290 -240l-30 35l235 205l-235 205l30 35z" />
    <glyph glyph-name="logicalnot" unicode="&#xac;" horiz-adv-x="470" 
d="M395 320h-365v45h410v-145h-45v100z" />
    <glyph glyph-name="dieresis" unicode="&#xa8;" horiz-adv-x="365" 
d="M20 630q0 30 20 50t50 20t50 -20t20 -50t-20 -50t-50 -20t-50 20t-20 50zM205 630q0 30 20 50t50 20t50 -20t20 -50t-20 -50t-50 -20t-50 20t-20 50z" />
    <glyph glyph-name="periodcentered" unicode="&#xb7;" horiz-adv-x="280" 
d="M215 350q0 -34 -22.5 -57t-52.5 -23t-52.5 23t-22.5 57t22.5 57t52.5 23t52.5 -23t22.5 -57z" />
    <glyph glyph-name="bullet" unicode="&#x2022;" horiz-adv-x="330" 
d="M265 330q0 -45 -27.5 -72.5t-72.5 -27.5t-72.5 27.5t-27.5 72.5t27.5 72.5t72.5 27.5t72.5 -27.5t27.5 -72.5z" />
    <glyph glyph-name="acute" unicode="&#xb4;" horiz-adv-x="220" 
d="M200 700l-135 -150h-35l40 150h130z" />
    <glyph glyph-name="exclamdown" unicode="&#xa1;" horiz-adv-x="310" 
d="M250 -100q0 -53 -28.5 -84t-66.5 -31t-66.5 31t-28.5 84l80 385h30zM230 430q0 -34 -22.5 -57t-52.5 -23t-52.5 23t-22.5 57t22.5 57t52.5 23t52.5 -23t22.5 -57z" />
    <glyph glyph-name="questiondown" unicode="&#xbf;" 
d="M350 -190q19 0 33.5 2t25.5 5q12 4 21 8v160q5 1 12 2q5 1 12.5 2t15.5 1q34 0 54.5 -20.5t20.5 -54.5q0 -23 -13 -46t-40 -41.5t-67.5 -30.5t-94.5 -12q-77 0 -132.5 16t-91.5 43.5t-53.5 65t-17.5 80.5q0 83 61 139.5t189 75.5l5 80h40l5 -95q-28 -11 -51 -27
t-39.5 -39.5t-25.5 -56t-9 -77.5q0 -98 35.5 -139t104.5 -41zM240 430q0 34 22.5 57t52.5 23t52.5 -23t22.5 -57t-22.5 -57t-52.5 -23t-52.5 23t-22.5 57z" />
    <glyph glyph-name="divide" unicode="&#xf7;" horiz-adv-x="500" 
d="M30 310v45h440v-45h-440zM325 150q0 -30 -22.5 -52.5t-52.5 -22.5t-52.5 22.5t-22.5 52.5t22.5 52.5t52.5 22.5t52.5 -22.5t22.5 -52.5zM325 515q0 -30 -22.5 -52.5t-52.5 -22.5t-52.5 22.5t-22.5 52.5t22.5 52.5t52.5 22.5t52.5 -22.5t22.5 -52.5z" />
    <glyph glyph-name="multiply" unicode="&#xd7;" horiz-adv-x="406" 
d="M344 167l-141 141l-141 -141l-32 31l141 142l-141 141l32 32l141 -141l141 141l32 -32l-141 -141l141 -142z" />
    <glyph glyph-name="ellipsis" unicode="&#x2026;" horiz-adv-x="700" 
d="M195 65q0 -30 -22.5 -52.5t-52.5 -22.5t-52.5 22.5t-22.5 52.5t22.5 52.5t52.5 22.5t52.5 -22.5t22.5 -52.5zM425 65q0 -30 -22.5 -52.5t-52.5 -22.5t-52.5 22.5t-22.5 52.5t22.5 52.5t52.5 22.5t52.5 -22.5t22.5 -52.5zM655 65q0 -30 -22.5 -52.5t-52.5 -22.5
t-52.5 22.5t-22.5 52.5t22.5 52.5t52.5 22.5t52.5 -22.5t22.5 -52.5z" />
    <glyph glyph-name="Euro" unicode="&#x20ac;" horiz-adv-x="695" 
d="M94 420q9 71 35.5 126t67 92.5t94 57t115.5 19.5q35 0 64.5 -10.5t50.5 -22.5q25 -14 44 -32q8 13 17.5 23.5t17.5 17.5q10 8 20 14h25v-190h-40q-14 48 -39 87q-21 33 -56 60.5t-85 27.5q-27 0 -53.5 -13.5t-48 -45t-36.5 -83.5t-20 -128h278v-30h-280v-90h270v-30h-267
q6 -74 21.5 -124t39.5 -80t55 -43t66 -13q36 0 69 15.5t59 42t41.5 60.5t15.5 72h25q0 -43 -17.5 -82t-48.5 -68.5t-73 -47t-91 -17.5q-139 0 -227 73t-108 212h-85v30h81q-1 9 -1 19v31v26q0 7 1 14h-71v30h74z" />
    <glyph glyph-name="perthousand" unicode="&#x2030;" horiz-adv-x="1090" 
d="M660 700l-515 -700h-55l515 700h55zM590 165q0 47 -5 77t-13 47.5t-18 24t-19 6.5t-19 -6.5t-18 -24t-13 -47.5t-5 -77t5 -77t13 -47.5t18 -24t19 -6.5t19 6.5t18 24t13 47.5t5 77zM700 165q0 -39 -12.5 -71.5t-34.5 -55.5t-52 -35.5t-66 -12.5t-66 12.5t-52 35.5
t-34.5 55.5t-12.5 71.5t12.5 71.5t34.5 55.5t52 35.5t66 12.5t66 -12.5t52 -35.5t34.5 -55.5t12.5 -71.5zM250 535q0 47 -5 77t-13 47.5t-18 24t-19 6.5t-19 -6.5t-18 -24t-13 -47.5t-5 -77t5 -77t13 -47.5t18 -24t19 -6.5t19 6.5t18 24t13 47.5t5 77zM360 535
q0 -39 -12.5 -71.5t-34.5 -55.5t-52 -35.5t-66 -12.5t-66 12.5t-52 35.5t-34.5 55.5t-12.5 71.5t12.5 71.5t34.5 55.5t52 35.5t66 12.5t66 -12.5t52 -35.5t34.5 -55.5t12.5 -71.5zM950 165q0 47 -5 77t-13 47.5t-18 24t-19 6.5t-19 -6.5t-18 -24t-13 -47.5t-5 -77t5 -77
t13 -47.5t18 -24t19 -6.5t19 6.5t18 24t13 47.5t5 77zM1060 165q0 -39 -12.5 -71.5t-34.5 -55.5t-52 -35.5t-66 -12.5t-66 12.5t-52 35.5t-34.5 55.5t-12.5 71.5t12.5 71.5t34.5 55.5t52 35.5t66 12.5t66 -12.5t52 -35.5t34.5 -55.5t12.5 -71.5z" />
    <glyph glyph-name="uni00AD" unicode="&#xad;" horiz-adv-x="460" 
d="M430 345v-45h-400v45h400z" />
    <glyph glyph-name="degree" unicode="&#xb0;" horiz-adv-x="370" 
d="M340 555q0 -32 -11 -60t-31 -49t-48.5 -33.5t-64.5 -12.5t-64.5 12.5t-48.5 33.5t-31 49t-11 60t11 60t31 49t48.5 33.5t64.5 12.5t64.5 -12.5t48.5 -33.5t31 -49t11 -60zM265 555q0 53 -23 79t-57 26t-57 -26t-23 -79t23 -79t57 -26t57 26t23 79z" />
    <glyph glyph-name="plusminus" unicode="&#xb1;" horiz-adv-x="505" 
d="M230 135v185h-200v45h200v205h45v-205h200v-45h-200v-185h-45zM465 95v-45h-425v45h425z" />
    <glyph glyph-name="brokenbar" unicode="&#xa6;" horiz-adv-x="225" 
d="M140 700v-360h-55v360h55zM85 -200v360h55v-360h-55z" />
    <glyph glyph-name="yen" unicode="&#xa5;" horiz-adv-x="665" 
d="M130 220h125v40l-10 20h-115v30h100l-180 360l-50 15v15h125q28 0 49 -6.5t37 -17.5t28 -26.5t21 -34.5l148 -293l152 333l-75 30v15h190v-15l-80 -30l-158 -345h108v-30h-121l-4 -10v-50h125v-30h-125v-160l60 -15v-15h-285v15l60 15v160h-125v30z" />
    <glyph glyph-name="cent" unicode="&#xa2;" horiz-adv-x="530" 
d="M330 580v-66q43 -2 74 -12t51.5 -25t30 -34t9.5 -38q0 -34 -20.5 -54.5t-54.5 -20.5q-8 0 -15.5 0.5t-12.5 1.5q-7 1 -12 3v150q-6 2 -14 5q-7 2 -16 3.5t-20 1.5v-485q30 0 56.5 11t46 29.5t31 42t11.5 47.5h25q0 -29 -12 -55.5t-34.5 -47.5t-53.5 -34.5t-70 -16.5v-66
h-30v65q-125 3 -192.5 73t-67.5 192q0 121 68 191.5t192 73.5v65h30zM210 250q0 -61 6.5 -103.5t18.5 -70t28.5 -42.5t36.5 -21v478q-20 -5 -36.5 -20t-28.5 -43.5t-18.5 -72t-6.5 -105.5z" />
    <glyph glyph-name="currency" unicode="&#xa4;" horiz-adv-x="690" 
d="M50 205h75v65h-75v30h75v370l-60 15v15h280q86 0 145.5 -14.5t96 -42.5t52.5 -67.5t16 -90.5t-16 -90.5t-52.5 -67.5t-96 -42.5t-145.5 -14.5h-55v-65h250v-30h-250v-145l60 -15v-15h-285v15l60 15v145h-75v30zM345 300q60 0 100 45.5t40 139.5q0 97 -40 143.5t-100 46.5
h-55v-375h55z" />
    <glyph glyph-name="tilde" unicode="&#x2dc;" horiz-adv-x="315" 
d="M205 580q-23 0 -38.5 8t-29 17l-25.5 17t-27 8q-19 0 -32 -13t-13 -32h-20q0 60 24 87.5t66 27.5q22 0 38 -8t29.5 -17l25.5 -17t27 -8q19 0 32 13t13 32h20q0 -60 -24 -87.5t-66 -27.5z" />
    <glyph glyph-name="less" unicode="&#x3c;" horiz-adv-x="505" 
d="M470 500v-55l-345 -195l345 -195v-55l-445 250z" />
    <glyph glyph-name="guilsinglleft" unicode="&#x2039;" horiz-adv-x="365" 
d="M305 490l30 -35l-235 -205l235 -205l-30 -35l-290 240z" />
    <glyph glyph-name="caron" unicode="&#x2c7;" horiz-adv-x="330" 
d="M195 710h-60l-115 150h35l110 -80l110 80h35z" />
    <glyph glyph-name="circumflex" unicode="&#x2c6;" horiz-adv-x="330" 
d="M165 715l145 -165h-35l-110 70l-110 -70h-35z" />
    <glyph glyph-name="mu" unicode="&#xb5;" horiz-adv-x="655" 
d="M30 -200v15l60 15v640l-60 15v15h130q90 0 90 -90v-250q0 -34 7 -58.5t17.5 -40.5t24 -23.5t26.5 -7.5q23 0 39.5 12.5t27.5 27.5q13 18 23 40v360l-60 15v15h280v-15l-60 -15v-475h-10q-44 0 -70.5 14t-40.5 31q-17 19 -24 45q-9 -26 -24 -45q-13 -17 -33 -31t-48 -14
q-19 0 -33 5t-23 12q-11 8 -19 18v-140q0 -90 -90 -90h-130z" />
    <glyph glyph-name="mu" unicode="&#x3bc;" horiz-adv-x="655" 
d="M30 -200v15l60 15v640l-60 15v15h130q90 0 90 -90v-250q0 -34 7 -58.5t17.5 -40.5t24 -23.5t26.5 -7.5q23 0 39.5 12.5t27.5 27.5q13 18 23 40v360l-60 15v15h280v-15l-60 -15v-475h-10q-44 0 -70.5 14t-40.5 31q-17 19 -24 45q-9 -26 -24 -45q-13 -17 -33 -31t-48 -14
q-19 0 -33 5t-23 12q-11 8 -19 18v-140q0 -90 -90 -90h-130z" />
    <glyph glyph-name="kgreenlandic" unicode="&#x138;" horiz-adv-x="600" 
d="M170 500q90 0 90 -90v-150l185 195l-75 30v15h190v-15l-80 -30l-115 -120l195 -305l50 -15v-15h-130q-26 0 -46 6t-36 17.5t-28.5 27t-24.5 34.5l-85 135v-190l60 -15v-15h-280v15l60 15v440l-60 15v15h130z" />
    <glyph glyph-name="Lslash" unicode="&#x141;" horiz-adv-x="620" 
d="M345 700v-15l-60 -15v-219l80 49v-35l-80 -49v-391h215q0 39 10 68t22 49q14 23 33 38h30v-180h-535v15l60 15v286l-85 -51v35l85 51v319l-60 15v15h285z" />
    <glyph glyph-name="cedilla" unicode="&#xb8;" horiz-adv-x="201" 
d="M51 0h35v-50q45 0 70 -22.5t25 -52.5t-26 -52.5t-79 -22.5q-11 0 -21 0.5t-18 1.5q-9 1 -17 3v30q4 -3 10 -5q10 -5 26 -5q23 0 36.5 13.5t13.5 36.5t-14.5 36.5t-40.5 13.5v75z" />
    <glyph glyph-name="ae" unicode="&#xe6;" horiz-adv-x="880" 
d="M630 -15q-51 0 -85.5 14.5t-55.5 32.5q-25 21 -39 48q-21 -27 -49 -48q-25 -18 -61 -32.5t-85 -14.5q-54 0 -93 10.5t-64 29t-36.5 43t-11.5 52.5q0 23 5 40.5t12 31.5q8 15 18 28q42 10 89 18q40 7 90 13.5t101 8.5v40q0 58 -7.5 96t-21.5 60t-34.5 30.5t-46.5 8.5
q-11 0 -20 -1.5t-16 -3.5q-8 -3 -14 -5v-150q-7 -2 -13 -3t-12.5 -1.5t-14.5 -0.5q-34 0 -54.5 20.5t-20.5 54.5q0 21 10.5 40.5t33 35t57.5 25t84 9.5t82 -14t54 -31q24 -20 39 -45q14 25 37 45q20 17 51.5 31t76.5 14q52 0 94.5 -16t72.5 -43t46.5 -63.5t16.5 -77.5
q0 -11 -1.5 -20t-3.5 -16q-3 -8 -5 -14q-44 -9 -93 -15q-42 -6 -97 -10.5t-115 -4.5v-22q1 -59 10 -98t25 -62t37.5 -33t47.5 -10q30 0 56.5 11t46 29.5t31 42t11.5 47.5h25q0 -30 -13.5 -58t-38.5 -49.5t-60 -34.5t-78 -13zM530 260q34 0 60 1.5t44 3.5q21 2 36 5
q2 10 5 21q2 9 3.5 21t1.5 23q0 45 -7 75.5t-17.5 49.5t-24 27t-26.5 8t-26 -9t-23.5 -34t-17.5 -70t-8 -117v-5zM235 225q-6 -13 -10 -30q-4 -14 -7 -33t-3 -42q0 -60 18.5 -85t41.5 -25q26 0 43 14.5t28 32.5q12 21 19 48v130q-23 0 -46 -1.5t-42 -3.5q-22 -3 -42 -5z" />
    <glyph glyph-name="oe" unicode="&#x153;" horiz-adv-x="920" 
d="M670 -15q-53 0 -89 14t-59 31q-26 19 -42 45q-13 -26 -38 -45q-21 -17 -57 -31t-90 -14q-58 0 -105 18t-80.5 52.5t-51.5 83.5t-18 111t18 111t51.5 83.5t80.5 52.5t105 18q54 0 90 -14t57 -31q25 -20 38 -45q13 25 37 45q20 17 53.5 31t84.5 14q52 0 94.5 -16t72.5 -43
t46.5 -63.5t16.5 -77.5q0 -15 -1.5 -26t-3.5 -19l-5 -15q-44 -9 -93 -15q-42 -6 -97 -10.5t-115 -4.5q0 -62 9 -103.5t25 -66t38 -35t48 -10.5q30 0 56.5 11t46 29.5t31 42t11.5 47.5h25q0 -30 -13.5 -58t-38.5 -49.5t-60 -34.5t-78 -13zM305 5q17 0 34 11t30.5 38.5t22 75
t8.5 120.5t-8.5 120.5t-22 75t-30.5 38.5t-34 11t-34 -11t-30.5 -38.5t-22 -75t-8.5 -120.5t8.5 -120.5t22 -75t30.5 -38.5t34 -11zM570 250q34 0 60 1.5t44 3.5q21 2 36 5q2 10 5 22q2 11 3.5 24.5t1.5 28.5q0 45 -7 75.5t-17.5 49.5t-24 27t-26.5 8t-26.5 -9.5t-24 -36
t-17.5 -74.5t-7 -125z" />
    <glyph glyph-name="AE" unicode="&#xc6;" horiz-adv-x="991" 
d="M465 265h-257l-122 -220l75 -30v-15h-191v15l80 30l366 655h514v-180h-30q-19 15 -33 38q-12 20 -22 48.5t-10 68.5h-205v-315h105q4 20 11 38.5t15 32.5q9 16 19 29h30v-225h-30q-10 13 -19 29q-8 14 -15 32t-11 39h-105v-310h225q0 39 10 68t22 49q14 23 33 38h30v-180
h-545v15l60 15v235zM223 290h242v385h-27z" />
    <glyph glyph-name="OE" unicode="&#x152;" horiz-adv-x="985" 
d="M925 700v-180h-30q-19 15 -33 38q-12 20 -22 48.5t-10 68.5h-205v-315h105q4 20 11 38.5t15 32.5q9 16 19 29h30v-225h-30q-10 13 -19 29q-8 14 -15 32t-11 39h-105v-310h225q0 39 10 68t22 49q14 23 33 38h30v-180h-530q-180 0 -275 92.5t-95 257.5t95 257.5t275 92.5
h510zM415 675q-43 0 -79 -16.5t-61.5 -54.5t-40 -100t-14.5 -154t14.5 -154t40 -100t61.5 -54.5t79 -16.5h45v650h-45z" />
    <glyph glyph-name="Thorn" unicode="&#xde;" horiz-adv-x="700" 
d="M320 610q90 0 156 -19.5t109 -54t64 -82.5t21 -104t-21 -104t-64 -82.5t-109 -54t-156 -19.5h-45v-60l60 -15v-15h-285v15l60 15v640l-60 15v15h285v-15l-60 -15v-60h45zM275 115h45q36 0 67.5 15t55.5 44.5t38 73.5t14 102t-14 102t-38 73.5t-55.5 44.5t-67.5 15h-45
v-470z" />
    <glyph glyph-name="thorn" unicode="&#xfe;" horiz-adv-x="625" 
d="M160 700q90 0 90 -90v-160q14 18 33 32q17 12 41 22.5t56 10.5q43 0 80.5 -17t65 -50t43.5 -82.5t16 -115.5t-16 -115.5t-45 -82.5t-69.5 -50t-89.5 -17q-26 0 -47.5 6t-36.5 14q-18 9 -31 20v-195l60 -15v-15h-280v15l60 15v840l-60 15v15h130zM250 55q10 -11 22 -20
q11 -8 24.5 -14t28.5 -6q19 0 35.5 9.5t28.5 35t19 71.5t7 119q0 71 -7 116t-17.5 70.5t-24 34.5t-26.5 9q-21 0 -37.5 -12.5t-28.5 -27.5q-14 -18 -24 -40v-345z" />
    <glyph glyph-name="nonbreakingspace" unicode="&#xa0;" horiz-adv-x="-229" 
 />
    <glyph glyph-name="eth" unicode="&#xf0;" horiz-adv-x="605" 
d="M350 659q102 -45 158.5 -141.5t56.5 -247.5q0 -139 -70.5 -212t-195.5 -73q-62 0 -110.5 18t-83 50t-52.5 77.5t-18 99.5q0 55 17.5 100t49 77t74.5 50t94 18q35 0 60.5 -12t42.5 -26q19 -17 32 -37q-4 69 -26.5 118t-58.5 87l-41 -75l-21 13l44 80q-69 57 -165 57v20
q54 0 101 -8t89 -23l40 73l21 -13zM205 230q0 -66 8.5 -109t22 -69t30 -36.5t33.5 -10.5t34.5 10.5t31 36.5t22 69t8.5 109v10q0 60 -8.5 101t-23.5 66.5t-34 36.5t-40 11q-13 0 -27.5 -10.5t-27 -36.5t-21 -69t-8.5 -109z" />
    <glyph glyph-name="macron" unicode="&#xaf;" horiz-adv-x="300" 
d="M20 655v45h260v-45h-260z" />
    <glyph glyph-name="germandbls" unicode="&#xdf;" horiz-adv-x="690" 
d="M470 10q15 0 27.5 16t12.5 54q0 32 -14 56t-35 43.5t-46 38t-46 39.5t-35 48t-14 65q0 41 13.5 66.5t29 47t29 45t13.5 61.5q0 49 -22.5 74.5t-52.5 25.5q-17 0 -31.5 -8t-25.5 -29t-17 -58t-6 -95v-500h-220v15l60 15v470q0 47 16.5 86.5t47.5 68t75.5 44.5t100.5 16
q47 0 85 -13.5t64.5 -34.5t41 -47t14.5 -50q0 -41 -9.5 -66t-20.5 -44l-20.5 -36.5t-9.5 -43.5q0 -25 14 -43.5t35 -34.5t46 -32t46 -35.5t35 -44.5t14 -60q0 -64 -44 -104.5t-131 -40.5q-26 0 -45 7t-31 15q-14 10 -24 23q-8 -11 -17.5 -18t-17.5 -11q-10 -4 -20 -6h-25
v170h40q14 -44 32 -78q16 -29 37.5 -53t50.5 -24z" />
    <glyph glyph-name="sterling" unicode="&#xa3;" horiz-adv-x="600" 
d="M284 380h176v-30h-177l-8 -180q-2 -40 -17 -62.5t-32 -34.5q-20 -14 -46 -18h295q4 30 13.5 52.5t20.5 37.5q12 18 26 30h30v-175h-530v24q15 2 28 9.5t22.5 24t16 44t8.5 68.5l8 180h-73v30h74l6 130q5 94 63 149.5t167 55.5q49 0 82.5 -9.5t54 -24.5t29.5 -34.5
t9 -40.5q0 -34 -20.5 -54.5t-54.5 -20.5q-8 0 -15.5 0.5t-12.5 1.5q-7 1 -12 3v150q-4 2 -9 4t-12.5 3.5t-18.5 1.5q-17 0 -31.5 -8t-25.5 -28.5t-18 -56.5t-10 -92z" />
    <glyph glyph-name="dagger" unicode="&#x2020;" horiz-adv-x="540" 
d="M510 405l-60 -65l-150 50l65 -450l-95 -150l-95 150l65 450l-150 -50l-60 65l60 65l150 -50l-45 200l75 90l75 -90l-45 -200l150 50z" />
    <glyph glyph-name="daggerdbl" unicode="&#x2021;" horiz-adv-x="540" 
d="M346 275l-46 -140l120 50l60 -65l-60 -65l-120 50l55 -215l-85 -100l-85 100l55 215l-120 -50l-60 65l60 65l120 -50l-45 140l45 130l-150 -50l-60 65l60 65l150 -50l-40 190l70 85l70 -85l-40 -190l150 50l60 -65l-60 -65l-150 50z" />
    <glyph glyph-name="foundryicon" horiz-adv-x="1305" 
d="M30 270l165 165v-165h-165zM395 350q0 -17 -7 -32.5t-18.5 -27t-27 -18.5t-32.5 -7t-32.5 7t-27 18.5t-18.5 27t-7 32.5t7 32.5t18.5 27t27 18.5t32.5 7t32.5 -7t27 -18.5t18.5 -27t7 -32.5zM575 430l-90 -165l-90 165h180zM725 410l140 -140h-140v140zM530 270l90 165
l90 -165h-180zM885 290l-140 140h140v-140zM921 410l140 -140h-140v140zM1081 290l-140 140h140v-140zM1275 430l-90 -165l-90 165h180z" />
    <glyph glyph-name="eight" unicode="8" horiz-adv-x="615" 
d="M535 555q0 -24 -11.5 -48t-30 -44t-43 -35.5t-50.5 -22.5q87 -38 136 -92.5t49 -137.5q0 -38 -17 -72t-53 -60.5t-90.5 -42t-129.5 -15.5q-66 0 -114 14t-79.5 38.5t-46.5 57t-15 70.5q0 28 13 55.5t35.5 51.5t52.5 43t64 30q-30 17 -55 36t-42.5 42t-27.5 50.5t-10 61.5
q0 37 15 70t46.5 57.5t79.5 38.5t114 14q49 0 88 -14t66 -36.5t41.5 -51t14.5 -58.5zM420 145q0 49 -48 97.5t-127 82.5q-53 -19 -86.5 -57.5t-33.5 -102.5q0 -32 12.5 -60t34 -49t50.5 -33.5t63 -12.5q64 0 99.5 35.5t35.5 99.5zM235 565q0 -80 135 -140q34 15 59.5 46
t25.5 84q0 28 -10.5 52.5t-27 43t-38.5 29t-44 10.5q-42 0 -71 -32.5t-29 -92.5z" />
    <glyph glyph-name="Scaron" unicode="&#x160;" horiz-adv-x="595" 
d="M35 0zM275 10q57 0 91 34t34 91q0 39 -26.5 67.5t-65.5 53.5t-85.5 50t-85.5 57t-65.5 74.5t-26.5 102.5q0 36 15 67.5t45.5 55.5t76.5 38t108 14q35 0 65 -10.5t51 -22.5q25 -14 44 -32q8 13 17.5 23.5t17.5 17.5q10 8 20 14h25v-190h-40q-14 48 -39 87q-21 33 -56 60.5
t-85 27.5q-19 0 -36 -8t-30 -22.5t-21 -35t-8 -44.5q0 -43 26.5 -73.5t65.5 -56.5t85.5 -51t85.5 -55.5t65.5 -69.5t26.5 -94q0 -39 -17 -74.5t-51 -62.5t-86 -42.5t-121 -15.5q-44 0 -77 10t-56 22q-27 14 -47 33q-8 -14 -17.5 -24t-17.5 -17q-10 -8 -20 -14h-25v190h40
q15 -49 42 -88q12 -17 27 -32.5t34.5 -27.5t43.5 -19.5t53 -7.5zM327 765h-60l-115 150h35l110 -80l110 80h35z" />
    <glyph glyph-name="Zcaron" unicode="&#x17d;" horiz-adv-x="635" 
d="M40 0zM495 25q0 39 10 68t22 49q14 23 33 38h30v-180h-550v25l371 650h-261q0 -40 -10.5 -68.5t-22.5 -48.5q-14 -23 -32 -38h-30v180h540v-25l-370 -650h270zM342 765h-60l-115 150h35l110 -80l110 80h35z" />
    <glyph glyph-name="scaron" unicode="&#x161;" horiz-adv-x="540" 
d="M45 0zM275 -15q-36 0 -63.5 8t-47.5 19q-23 12 -39 28q-8 -11 -17.5 -20t-17.5 -14q-10 -7 -20 -11h-25v170h40q14 -44 38 -78q20 -29 52 -53t80 -24q42 0 63.5 21t21.5 59q0 28 -21.5 48t-53.5 38t-70 36.5t-70 41.5t-53.5 53t-21.5 73q0 28 11.5 52.5t37 43t65.5 29
t96 10.5q30 0 55 -8.5t43 -19.5q21 -12 38 -27q8 11 17.5 19.5t17.5 14.5q10 6 20 11h25v-170h-40q-15 43 -37 77q-19 29 -48 53.5t-71 24.5q-26 0 -45.5 -20t-19.5 -50t21.5 -52t53.5 -41t70 -37t70 -40.5t53.5 -51t21.5 -68.5q0 -32 -12 -58.5t-39 -46t-71 -30t-108 -10.5
zM295 566h-60l-115 150h35l110 -80l110 80h35z" />
    <glyph glyph-name="zcaron" unicode="&#x17e;" horiz-adv-x="545" 
d="M40 0zM145 475q0 -36 -10.5 -63.5t-22.5 -47.5q-14 -23 -32 -39h-30v175h455v-25l-285 -450h190q0 35 10 63t22 48q14 23 33 39h30v-175h-465v25l285 450h-180zM300 566h-60l-115 150h35l110 -80l110 80h35z" />
    <glyph glyph-name="Ydieresis" unicode="&#x178;" horiz-adv-x="665" 
d="M0 0zM50 670l-50 15v15h125q28 0 49 -6.5t37 -17.5t28 -26.5t21 -34.5l148 -295l152 335l-75 30v15h190v-15l-80 -30l-175 -385v-240l60 -15v-15h-285v15l60 15v230zM190 825q0 30 20 50t50 20t50 -20t20 -50t-20 -50t-50 -20t-50 20t-20 50zM375 825q0 30 20 50t50 20
t50 -20t20 -50t-20 -50t-50 -20t-50 20t-20 50z" />
    <glyph glyph-name="quoteleft" unicode="&#x2018;" horiz-adv-x="245" 
d="M175 685q-23 -8 -42 -23q-17 -13 -32.5 -34t-20.5 -53q6 3 13 7q6 3 14 5.5t18 2.5q30 0 52.5 -22.5t22.5 -52.5t-22.5 -52.5t-52.5 -22.5q-34 0 -57 24t-23 66q0 54 18.5 89t41.5 55q26 24 60 36z" />
    <glyph glyph-name="quoteright" unicode="&#x2019;" horiz-adv-x="245" 
d="M70 465q23 8 42 23q17 13 32 34t21 53q-6 -4 -13 -8q-14 -7 -32 -7q-30 0 -52.5 22.5t-22.5 52.5t22.5 52.5t52.5 22.5q34 0 57 -24t23 -66q0 -55 -18.5 -89.5t-41.5 -54.5q-26 -24 -60 -36z" />
    <glyph glyph-name="Agrave" unicode="&#xc0;" horiz-adv-x="680" 
d="M0 0zM165 15v-15h-185v15l80 30l275 665h30l285 -680l50 -15v-15h-120q-56 0 -88 25.5t-46 59.5l-51 120h-239l-66 -160zM166 230h219l-110 263zM330 900l40 -150h-35l-135 150h130z" />
    <glyph glyph-name="Aacute" unicode="&#xc1;" horiz-adv-x="680" 
d="M0 0zM165 15v-15h-185v15l80 30l275 665h30l285 -680l50 -15v-15h-120q-56 0 -88 25.5t-46 59.5l-51 120h-239l-66 -160zM166 230h219l-110 263zM500 900l-135 -150h-35l40 150h130z" />
    <glyph glyph-name="Acircumflex" unicode="&#xc2;" horiz-adv-x="680" 
d="M0 0zM165 15v-15h-185v15l80 30l275 665h30l285 -680l50 -15v-15h-120q-56 0 -88 25.5t-46 59.5l-51 120h-239l-66 -160zM166 230h219l-110 263zM355 905l145 -165h-35l-110 70l-110 -70h-35z" />
    <glyph glyph-name="Atilde" unicode="&#xc3;" horiz-adv-x="680" 
d="M0 0zM165 15v-15h-185v15l80 30l275 665h30l285 -680l50 -15v-15h-120q-56 0 -88 25.5t-46 59.5l-51 120h-239l-66 -160zM166 230h219l-110 263zM402 765q-23 0 -38.5 8t-29 17l-25.5 17t-27 8q-19 0 -32 -13t-13 -32h-20q0 60 24 87.5t66 27.5q22 0 38 -8t29.5 -17
l25.5 -17t27 -8q19 0 32 13t13 32h20q0 -60 -24 -87.5t-66 -27.5z" />
    <glyph glyph-name="Adieresis" unicode="&#xc4;" horiz-adv-x="680" 
d="M0 0zM165 15v-15h-185v15l80 30l275 665h30l285 -680l50 -15v-15h-120q-56 0 -88 25.5t-46 59.5l-51 120h-239l-66 -160zM166 230h219l-110 263zM192 830q0 30 20 50t50 20t50 -20t20 -50t-20 -50t-50 -20t-50 20t-20 50zM377 830q0 30 20 50t50 20t50 -20t20 -50
t-20 -50t-50 -20t-50 20t-20 50z" />
    <glyph glyph-name="Ccedilla" unicode="&#xc7;" horiz-adv-x="650" 
d="M361 715q35 0 64.5 -10.5t50.5 -22.5q25 -14 44 -32q8 13 17.5 23.5t17.5 17.5q10 8 20 14h25v-190h-40q-14 48 -39 87q-21 33 -56 60.5t-85 27.5q-30 0 -59 -16.5t-51.5 -56t-36 -105t-13.5 -162.5q0 -98 14 -163t39 -104.5t59 -56t73 -16.5q36 0 69 15.5t59 42
t41.5 60.5t15.5 72h25q0 -43 -17.5 -82t-48.5 -68.5t-73 -47t-91 -17.5h-12v-35q45 0 70 -22.5t25 -52.5t-26 -52.5t-79 -22.5q-11 0 -21 0.5t-18 1.5q-9 1 -17 3v30q4 -3 10 -5q10 -5 26 -5q23 0 36.5 13.5t13.5 36.5t-14.5 36.5t-40.5 13.5v63q-138 13 -215.5 105.5
t-77.5 256.5q0 88 23 156t65 114.5t100 70.5t128 24z" />
    <glyph glyph-name="Egrave" unicode="&#xc8;" horiz-adv-x="645" 
d="M50 0zM390 360q4 20 11 38.5t15 32.5q9 16 19 29h30v-225h-30q-10 13 -19 29q-8 14 -15 32t-11 39h-115v-310h235q0 39 10 68t22 49q14 23 33 38h30v-180h-555v15l60 15v640l-60 15v15h535v-180h-30q-19 15 -33 38q-12 20 -22 48.5t-10 68.5h-215v-315h115zM347 900
l40 -150h-35l-135 150h130z" />
    <glyph glyph-name="Eacute" unicode="&#xc9;" horiz-adv-x="645" 
d="M50 0zM390 360q4 20 11 38.5t15 32.5q9 16 19 29h30v-225h-30q-10 13 -19 29q-8 14 -15 32t-11 39h-115v-310h235q0 39 10 68t22 49q14 23 33 38h30v-180h-555v15l60 15v640l-60 15v15h535v-180h-30q-19 15 -33 38q-12 20 -22 48.5t-10 68.5h-215v-315h115zM467 900
l-135 -150h-35l40 150h130z" />
    <glyph glyph-name="Ecircumflex" unicode="&#xca;" horiz-adv-x="645" 
d="M50 0zM390 360q4 20 11 38.5t15 32.5q9 16 19 29h30v-225h-30q-10 13 -19 29q-8 14 -15 32t-11 39h-115v-310h235q0 39 10 68t22 49q14 23 33 38h30v-180h-555v15l60 15v640l-60 15v15h535v-180h-30q-19 15 -33 38q-12 20 -22 48.5t-10 68.5h-215v-315h115zM342 925
l145 -165h-35l-110 70l-110 -70h-35z" />
    <glyph glyph-name="Edieresis" unicode="&#xcb;" horiz-adv-x="645" 
d="M50 0zM390 360q4 20 11 38.5t15 32.5q9 16 19 29h30v-225h-30q-10 13 -19 29q-8 14 -15 32t-11 39h-115v-310h235q0 39 10 68t22 49q14 23 33 38h30v-180h-555v15l60 15v640l-60 15v15h535v-180h-30q-19 15 -33 38q-12 20 -22 48.5t-10 68.5h-215v-315h115zM180 840
q0 30 20 50t50 20t50 -20t20 -50t-20 -50t-50 -20t-50 20t-20 50zM365 840q0 30 20 50t50 20t50 -20t20 -50t-20 -50t-50 -20t-50 20t-20 50z" />
    <glyph glyph-name="Igrave" unicode="&#xcc;" horiz-adv-x="385" 
d="M47 0zM50 685v15h285v-15l-60 -15v-640l60 -15v-15h-285v15l60 15v640zM177 900l40 -150h-35l-135 150h130z" />
    <glyph glyph-name="Iacute" unicode="&#xcd;" horiz-adv-x="385" 
d="M50 0zM50 685v15h285v-15l-60 -15v-640l60 -15v-15h-285v15l60 15v640zM337 900l-135 -150h-35l40 150h130z" />
    <glyph glyph-name="Icircumflex" unicode="&#xce;" horiz-adv-x="385" 
d="M47 0zM50 685v15h285v-15l-60 -15v-640l60 -15v-15h-285v15l60 15v640zM192 930l145 -165h-35l-110 70l-110 -70h-35z" />
    <glyph glyph-name="Idieresis" unicode="&#xcf;" horiz-adv-x="385" 
d="M30 0zM50 685v15h285v-15l-60 -15v-640l60 -15v-15h-285v15l60 15v640zM30 845q0 30 20 50t50 20t50 -20t20 -50t-20 -50t-50 -20t-50 20t-20 50zM215 845q0 30 20 50t50 20t50 -20t20 -50t-20 -50t-50 -20t-50 20t-20 50z" />
    <glyph glyph-name="Ntilde" unicode="&#xd1;" horiz-adv-x="740" 
d="M30 0zM605 655l-80 30v15h190v-15l-80 -30v-670h-30l-465 545v-485l80 -30v-15h-190v15l80 30v620l-70 20v15h105q30 0 52 -6.5t38.5 -17t28.5 -23t21 -23.5l320 -375v400zM440 765q-23 0 -38.5 8t-29 17l-25.5 17t-27 8q-19 0 -32 -13t-13 -32h-20q0 60 24 87.5t66 27.5
q22 0 38 -8t29.5 -17l25.5 -17t27 -8q19 0 32 13t13 32h20q0 -60 -24 -87.5t-66 -27.5z" />
    <glyph glyph-name="Ograve" unicode="&#xd2;" horiz-adv-x="740" 
d="M45 0zM520 350q0 99 -13.5 165.5t-35 106.5t-48.5 56.5t-53 16.5t-53 -16.5t-48.5 -56.5t-35 -106.5t-13.5 -165.5t13.5 -165.5t35 -106.5t48.5 -56.5t53 -16.5t53 16.5t48.5 56.5t35 106.5t13.5 165.5zM695 350q0 -88 -23.5 -156t-66 -114.5t-102.5 -70.5t-133 -24
t-133 24t-102.5 70.5t-66 114.5t-23.5 156t23.5 156t66 114.5t102.5 70.5t133 24t133 -24t102.5 -70.5t66 -114.5t23.5 -156zM355 900l40 -150h-35l-135 150h130z" />
    <glyph glyph-name="Oacute" unicode="&#xd3;" horiz-adv-x="740" 
d="M45 0zM520 350q0 99 -13.5 165.5t-35 106.5t-48.5 56.5t-53 16.5t-53 -16.5t-48.5 -56.5t-35 -106.5t-13.5 -165.5t13.5 -165.5t35 -106.5t48.5 -56.5t53 -16.5t53 16.5t48.5 56.5t35 106.5t13.5 165.5zM695 350q0 -88 -23.5 -156t-66 -114.5t-102.5 -70.5t-133 -24
t-133 24t-102.5 70.5t-66 114.5t-23.5 156t23.5 156t66 114.5t102.5 70.5t133 24t133 -24t102.5 -70.5t66 -114.5t23.5 -156zM515 900l-135 -150h-35l40 150h130z" />
    <glyph glyph-name="Ocircumflex" unicode="&#xd4;" horiz-adv-x="740" 
d="M45 0zM520 350q0 99 -13.5 165.5t-35 106.5t-48.5 56.5t-53 16.5t-53 -16.5t-48.5 -56.5t-35 -106.5t-13.5 -165.5t13.5 -165.5t35 -106.5t48.5 -56.5t53 -16.5t53 16.5t48.5 56.5t35 106.5t13.5 165.5zM695 350q0 -88 -23.5 -156t-66 -114.5t-102.5 -70.5t-133 -24
t-133 24t-102.5 70.5t-66 114.5t-23.5 156t23.5 156t66 114.5t102.5 70.5t133 24t133 -24t102.5 -70.5t66 -114.5t23.5 -156zM370 930l145 -165h-35l-110 70l-110 -70h-35z" />
    <glyph glyph-name="Otilde" unicode="&#xd5;" horiz-adv-x="740" 
d="M45 0zM520 350q0 99 -13.5 165.5t-35 106.5t-48.5 56.5t-53 16.5t-53 -16.5t-48.5 -56.5t-35 -106.5t-13.5 -165.5t13.5 -165.5t35 -106.5t48.5 -56.5t53 -16.5t53 16.5t48.5 56.5t35 106.5t13.5 165.5zM695 350q0 -88 -23.5 -156t-66 -114.5t-102.5 -70.5t-133 -24
t-133 24t-102.5 70.5t-66 114.5t-23.5 156t23.5 156t66 114.5t102.5 70.5t133 24t133 -24t102.5 -70.5t66 -114.5t23.5 -156zM422 775q-23 0 -38.5 8t-29 17l-25.5 17t-27 8q-19 0 -32 -13t-13 -32h-20q0 60 24 87.5t66 27.5q22 0 38 -8t29.5 -17l25.5 -17t27 -8q19 0 32 13
t13 32h20q0 -60 -24 -87.5t-66 -27.5z" />
    <glyph glyph-name="Odieresis" unicode="&#xd6;" horiz-adv-x="740" 
d="M45 0zM520 350q0 99 -13.5 165.5t-35 106.5t-48.5 56.5t-53 16.5t-53 -16.5t-48.5 -56.5t-35 -106.5t-13.5 -165.5t13.5 -165.5t35 -106.5t48.5 -56.5t53 -16.5t53 16.5t48.5 56.5t35 106.5t13.5 165.5zM695 350q0 -88 -23.5 -156t-66 -114.5t-102.5 -70.5t-133 -24
t-133 24t-102.5 70.5t-66 114.5t-23.5 156t23.5 156t66 114.5t102.5 70.5t133 24t133 -24t102.5 -70.5t66 -114.5t23.5 -156zM207 845q0 30 20 50t50 20t50 -20t20 -50t-20 -50t-50 -20t-50 20t-20 50zM392 845q0 30 20 50t50 20t50 -20t20 -50t-20 -50t-50 -20t-50 20
t-20 50z" />
    <glyph glyph-name="Ugrave" unicode="&#xd9;" horiz-adv-x="710" 
d="M35 0zM595 655l-80 30v15h190v-15l-80 -30v-405q0 -62 -17.5 -111t-48.5 -83.5t-73 -52.5t-91 -18q-150 0 -225 70.5t-75 194.5v420l-60 15v15h285v-15l-60 -15v-420q0 -68 11 -113.5t31 -74t48.5 -40.5t64.5 -12q34 0 66 16.5t57.5 47.5t41 75.5t15.5 100.5v405z
M400 900l40 -150h-35l-135 150h130z" />
    <glyph glyph-name="Uacute" unicode="&#xda;" horiz-adv-x="710" 
d="M35 0zM595 655l-80 30v15h190v-15l-80 -30v-405q0 -62 -17.5 -111t-48.5 -83.5t-73 -52.5t-91 -18q-150 0 -225 70.5t-75 194.5v420l-60 15v15h285v-15l-60 -15v-420q0 -68 11 -113.5t31 -74t48.5 -40.5t64.5 -12q34 0 66 16.5t57.5 47.5t41 75.5t15.5 100.5v405z
M540 900l-135 -150h-35l40 150h130z" />
    <glyph glyph-name="Ucircumflex" unicode="&#xdb;" horiz-adv-x="710" 
d="M35 0zM595 655l-80 30v15h190v-15l-80 -30v-405q0 -62 -17.5 -111t-48.5 -83.5t-73 -52.5t-91 -18q-150 0 -225 70.5t-75 194.5v420l-60 15v15h285v-15l-60 -15v-420q0 -68 11 -113.5t31 -74t48.5 -40.5t64.5 -12q34 0 66 16.5t57.5 47.5t41 75.5t15.5 100.5v405z
M405 925l145 -165h-35l-110 70l-110 -70h-35z" />
    <glyph glyph-name="Udieresis" unicode="&#xdc;" horiz-adv-x="710" 
d="M35 0zM595 655l-80 30v15h190v-15l-80 -30v-405q0 -62 -17.5 -111t-48.5 -83.5t-73 -52.5t-91 -18q-150 0 -225 70.5t-75 194.5v420l-60 15v15h285v-15l-60 -15v-420q0 -68 11 -113.5t31 -74t48.5 -40.5t64.5 -12q34 0 66 16.5t57.5 47.5t41 75.5t15.5 100.5v405z
M232 840q0 30 20 50t50 20t50 -20t20 -50t-20 -50t-50 -20t-50 20t-20 50zM417 840q0 30 20 50t50 20t50 -20t20 -50t-20 -50t-50 -20t-50 20t-20 50z" />
    <glyph glyph-name="Yacute" unicode="&#xdd;" horiz-adv-x="665" 
d="M0 0zM50 670l-50 15v15h125q28 0 49 -6.5t37 -17.5t28 -26.5t21 -34.5l148 -295l152 335l-75 30v15h190v-15l-80 -30l-175 -385v-240l60 -15v-15h-285v15l60 15v230zM487 900l-135 -150h-35l40 150h130z" />
    <glyph glyph-name="ring" unicode="&#x2da;" horiz-adv-x="270" 
d="M240 600q0 -21 -8 -39t-22 -31.5t-33.5 -21.5t-41.5 -8q-23 0 -42 8t-33 21.5t-22 31.5t-8 39t8 39t22 31.5t33 21.5t42 8q22 0 41.5 -8t33.5 -21.5t22 -31.5t8 -39zM190 600q0 30 -16 47.5t-39 17.5t-39 -17.5t-16 -47.5t16 -47.5t39 -17.5t39 17.5t16 47.5z" />
    <glyph glyph-name="ogonek" unicode="&#x2db;" horiz-adv-x="220" 
d="M200 0q-27 -13 -48 -31q-18 -16 -32.5 -39t-14.5 -55q0 -40 40 -40q9 0 17.5 3t14.5 7q7 4 13 10v-30q-8 -4 -18 -8q-19 -7 -47 -7q-53 0 -79 22.5t-26 52.5q0 32 20.5 53.5t46.5 35.5q30 16 68 26h45z" />
    <glyph glyph-name="Amacron" unicode="&#x100;" horiz-adv-x="680" 
d="M0 0zM165 15v-15h-185v15l80 30l275 665h30l285 -680l50 -15v-15h-120q-56 0 -88 25.5t-46 59.5l-51 120h-239l-66 -160zM166 230h219l-110 263zM230 784v45h260v-45h-260z" />
    <glyph glyph-name="Aogonek" unicode="&#x104;" horiz-adv-x="680" 
d="M165 15v-15h-185v15l80 30l275 665h30l285 -680l50 -15v-15q-27 -13 -48 -31q-18 -16 -32.5 -39t-14.5 -55q0 -40 40 -40q9 0 17.5 3t14.5 7q7 4 13 10v-30q-8 -4 -18 -8q-19 -7 -47 -7q-53 0 -79 22.5t-26 52.5q0 20 9 36.5t23 29t30.5 21.5t31.5 15t26 9t14 4h-74
q-56 0 -88 25.5t-46 59.5l-51 120h-239l-66 -160zM166 230h219l-110 263z" />
    <glyph glyph-name="Aring" unicode="&#xc5;" horiz-adv-x="680" 
d="M165 15v-15h-185v15l80 30l262 633q-35 9 -56 35.5t-21 61.5q0 21 8 39t22 31.5t33 21.5t42 8q22 0 41.5 -8t33.5 -21.5t22 -31.5t8 -39q0 -35 -21.5 -61.5t-55.5 -35.5l272 -648l50 -15v-15h-120q-56 0 -88 25.5t-46 59.5l-51 120h-239l-66 -160zM166 230h219l-110 263z
M405 775q0 30 -16 47.5t-39 17.5t-39 -17.5t-16 -47.5t16 -47.5t39 -17.5t39 17.5t16 47.5z" />
    <glyph glyph-name="Cacute" unicode="&#x106;" horiz-adv-x="650" 
d="M45 0zM361 715q35 0 64.5 -10.5t50.5 -22.5q25 -14 44 -32q8 13 17.5 23.5t17.5 17.5q10 8 20 14h25v-190h-40q-14 48 -39 87q-21 33 -56 60.5t-85 27.5q-30 0 -59 -16.5t-51.5 -56t-36 -105t-13.5 -162.5q0 -98 14 -163t39 -104.5t59 -56t73 -16.5q36 0 69 15.5t59 42
t41.5 60.5t15.5 72h25q0 -43 -17.5 -82t-48.5 -68.5t-73 -47t-91 -17.5q-79 0 -142 24t-107 70.5t-67.5 114.5t-23.5 156t23 156t65 114.5t100 70.5t128 24zM492 900l-135 -150h-35l40 150h130z" />
    <glyph glyph-name="Ccaron" unicode="&#x10c;" horiz-adv-x="650" 
d="M45 0zM361 715q35 0 64.5 -10.5t50.5 -22.5q25 -14 44 -32q8 13 17.5 23.5t17.5 17.5q10 8 20 14h25v-190h-40q-14 48 -39 87q-21 33 -56 60.5t-85 27.5q-30 0 -59 -16.5t-51.5 -56t-36 -105t-13.5 -162.5q0 -98 14 -163t39 -104.5t59 -56t73 -16.5q36 0 69 15.5t59 42
t41.5 60.5t15.5 72h25q0 -43 -17.5 -82t-48.5 -68.5t-73 -47t-91 -17.5q-79 0 -142 24t-107 70.5t-67.5 114.5t-23.5 156t23 156t65 114.5t100 70.5t128 24zM382 765h-60l-115 150h35l110 -80l110 80h35z" />
    <glyph glyph-name="Ccircumflex" unicode="&#x108;" horiz-adv-x="650" 
d="M45 0zM361 715q35 0 64.5 -10.5t50.5 -22.5q25 -14 44 -32q8 13 17.5 23.5t17.5 17.5q10 8 20 14h25v-190h-40q-14 48 -39 87q-21 33 -56 60.5t-85 27.5q-30 0 -59 -16.5t-51.5 -56t-36 -105t-13.5 -162.5q0 -98 14 -163t39 -104.5t59 -56t73 -16.5q36 0 69 15.5t59 42
t41.5 60.5t15.5 72h25q0 -43 -17.5 -82t-48.5 -68.5t-73 -47t-91 -17.5q-79 0 -142 24t-107 70.5t-67.5 114.5t-23.5 156t23 156t65 114.5t100 70.5t128 24zM347 930l145 -165h-35l-110 70l-110 -70h-35z" />
    <glyph glyph-name="Dcaron" unicode="&#x10e;" horiz-adv-x="715" 
d="M50 0zM305 700q180 0 275 -92.5t95 -257.5t-95 -257.5t-275 -92.5h-255v15l60 15v640l-60 15v15h255zM275 675v-650h30q43 0 79 16.5t61.5 54.5t40 100t14.5 154t-14.5 154t-40 100t-61.5 54.5t-79 16.5h-30zM367 760h-60l-115 150h35l110 -80l110 80h35z" />
    <glyph glyph-name="Dcroat" unicode="&#x110;" horiz-adv-x="720" 
d="M115 370v300l-60 15v15h255q180 0 275 -92.5t95 -257.5t-95 -257.5t-275 -92.5h-255v15l60 15v310h-65v30h65zM280 675v-305h120v-30h-120v-315h30q43 0 79 16.5t61.5 54.5t40 100t14.5 154t-14.5 154t-40 100t-61.5 54.5t-79 16.5h-30z" />
    <glyph glyph-name="Ecaron" unicode="&#x11a;" horiz-adv-x="645" 
d="M50 0zM390 360q4 20 11 38.5t15 32.5q9 16 19 29h30v-225h-30q-10 13 -19 29q-8 14 -15 32t-11 39h-115v-310h235q0 39 10 68t22 49q14 23 33 38h30v-180h-555v15l60 15v640l-60 15v15h535v-180h-30q-19 15 -33 38q-12 20 -22 48.5t-10 68.5h-215v-315h115zM382 760h-60
l-115 150h35l110 -80l110 80h35z" />
    <glyph glyph-name="Emacron" unicode="&#x112;" horiz-adv-x="645" 
d="M50 0zM390 360q4 20 11 38.5t15 32.5q9 16 19 29h30v-225h-30q-10 13 -19 29q-8 14 -15 32t-11 39h-115v-310h235q0 39 10 68t22 49q14 23 33 38h30v-180h-555v15l60 15v640l-60 15v15h535v-180h-30q-19 15 -33 38q-12 20 -22 48.5t-10 68.5h-215v-315h115zM222 794v45
h260v-45h-260z" />
    <glyph glyph-name="Eogonek" unicode="&#x118;" horiz-adv-x="645" 
d="M50 685v15h535v-180h-30q-19 15 -33 38q-12 20 -22 48.5t-10 68.5h-215v-315h115q4 20 11 38.5t15 32.5q9 16 19 29h30v-225h-30q-10 13 -19 29q-8 14 -15 32t-11 39h-115v-310h235q0 39 10 68t22 49q14 23 33 38h30v-180h-160q-27 -13 -48 -31q-18 -16 -32.5 -39
t-14.5 -55q0 -40 40 -40q9 0 17.5 3t14.5 7q7 4 13 10v-30q-8 -4 -18 -8q-19 -7 -47 -7q-53 0 -79 22.5t-26 52.5q0 20 9 36.5t23 29t30.5 21.5t31.5 15t26 9t14 4h-349v15l60 15v640z" />
    <glyph glyph-name="Gcircumflex" unicode="&#x11c;" horiz-adv-x="700" 
d="M45 0zM365 20q23 0 39.5 12.5t27.5 27.5q13 18 23 40v230l-60 15v15h285v-15l-60 -15v-335h-15q-44 0 -70.5 12.5t-40.5 27.5q-17 18 -24 40q-13 -26 -33 -45q-17 -17 -45 -31t-67 -14q-56 0 -107 24t-89.5 70.5t-61 114.5t-22.5 156t23 156t65 114.5t100 70.5t128 24
q35 0 64.5 -10.5t50.5 -22.5q25 -14 44 -32q8 13 17.5 23.5t17.5 17.5q10 8 20 14h25v-190h-40q-14 48 -39 87q-21 33 -56 60.5t-85 27.5q-30 0 -59 -16.5t-51.5 -56t-36 -105t-13.5 -162.5q0 -98 12 -161.5t32.5 -101t46.5 -52.5t54 -15zM355 935l145 -165h-35l-110 70
l-110 -70h-35z" />
    <glyph glyph-name="Imacron" unicode="&#x12a;" horiz-adv-x="385" 
d="M50 0zM50 685v15h285v-15l-60 -15v-640l60 -15v-15h-285v15l60 15v640zM60 780v45h260v-45h-260z" />
    <glyph glyph-name="Iogonek" unicode="&#x12e;" horiz-adv-x="385" 
d="M50 685v15h285v-15l-60 -15v-640l60 -15v-15h-60q-27 -13 -48 -31q-18 -16 -32.5 -39t-14.5 -55q0 -40 40 -40q9 0 17.5 3t14.5 7q7 4 13 10v-30q-8 -4 -18 -8q-19 -7 -47 -7q-53 0 -79 22.5t-26 52.5q0 20 9 36.5t23 29t30.5 21.5t31.5 15t26 9t14 4h-179v15l60 15v640z
" />
    <glyph glyph-name="Itilde" unicode="&#x128;" horiz-adv-x="375" 
d="M46 0zM46 685v15h285v-15l-60 -15v-640l60 -15v-15h-285v15l60 15v640zM235 775q-23 0 -38.5 8t-29 17l-25.5 17t-27 8q-19 0 -32 -13t-13 -32h-20q0 60 24 87.5t66 27.5q22 0 38 -8t29.5 -17l25.5 -17t27 -8q19 0 32 13t13 32h20q0 -60 -24 -87.5t-66 -27.5z" />
    <glyph glyph-name="Jcircumflex" unicode="&#x134;" horiz-adv-x="550" 
d="M0 0zM165 5q26 0 48 10t38 33t25 60.5t9 91.5v470l-60 15v15h285v-15l-60 -15v-470q0 -101 -63 -158t-202 -57q-49 0 -84 9.5t-57.5 25t-33 35t-10.5 40.5q0 34 20.5 54.5t54.5 20.5q8 0 14.5 -1l12.5 -2t13 -2v-150q6 -3 14 -5q15 -5 36 -5zM362 925l145 -165h-35
l-110 70l-110 -70h-35z" />
    <glyph glyph-name="Lacute" unicode="&#x139;" horiz-adv-x="610" 
d="M50 0zM335 700v-15l-60 -15v-645h215q0 39 10 68t22 49q14 23 33 38h30v-180h-535v15l60 15v640l-60 15v15h285zM330 900l-135 -150h-35l40 150h130z" />
    <glyph glyph-name="Lcaron" unicode="&#x13d;" horiz-adv-x="610" 
d="M50 0zM335 700v-15l-60 -15v-645h215q0 39 10 68t22 49q14 23 33 38h30v-180h-535v15l60 15v640l-60 15v15h285zM392 469q20 8 37 22q14 12 28 32.5t20 50.5q-5 -4 -11 -8q-12 -7 -29 -7q-30 0 -50 20t-20 50t20 50t50 20q34 0 54.5 -21.5t20.5 -63.5q0 -49 -17.5 -80.5
t-37.5 -50.5q-25 -22 -55 -34z" />
    <glyph glyph-name="Nacute" unicode="&#x143;" horiz-adv-x="740" 
d="M30 0zM605 655l-80 30v15h190v-15l-80 -30v-670h-30l-465 545v-485l80 -30v-15h-190v15l80 30v620l-70 20v15h105q30 0 52 -6.5t38.5 -17t28.5 -23t21 -23.5l320 -375v400zM507 890l-135 -150h-35l40 150h130z" />
    <glyph glyph-name="Ncaron" unicode="&#x147;" horiz-adv-x="740" 
d="M30 0zM605 655l-80 30v15h190v-15l-80 -30v-670h-30l-465 545v-485l80 -30v-15h-190v15l80 30v620l-70 20v15h105q30 0 52 -6.5t38.5 -17t28.5 -23t21 -23.5l320 -375v400zM412 740h-60l-115 150h35l110 -80l110 80h35z" />
    <glyph glyph-name="Omacron" unicode="&#x14c;" horiz-adv-x="740" 
d="M45 0zM520 350q0 99 -13.5 165.5t-35 106.5t-48.5 56.5t-53 16.5t-53 -16.5t-48.5 -56.5t-35 -106.5t-13.5 -165.5t13.5 -165.5t35 -106.5t48.5 -56.5t53 -16.5t53 16.5t48.5 56.5t35 106.5t13.5 165.5zM695 350q0 -88 -23.5 -156t-66 -114.5t-102.5 -70.5t-133 -24
t-133 24t-102.5 70.5t-66 114.5t-23.5 156t23.5 156t66 114.5t102.5 70.5t133 24t133 -24t102.5 -70.5t66 -114.5t23.5 -156zM240 795v45h260v-45h-260z" />
    <glyph glyph-name="Racute" unicode="&#x154;" horiz-adv-x="700" 
d="M50 0zM400 320q34 -1 65 -11q26 -8 53 -26.5t42 -52.5l90 -200l50 -15v-15h-140q-45 0 -74 23.5t-46 61.5l-100 225h-65v-280l70 -15v-15h-295v15l60 15v640l-60 15v15h265q90 0 151 -14.5t98.5 -40t54 -61.5t16.5 -79q0 -34 -10 -59.5t-26.5 -45t-38 -32.5t-43.5 -21
q-52 -20 -117 -22v-5zM315 335q68 0 109 43.5t41 126.5t-41 126.5t-109 43.5h-40v-340h40zM477 900l-135 -150h-35l40 150h130z" />
    <glyph glyph-name="Rcaron" unicode="&#x158;" horiz-adv-x="700" 
d="M50 0zM400 320q34 -1 65 -11q26 -8 53 -26.5t42 -52.5l90 -200l50 -15v-15h-140q-45 0 -74 23.5t-46 61.5l-100 225h-65v-280l70 -15v-15h-295v15l60 15v640l-60 15v15h265q90 0 151 -14.5t98.5 -40t54 -61.5t16.5 -79q0 -34 -10 -59.5t-26.5 -45t-38 -32.5t-43.5 -21
q-52 -20 -117 -22v-5zM315 335q68 0 109 43.5t41 126.5t-41 126.5t-109 43.5h-40v-340h40zM382 760h-60l-115 150h35l110 -80l110 80h35z" />
    <glyph glyph-name="Sacute" unicode="&#x15a;" horiz-adv-x="595" 
d="M35 0zM275 10q57 0 91 34t34 91q0 39 -26.5 67.5t-65.5 53.5t-85.5 50t-85.5 57t-65.5 74.5t-26.5 102.5q0 36 15 67.5t45.5 55.5t76.5 38t108 14q35 0 65 -10.5t51 -22.5q25 -14 44 -32q8 13 17.5 23.5t17.5 17.5q10 8 20 14h25v-190h-40q-14 48 -39 87q-21 33 -56 60.5
t-85 27.5q-19 0 -36 -8t-30 -22.5t-21 -35t-8 -44.5q0 -43 26.5 -73.5t65.5 -56.5t85.5 -51t85.5 -55.5t65.5 -69.5t26.5 -94q0 -39 -17 -74.5t-51 -62.5t-86 -42.5t-121 -15.5q-44 0 -77 10t-56 22q-27 14 -47 33q-8 -14 -17.5 -24t-17.5 -17q-10 -8 -20 -14h-25v190h40
q15 -49 42 -88q12 -17 27 -32.5t34.5 -27.5t43.5 -19.5t53 -7.5zM432 900l-135 -150h-35l40 150h130z" />
    <glyph glyph-name="Scedilla" unicode="&#x15e;" horiz-adv-x="595" 
d="M275 10q57 0 91 34t34 91q0 39 -26 67.5t-65 53.5t-84 50t-84 57t-65 74.5t-26 102.5q0 36 15 67.5t45.5 55.5t76.5 38t108 14q35 0 65 -10.5t51 -22.5q25 -14 44 -32q8 13 17.5 23.5t17.5 17.5q10 8 20 14h25v-190h-40q-14 48 -39 87q-21 33 -56 60.5t-85 27.5
q-19 0 -36 -8t-30 -22.5t-21 -35t-8 -44.5q0 -43 26 -73.5t65 -56.5t84 -51t84 -55.5t65 -69.5t26 -94q0 -38 -16 -72.5t-48 -61t-80.5 -43t-112.5 -18.5v-35q45 0 70 -22.5t25 -52.5t-26 -52.5t-79 -22.5q-11 0 -21 0.5t-18 1.5q-9 1 -17 3v30q4 -3 10 -5q10 -5 26 -5
q23 0 36.5 13.5t13.5 36.5t-14.5 36.5t-40.5 13.5v61q-40 2 -70 12.5t-51 21.5q-25 13 -42 30q-8 -14 -17.5 -24t-17.5 -17q-10 -8 -20 -14h-25v190h40q15 -49 42 -88q12 -17 27 -32.5t34.5 -27.5t43.5 -19.5t53 -7.5z" />
    <glyph glyph-name="Scircumflex" unicode="&#x15c;" horiz-adv-x="595" 
d="M35 0zM275 10q57 0 91 34t34 91q0 39 -26.5 67.5t-65.5 53.5t-85.5 50t-85.5 57t-65.5 74.5t-26.5 102.5q0 36 15 67.5t45.5 55.5t76.5 38t108 14q35 0 65 -10.5t51 -22.5q25 -14 44 -32q8 13 17.5 23.5t17.5 17.5q10 8 20 14h25v-190h-40q-14 48 -39 87q-21 33 -56 60.5
t-85 27.5q-19 0 -36 -8t-30 -22.5t-21 -35t-8 -44.5q0 -43 26.5 -73.5t65.5 -56.5t85.5 -51t85.5 -55.5t65.5 -69.5t26.5 -94q0 -39 -17 -74.5t-51 -62.5t-86 -42.5t-121 -15.5q-44 0 -77 10t-56 22q-27 14 -47 33q-8 -14 -17.5 -24t-17.5 -17q-10 -8 -20 -14h-25v190h40
q15 -49 42 -88q12 -17 27 -32.5t34.5 -27.5t43.5 -19.5t53 -7.5zM302 940l145 -165h-35l-110 70l-110 -70h-35z" />
    <glyph glyph-name="Tcaron" unicode="&#x164;" horiz-adv-x="635" 
d="M25 0zM175 0v15l60 15v645h-115q0 -40 -10.5 -68.5t-22.5 -48.5q-14 -23 -32 -38h-30v180h585v-180h-30q-19 15 -33 38q-12 20 -22 48.5t-10 68.5h-115v-645l60 -15v-15h-285zM347 760h-60l-115 150h35l110 -80l110 80h35z" />
    <glyph glyph-name="Umacron" unicode="&#x16a;" horiz-adv-x="710" 
d="M35 0zM595 655l-80 30v15h190v-15l-80 -30v-405q0 -62 -17.5 -111t-48.5 -83.5t-73 -52.5t-91 -18q-150 0 -225 70.5t-75 194.5v420l-60 15v15h285v-15l-60 -15v-420q0 -68 11 -113.5t31 -74t48.5 -40.5t64.5 -12q34 0 66 16.5t57.5 47.5t41 75.5t15.5 100.5v405z
M275 784v45h260v-45h-260z" />
    <glyph glyph-name="Uogonek" unicode="&#x172;" horiz-adv-x="710" 
d="M595 655l-80 30v15h190v-15l-80 -30v-405q0 -101 -44.5 -166.5t-115.5 -87.5q-9 -5 -23 -14.5t-28 -24.5t-24 -35.5t-10 -46.5q0 -40 40 -40q9 0 17.5 3t14.5 7q7 4 13 10v-30q-8 -4 -18 -8q-19 -7 -47 -7q-53 0 -79 22.5t-26 52.5q0 19 8.5 35t21.5 28.5t28.5 21.5
t30.5 15q-145 3 -217 73t-72 192v420l-60 15v15h285v-15l-60 -15v-420q0 -68 11 -113.5t31 -74t48.5 -40.5t64.5 -12q34 0 66 16.5t57.5 47.5t41 75.5t15.5 100.5v405z" />
    <glyph glyph-name="Uring" unicode="&#x16e;" horiz-adv-x="710" 
d="M35 0zM595 655l-80 30v15h190v-15l-80 -30v-405q0 -62 -17.5 -111t-48.5 -83.5t-73 -52.5t-91 -18q-150 0 -225 70.5t-75 194.5v420l-60 15v15h285v-15l-60 -15v-420q0 -68 11 -113.5t31 -74t48.5 -40.5t64.5 -12q34 0 66 16.5t57.5 47.5t41 75.5t15.5 100.5v405z
M520 830q0 -21 -8 -39t-22 -31.5t-33.5 -21.5t-41.5 -8q-23 0 -42 8t-33 21.5t-22 31.5t-8 39t8 39t22 31.5t33 21.5t42 8q22 0 41.5 -8t33.5 -21.5t22 -31.5t8 -39zM470 830q0 30 -16 47.5t-39 17.5t-39 -17.5t-16 -47.5t16 -47.5t39 -17.5t39 17.5t16 47.5z" />
    <glyph glyph-name="Utilde" unicode="&#x168;" horiz-adv-x="710" 
d="M35 0zM595 655l-80 30v15h190v-15l-80 -30v-405q0 -62 -17.5 -111t-48.5 -83.5t-73 -52.5t-91 -18q-150 0 -225 70.5t-75 194.5v420l-60 15v15h285v-15l-60 -15v-420q0 -68 11 -113.5t31 -74t48.5 -40.5t64.5 -12q34 0 66 16.5t57.5 47.5t41 75.5t15.5 100.5v405z
M452 765q-23 0 -38.5 8t-29 17l-25.5 17t-27 8q-19 0 -32 -13t-13 -32h-20q0 60 24 87.5t66 27.5q22 0 38 -8t29.5 -17l25.5 -17t27 -8q19 0 32 13t13 32h20q0 -60 -24 -87.5t-66 -27.5z" />
    <glyph glyph-name="Wacute" unicode="&#x1e82;" horiz-adv-x="985" 
d="M0 0zM35 675l-55 10v15h120q57 0 89.5 -25.5t45.5 -59.5l151 -385l88 258l-74 187l-55 10v15h120q57 0 89 -25.5t46 -59.5l151 -385l144 425l-75 30v15h185v-15l-80 -30l-225 -665h-30l-180 457l-155 -457h-30zM632 900l-135 -150h-35l40 150h130z" />
    <glyph glyph-name="Wcircumflex" unicode="&#x174;" horiz-adv-x="985" 
d="M0 0zM35 675l-55 10v15h120q57 0 89.5 -25.5t45.5 -59.5l151 -385l88 258l-74 187l-55 10v15h120q57 0 89 -25.5t46 -59.5l151 -385l144 425l-75 30v15h185v-15l-80 -30l-225 -665h-30l-180 457l-155 -457h-30zM497 935l145 -165h-35l-110 70l-110 -70h-35z" />
    <glyph glyph-name="Wdieresis" unicode="&#x1e84;" horiz-adv-x="985" 
d="M0 0zM35 675l-55 10v15h120q57 0 89.5 -25.5t45.5 -59.5l151 -385l88 258l-74 187l-55 10v15h120q57 0 89 -25.5t46 -59.5l151 -385l144 425l-75 30v15h185v-15l-80 -30l-225 -665h-30l-180 457l-155 -457h-30zM335 840q0 30 20 50t50 20t50 -20t20 -50t-20 -50t-50 -20
t-50 20t-20 50zM520 840q0 30 20 50t50 20t50 -20t20 -50t-20 -50t-50 -20t-50 20t-20 50z" />
    <glyph glyph-name="Wgrave" unicode="&#x1e80;" horiz-adv-x="985" 
d="M0 0zM35 675l-55 10v15h120q57 0 89.5 -25.5t45.5 -59.5l151 -385l88 258l-74 187l-55 10v15h120q57 0 89 -25.5t46 -59.5l151 -385l144 425l-75 30v15h185v-15l-80 -30l-225 -665h-30l-180 457l-155 -457h-30zM462 900l40 -150h-35l-135 150h130z" />
    <glyph glyph-name="Ycircumflex" unicode="&#x176;" horiz-adv-x="665" 
d="M0 0zM50 670l-50 15v15h125q28 0 49 -6.5t37 -17.5t28 -26.5t21 -34.5l148 -295l152 335l-75 30v15h190v-15l-80 -30l-175 -385v-240l60 -15v-15h-285v15l60 15v230zM352 915l145 -165h-35l-110 70l-110 -70h-35z" />
    <glyph glyph-name="Ygrave" unicode="&#x1ef2;" horiz-adv-x="665" 
d="M0 0zM50 670l-50 15v15h125q28 0 49 -6.5t37 -17.5t28 -26.5t21 -34.5l148 -295l152 335l-75 30v15h190v-15l-80 -30l-175 -385v-240l60 -15v-15h-285v15l60 15v230zM347 900l40 -150h-35l-135 150h130z" />
    <glyph glyph-name="Zacute" unicode="&#x179;" horiz-adv-x="635" 
d="M40 0zM495 25q0 39 10 68t22 49q14 23 33 38h30v-180h-550v25l371 650h-261q0 -40 -10.5 -68.5t-22.5 -48.5q-14 -23 -32 -38h-30v180h540v-25l-370 -650h270zM447 900l-135 -150h-35l40 150h130z" />
    <glyph glyph-name="Hcircumflex" unicode="&#x124;" horiz-adv-x="765" 
d="M50 0zM50 685v15h285v-15l-60 -15v-310h215v310l-60 15v15h285v-15l-60 -15v-640l60 -15v-15h-285v15l60 15v305h-215v-305l60 -15v-15h-285v15l60 15v640zM382 930l145 -165h-35l-110 70l-110 -70h-35z" />
    <glyph glyph-name="dotaccent" unicode="&#x2d9;" horiz-adv-x="180" 
d="M20 630q0 30 20 50t50 20t50 -20t20 -50t-20 -50t-50 -20t-50 20t-20 50z" />
    <glyph glyph-name="hungarumlaut" unicode="&#x2dd;" horiz-adv-x="315" 
d="M165 700l-110 -150h-35l45 150h100zM295 700l-110 -150h-35l45 150h100z" />
    <glyph glyph-name="Uhungarumlaut" unicode="&#x170;" horiz-adv-x="710" 
d="M35 0zM595 655l-80 30v15h190v-15l-80 -30v-405q0 -62 -17.5 -111t-48.5 -83.5t-73 -52.5t-91 -18q-150 0 -225 70.5t-75 194.5v420l-60 15v15h285v-15l-60 -15v-420q0 -68 11 -113.5t31 -74t48.5 -40.5t64.5 -12q34 0 66 16.5t57.5 47.5t41 75.5t15.5 100.5v405z
M455 905l-110 -150h-35l45 150h100zM585 905l-110 -150h-35l45 150h100z" />
    <glyph glyph-name="Ohungarumlaut" unicode="&#x150;" horiz-adv-x="740" 
d="M45 0zM520 350q0 99 -13.5 165.5t-35 106.5t-48.5 56.5t-53 16.5t-53 -16.5t-48.5 -56.5t-35 -106.5t-13.5 -165.5t13.5 -165.5t35 -106.5t48.5 -56.5t53 -16.5t53 16.5t48.5 56.5t35 106.5t13.5 165.5zM695 350q0 -88 -23.5 -156t-66 -114.5t-102.5 -70.5t-133 -24
t-133 24t-102.5 70.5t-66 114.5t-23.5 156t23.5 156t66 114.5t102.5 70.5t133 24t133 -24t102.5 -70.5t66 -114.5t23.5 -156zM427 905l-110 -150h-35l45 150h100zM557 905l-110 -150h-35l45 150h100z" />
    <glyph glyph-name="Oslash" unicode="&#xd8;" horiz-adv-x="740" 
d="M695 350q0 -88 -23.5 -156t-66 -114.5t-102.5 -70.5t-133 -24q-125 0 -207 71l-43 -56h-35l57 75q-44 47 -70.5 115.5t-26.5 159.5q0 88 23.5 156t66 114.5t102.5 70.5t133 24q124 0 207 -71l43 56h35l-58 -76q45 -47 71.5 -115t26.5 -159zM520 350q0 47 -3.5 86t-8.5 71
l-269 -351q10 -42 25 -71t32.5 -47t36.5 -25.5t37 -7.5q26 0 53 16.5t48.5 56.5t35 106.5t13.5 165.5zM220 350q0 -94 12 -158l268 351q-11 42 -25.5 71t-32 47t-36 26t-36.5 8q-26 0 -53 -16.5t-48.5 -56.5t-35 -106.5t-13.5 -165.5z" />
    <glyph glyph-name="Cdotaccent" unicode="&#x10a;" horiz-adv-x="650" 
d="M45 0zM361 715q35 0 64.5 -10.5t50.5 -22.5q25 -14 44 -32q8 13 17.5 23.5t17.5 17.5q10 8 20 14h25v-190h-40q-14 48 -39 87q-21 33 -56 60.5t-85 27.5q-30 0 -59 -16.5t-51.5 -56t-36 -105t-13.5 -162.5q0 -98 14 -163t39 -104.5t59 -56t73 -16.5q36 0 69 15.5t59 42
t41.5 60.5t15.5 72h25q0 -43 -17.5 -82t-48.5 -68.5t-73 -47t-91 -17.5q-79 0 -142 24t-107 70.5t-67.5 114.5t-23.5 156t23 156t65 114.5t100 70.5t128 24zM287 845q0 30 20 50t50 20t50 -20t20 -50t-20 -50t-50 -20t-50 20t-20 50z" />
    <glyph glyph-name="Idotaccent" unicode="&#x130;" horiz-adv-x="385" 
d="M50 0zM50 685v15h285v-15l-60 -15v-640l60 -15v-15h-285v15l60 15v640zM122 840q0 30 20 50t50 20t50 -20t20 -50t-20 -50t-50 -20t-50 20t-20 50z" />
    <glyph glyph-name="Edotaccent" unicode="&#x116;" horiz-adv-x="645" 
d="M50 0zM390 360q4 20 11 38.5t15 32.5q9 16 19 29h30v-225h-30q-10 13 -19 29q-8 14 -15 32t-11 39h-115v-310h235q0 39 10 68t22 49q14 23 33 38h30v-180h-555v15l60 15v640l-60 15v15h535v-180h-30q-19 15 -33 38q-12 20 -22 48.5t-10 68.5h-215v-315h115zM282 840
q0 30 20 50t50 20t50 -20t20 -50t-20 -50t-50 -20t-50 20t-20 50z" />
    <glyph glyph-name="Gdotaccent" unicode="&#x120;" horiz-adv-x="700" 
d="M45 0zM365 20q23 0 39.5 12.5t27.5 27.5q13 18 23 40v230l-60 15v15h285v-15l-60 -15v-335h-15q-44 0 -70.5 12.5t-40.5 27.5q-17 18 -24 40q-13 -26 -33 -45q-17 -17 -45 -31t-67 -14q-56 0 -107 24t-89.5 70.5t-61 114.5t-22.5 156t23 156t65 114.5t100 70.5t128 24
q35 0 64.5 -10.5t50.5 -22.5q25 -14 44 -32q8 13 17.5 23.5t17.5 17.5q10 8 20 14h25v-190h-40q-14 48 -39 87q-21 33 -56 60.5t-85 27.5q-30 0 -59 -16.5t-51.5 -56t-36 -105t-13.5 -162.5q0 -98 12 -161.5t32.5 -101t46.5 -52.5t54 -15zM285 845q0 30 20 50t50 20t50 -20
t20 -50t-20 -50t-50 -20t-50 20t-20 50z" />
    <glyph glyph-name="Zdotaccent" unicode="&#x17b;" horiz-adv-x="635" 
d="M40 0zM495 25q0 39 10 68t22 49q14 23 33 38h30v-180h-550v25l371 650h-261q0 -40 -10.5 -68.5t-22.5 -48.5q-14 -23 -32 -38h-30v180h540v-25l-370 -650h270zM252 840q0 30 20 50t50 20t50 -20t20 -50t-20 -50t-50 -20t-50 20t-20 50z" />
    <glyph glyph-name="commaaccent" horiz-adv-x="185" 
d="M45 -230q20 8 37 22q14 12 28 32.5t20 50.5q-5 -4 -11 -8q-12 -7 -29 -7q-30 0 -50 20t-20 50t20 50t50 20q34 0 54.5 -21.5t20.5 -63.5q0 -49 -17.5 -80.5t-37.5 -50.5q-25 -22 -55 -34z" />
    <glyph glyph-name="breve" unicode="&#x2d8;" horiz-adv-x="330" 
d="M165 570q26 0 40.5 5.5t14.5 4.5v110l12 2q5 1 11 2t12 1q26 0 43 -17t17 -43q0 -34 -34 -59.5t-116 -25.5q-41 0 -69.5 7t-46.5 18.5t-26 27t-8 32.5q0 26 17 43t43 17q5 0 11.5 -1t11.5 -2l12 -2v-110q0 1 14.5 -4.5t40.5 -5.5z" />
    <glyph glyph-name="Abreve" unicode="&#x102;" horiz-adv-x="680" 
d="M0 0zM165 15v-15h-185v15l80 30l275 665h30l285 -680l50 -15v-15h-120q-56 0 -88 25.5t-46 59.5l-51 120h-239l-66 -160zM166 230h219l-110 263zM350 775q26 0 40.5 5.5t14.5 4.5v110l12 2q5 1 11 2t12 1q26 0 43 -17t17 -43q0 -34 -34 -59.5t-116 -25.5q-41 0 -69.5 7
t-46.5 18.5t-26 27t-8 32.5q0 26 17 43t43 17q5 0 11.5 -1t11.5 -2l12 -2v-110q0 1 14.5 -4.5t40.5 -5.5z" />
    <glyph glyph-name="Ebreve" unicode="&#x114;" horiz-adv-x="645" 
d="M50 0zM390 360q4 20 11 38.5t15 32.5q9 16 19 29h30v-225h-30q-10 13 -19 29q-8 14 -15 32t-11 39h-115v-310h235q0 39 10 68t22 49q14 23 33 38h30v-180h-555v15l60 15v640l-60 15v15h535v-180h-30q-19 15 -33 38q-12 20 -22 48.5t-10 68.5h-215v-315h115zM342 790
q26 0 40.5 5.5t14.5 4.5v110l12 2q5 1 11 2t12 1q26 0 43 -17t17 -43q0 -34 -34 -59.5t-116 -25.5q-41 0 -69.5 7t-46.5 18.5t-26 27t-8 32.5q0 26 17 43t43 17q5 0 11.5 -1t11.5 -2l12 -2v-110q0 1 14.5 -4.5t40.5 -5.5z" />
    <glyph glyph-name="Gbreve" unicode="&#x11e;" horiz-adv-x="700" 
d="M45 0zM365 20q23 0 39.5 12.5t27.5 27.5q13 18 23 40v230l-60 15v15h285v-15l-60 -15v-335h-15q-44 0 -70.5 12.5t-40.5 27.5q-17 18 -24 40q-13 -26 -33 -45q-17 -17 -45 -31t-67 -14q-56 0 -107 24t-89.5 70.5t-61 114.5t-22.5 156t23 156t65 114.5t100 70.5t128 24
q35 0 64.5 -10.5t50.5 -22.5q25 -14 44 -32q8 13 17.5 23.5t17.5 17.5q10 8 20 14h25v-190h-40q-14 48 -39 87q-21 33 -56 60.5t-85 27.5q-30 0 -59 -16.5t-51.5 -56t-36 -105t-13.5 -162.5q0 -98 12 -161.5t32.5 -101t46.5 -52.5t54 -15zM350 790q26 0 40.5 5.5t14.5 4.5
v110l12 2q5 1 11 2t12 1q26 0 43 -17t17 -43q0 -34 -34 -59.5t-116 -25.5q-41 0 -69.5 7t-46.5 18.5t-26 27t-8 32.5q0 26 17 43t43 17q5 0 11.5 -1t11.5 -2l12 -2v-110q0 1 14.5 -4.5t40.5 -5.5z" />
    <glyph glyph-name="Gcommaaccent" unicode="&#x122;" horiz-adv-x="700" 
d="M45 0zM365 20q23 0 39.5 12.5t27.5 27.5q13 18 23 40v230l-60 15v15h285v-15l-60 -15v-335h-15q-44 0 -70.5 12.5t-40.5 27.5q-17 18 -24 40q-13 -26 -33 -45q-17 -17 -45 -31t-67 -14q-56 0 -107 24t-89.5 70.5t-61 114.5t-22.5 156t23 156t65 114.5t100 70.5t128 24
q35 0 64.5 -10.5t50.5 -22.5q25 -14 44 -32q8 13 17.5 23.5t17.5 17.5q10 8 20 14h25v-190h-40q-14 48 -39 87q-21 33 -56 60.5t-85 27.5q-30 0 -59 -16.5t-51.5 -56t-36 -105t-13.5 -162.5q0 -98 12 -161.5t32.5 -101t46.5 -52.5t54 -15zM307 -289q20 8 37 22
q14 12 28 32.5t20 50.5q-5 -4 -11 -8q-12 -7 -29 -7q-30 0 -50 20t-20 50t20 50t50 20q34 0 54.5 -21.5t20.5 -63.5q0 -49 -17.5 -80.5t-37.5 -50.5q-25 -22 -55 -34z" />
    <glyph glyph-name="Ibreve" unicode="&#x12c;" horiz-adv-x="385" 
d="M45 0zM50 685v15h285v-15l-60 -15v-640l60 -15v-15h-285v15l60 15v640zM195 785q26 0 40.5 5.5t14.5 4.5v110l12 2q5 1 11 2t12 1q26 0 43 -17t17 -43q0 -34 -34 -59.5t-116 -25.5q-41 0 -69.5 7t-46.5 18.5t-26 27t-8 32.5q0 26 17 43t43 17q5 0 11.5 -1t11.5 -2l12 -2
v-110q0 1 14.5 -4.5t40.5 -5.5z" />
    <glyph glyph-name="Kcommaaccent" unicode="&#x136;" horiz-adv-x="690" 
d="M50 0zM700 15v-15h-140q-49 0 -80.5 25.5t-54.5 59.5l-150 230v-285l60 -15v-15h-285v15l60 15v640l-60 15v15h285v-15l-60 -15v-314l245 299l-75 30v15h190v-15l-80 -30l-175 -215l270 -410zM330 -264q20 8 37 22q14 12 28 32.5t20 50.5q-5 -4 -11 -8q-12 -7 -29 -7
q-30 0 -50 20t-20 50t20 50t50 20q34 0 54.5 -21.5t20.5 -63.5q0 -49 -17.5 -80.5t-37.5 -50.5q-25 -22 -55 -34z" />
    <glyph glyph-name="Lcommaaccent" unicode="&#x13b;" horiz-adv-x="610" 
d="M50 0zM335 700v-15l-60 -15v-645h215q0 39 10 68t22 49q14 23 33 38h30v-180h-535v15l60 15v640l-60 15v15h285zM307 -284q20 8 37 22q14 12 28 32.5t20 50.5q-5 -4 -11 -8q-12 -7 -29 -7q-30 0 -50 20t-20 50t20 50t50 20q34 0 54.5 -21.5t20.5 -63.5q0 -49 -17.5 -80.5
t-37.5 -50.5q-25 -22 -55 -34z" />
    <glyph glyph-name="Ldot" unicode="&#x13f;" horiz-adv-x="610" 
d="M50 0zM335 700v-15l-60 -15v-645h215q0 39 10 68t22 49q14 23 33 38h30v-180h-535v15l60 15v640l-60 15v15h285zM345 351q0 30 20 50t50 20t50 -20t20 -50t-20 -50t-50 -20t-50 20t-20 50z" />
    <glyph glyph-name="Ncommaaccent" unicode="&#x145;" horiz-adv-x="740" 
d="M30 0zM605 655l-80 30v15h190v-15l-80 -30v-670h-30l-465 545v-485l80 -30v-15h-190v15l80 30v620l-70 20v15h105q30 0 52 -6.5t38.5 -17t28.5 -23t21 -23.5l320 -375v400zM325 -225q20 8 37 22q14 12 28 32.5t20 50.5q-5 -4 -11 -8q-12 -7 -29 -7q-30 0 -50 20t-20 50
t20 50t50 20q34 0 54.5 -21.5t20.5 -63.5q0 -49 -17.5 -80.5t-37.5 -50.5q-25 -22 -55 -34z" />
    <glyph glyph-name="Obreve" unicode="&#x14e;" horiz-adv-x="740" 
d="M45 0zM520 350q0 99 -13.5 165.5t-35 106.5t-48.5 56.5t-53 16.5t-53 -16.5t-48.5 -56.5t-35 -106.5t-13.5 -165.5t13.5 -165.5t35 -106.5t48.5 -56.5t53 -16.5t53 16.5t48.5 56.5t35 106.5t13.5 165.5zM695 350q0 -88 -23.5 -156t-66 -114.5t-102.5 -70.5t-133 -24
t-133 24t-102.5 70.5t-66 114.5t-23.5 156t23.5 156t66 114.5t102.5 70.5t133 24t133 -24t102.5 -70.5t66 -114.5t23.5 -156zM370 785q26 0 40.5 5.5t14.5 4.5v110l12 2q5 1 11 2t12 1q26 0 43 -17t17 -43q0 -34 -34 -59.5t-116 -25.5q-41 0 -69.5 7t-46.5 18.5t-26 27
t-8 32.5q0 26 17 43t43 17q5 0 11.5 -1t11.5 -2l12 -2v-110q0 1 14.5 -4.5t40.5 -5.5z" />
    <glyph glyph-name="Oslashacute" unicode="&#x1fe;" horiz-adv-x="740" 
d="M695 350q0 -88 -23.5 -156t-66 -114.5t-102.5 -70.5t-133 -24q-125 0 -207 71l-43 -56h-35l57 75q-44 47 -70.5 115.5t-26.5 159.5q0 88 23.5 156t66 114.5t102.5 70.5t133 24q124 0 207 -71l43 56h35l-58 -76q45 -47 71.5 -115t26.5 -159zM520 350q0 47 -3.5 86t-8.5 71
l-269 -351q10 -42 25 -71t32.5 -47t36.5 -25.5t37 -7.5q26 0 53 16.5t48.5 56.5t35 106.5t13.5 165.5zM220 350q0 -94 12 -158l268 351q-11 42 -25.5 71t-32 47t-36 26t-36.5 8q-26 0 -53 -16.5t-48.5 -56.5t-35 -106.5t-13.5 -165.5zM505 900l-135 -150h-35l40 150h130z
" />
    <glyph glyph-name="Rcommaaccent" unicode="&#x156;" horiz-adv-x="700" 
d="M50 0zM400 320q34 -1 65 -11q26 -8 53 -26.5t42 -52.5l90 -200l50 -15v-15h-140q-45 0 -74 23.5t-46 61.5l-100 225h-65v-280l70 -15v-15h-295v15l60 15v640l-60 15v15h265q90 0 151 -14.5t98.5 -40t54 -61.5t16.5 -79q0 -34 -10 -59.5t-26.5 -45t-38 -32.5t-43.5 -21
q-52 -20 -117 -22v-5zM315 335q68 0 109 43.5t41 126.5t-41 126.5t-109 43.5h-40v-340h40zM338 -264q20 8 37 22q14 12 28 32.5t20 50.5q-5 -4 -11 -8q-12 -7 -29 -7q-30 0 -50 20t-20 50t20 50t50 20q34 0 54.5 -21.5t20.5 -63.5q0 -49 -17.5 -80.5t-37.5 -50.5
q-25 -22 -55 -34z" />
    <glyph glyph-name="Scommaaccent" unicode="&#x218;" horiz-adv-x="595" 
d="M35 0zM275 10q57 0 91 34t34 91q0 39 -26.5 67.5t-65.5 53.5t-85.5 50t-85.5 57t-65.5 74.5t-26.5 102.5q0 36 15 67.5t45.5 55.5t76.5 38t108 14q35 0 65 -10.5t51 -22.5q25 -14 44 -32q8 13 17.5 23.5t17.5 17.5q10 8 20 14h25v-190h-40q-14 48 -39 87q-21 33 -56 60.5
t-85 27.5q-19 0 -36 -8t-30 -22.5t-21 -35t-8 -44.5q0 -43 26.5 -73.5t65.5 -56.5t85.5 -51t85.5 -55.5t65.5 -69.5t26.5 -94q0 -39 -17 -74.5t-51 -62.5t-86 -42.5t-121 -15.5q-44 0 -77 10t-56 22q-27 14 -47 33q-8 -14 -17.5 -24t-17.5 -17q-10 -8 -20 -14h-25v190h40
q15 -49 42 -88q12 -17 27 -32.5t34.5 -27.5t43.5 -19.5t53 -7.5zM268 -284q20 8 37 22q14 12 28 32.5t20 50.5q-5 -4 -11 -8q-12 -7 -29 -7q-30 0 -50 20t-20 50t20 50t50 20q34 0 54.5 -21.5t20.5 -63.5q0 -49 -17.5 -80.5t-37.5 -50.5q-25 -22 -55 -34z" />
    <glyph glyph-name="Tcommaaccent" unicode="&#x162;" horiz-adv-x="635" 
d="M25 0zM175 0v15l60 15v645h-115q0 -40 -10.5 -68.5t-22.5 -48.5q-14 -23 -32 -38h-30v180h585v-180h-30q-19 15 -33 38q-12 20 -22 48.5t-10 68.5h-115v-645l60 -15v-15h-285zM270 -284q20 8 37 22q14 12 28 32.5t20 50.5q-5 -4 -11 -8q-12 -7 -29 -7q-30 0 -50 20
t-20 50t20 50t50 20q34 0 54.5 -21.5t20.5 -63.5q0 -49 -17.5 -80.5t-37.5 -50.5q-25 -22 -55 -34z" />
    <glyph glyph-name="Ubreve" unicode="&#x16c;" horiz-adv-x="710" 
d="M35 0zM595 655l-80 30v15h190v-15l-80 -30v-405q0 -62 -17.5 -111t-48.5 -83.5t-73 -52.5t-91 -18q-150 0 -225 70.5t-75 194.5v420l-60 15v15h285v-15l-60 -15v-420q0 -68 11 -113.5t31 -74t48.5 -40.5t64.5 -12q34 0 66 16.5t57.5 47.5t41 75.5t15.5 100.5v405z
M400 775q26 0 40.5 5.5t14.5 4.5v110l12 2q5 1 11 2t12 1q26 0 43 -17t17 -43q0 -34 -34 -59.5t-116 -25.5q-41 0 -69.5 7t-46.5 18.5t-26 27t-8 32.5q0 26 17 43t43 17q5 0 11.5 -1t11.5 -2l12 -2v-110q0 1 14.5 -4.5t40.5 -5.5z" />
    <glyph glyph-name="aacute" unicode="&#xe1;" horiz-adv-x="605" 
d="M50 0zM235 235q-6 -13 -10 -30q-4 -14 -7 -33t-3 -42q0 -60 18.5 -85t41.5 -25t39.5 12.5t27.5 27.5q13 18 23 40v145q-23 0 -46 -1.5t-42 -3.5q-22 -3 -42 -5zM275 515q60 0 106.5 -16t78.5 -44.5t48.5 -68t16.5 -86.5v-270l60 -15v-15h-90q-36 0 -58 11.5t-35 25.5
q-15 17 -22 38q-13 -26 -33 -45q-17 -17 -45 -31t-67 -14q-47 0 -81.5 10.5t-57.5 29t-34.5 43t-11.5 52.5q0 23 5 42.5t12 34.5q8 18 18 33q42 10 89 18q40 7 90 13.5t101 8.5v30q0 58 -7.5 96t-21.5 60t-34.5 30.5t-46.5 8.5q-11 0 -20 -1.5t-16 -3.5q-8 -3 -14 -5v-150
q-7 -2 -13 -3t-12.5 -1.5t-14.5 -0.5q-34 0 -54.5 20.5t-20.5 54.5q0 21 10.5 40.5t33 35t57.5 25t84 9.5zM425 710l-135 -150h-35l40 150h130z" />
    <glyph glyph-name="abreve" unicode="&#x103;" horiz-adv-x="605" 
d="M50 0zM235 235q-6 -13 -10 -30q-4 -14 -7 -33t-3 -42q0 -60 18.5 -85t41.5 -25t39.5 12.5t27.5 27.5q13 18 23 40v145q-23 0 -46 -1.5t-42 -3.5q-22 -3 -42 -5zM275 515q60 0 106.5 -16t78.5 -44.5t48.5 -68t16.5 -86.5v-270l60 -15v-15h-90q-36 0 -58 11.5t-35 25.5
q-15 17 -22 38q-13 -26 -33 -45q-17 -17 -45 -31t-67 -14q-47 0 -81.5 10.5t-57.5 29t-34.5 43t-11.5 52.5q0 23 5 42.5t12 34.5q8 18 18 33q42 10 89 18q40 7 90 13.5t101 8.5v30q0 58 -7.5 96t-21.5 60t-34.5 30.5t-46.5 8.5q-11 0 -20 -1.5t-16 -3.5q-8 -3 -14 -5v-150
q-7 -2 -13 -3t-12.5 -1.5t-14.5 -0.5q-34 0 -54.5 20.5t-20.5 54.5q0 21 10.5 40.5t33 35t57.5 25t84 9.5zM300 595q26 0 40.5 5.5t14.5 4.5v110l12 2q5 1 11 2t12 1q26 0 43 -17t17 -43q0 -34 -34 -59.5t-116 -25.5q-41 0 -69.5 7t-46.5 18.5t-26 27t-8 32.5q0 26 17 43
t43 17q5 0 11.5 -1t11.5 -2l12 -2v-110q0 1 14.5 -4.5t40.5 -5.5z" />
    <glyph glyph-name="acircumflex" unicode="&#xe2;" horiz-adv-x="605" 
d="M50 0zM235 235q-6 -13 -10 -30q-4 -14 -7 -33t-3 -42q0 -60 18.5 -85t41.5 -25t39.5 12.5t27.5 27.5q13 18 23 40v145q-23 0 -46 -1.5t-42 -3.5q-22 -3 -42 -5zM275 515q60 0 106.5 -16t78.5 -44.5t48.5 -68t16.5 -86.5v-270l60 -15v-15h-90q-36 0 -58 11.5t-35 25.5
q-15 17 -22 38q-13 -26 -33 -45q-17 -17 -45 -31t-67 -14q-47 0 -81.5 10.5t-57.5 29t-34.5 43t-11.5 52.5q0 23 5 42.5t12 34.5q8 18 18 33q42 10 89 18q40 7 90 13.5t101 8.5v30q0 58 -7.5 96t-21.5 60t-34.5 30.5t-46.5 8.5q-11 0 -20 -1.5t-16 -3.5q-8 -3 -14 -5v-150
q-7 -2 -13 -3t-12.5 -1.5t-14.5 -0.5q-34 0 -54.5 20.5t-20.5 54.5q0 21 10.5 40.5t33 35t57.5 25t84 9.5zM300 730l145 -165h-35l-110 70l-110 -70h-35z" />
    <glyph glyph-name="adieresis" unicode="&#xe4;" horiz-adv-x="605" 
d="M50 0zM235 235q-6 -13 -10 -30q-4 -14 -7 -33t-3 -42q0 -60 18.5 -85t41.5 -25t39.5 12.5t27.5 27.5q13 18 23 40v145q-23 0 -46 -1.5t-42 -3.5q-22 -3 -42 -5zM275 515q60 0 106.5 -16t78.5 -44.5t48.5 -68t16.5 -86.5v-270l60 -15v-15h-90q-36 0 -58 11.5t-35 25.5
q-15 17 -22 38q-13 -26 -33 -45q-17 -17 -45 -31t-67 -14q-47 0 -81.5 10.5t-57.5 29t-34.5 43t-11.5 52.5q0 23 5 42.5t12 34.5q8 18 18 33q42 10 89 18q40 7 90 13.5t101 8.5v30q0 58 -7.5 96t-21.5 60t-34.5 30.5t-46.5 8.5q-11 0 -20 -1.5t-16 -3.5q-8 -3 -14 -5v-150
q-7 -2 -13 -3t-12.5 -1.5t-14.5 -0.5q-34 0 -54.5 20.5t-20.5 54.5q0 21 10.5 40.5t33 35t57.5 25t84 9.5zM137 645q0 30 20 50t50 20t50 -20t20 -50t-20 -50t-50 -20t-50 20t-20 50zM322 645q0 30 20 50t50 20t50 -20t20 -50t-20 -50t-50 -20t-50 20t-20 50z" />
    <glyph glyph-name="agrave" unicode="&#xe0;" horiz-adv-x="605" 
d="M50 0zM235 235q-6 -13 -10 -30q-4 -14 -7 -33t-3 -42q0 -60 18.5 -85t41.5 -25t39.5 12.5t27.5 27.5q13 18 23 40v145q-23 0 -46 -1.5t-42 -3.5q-22 -3 -42 -5zM275 515q60 0 106.5 -16t78.5 -44.5t48.5 -68t16.5 -86.5v-270l60 -15v-15h-90q-36 0 -58 11.5t-35 25.5
q-15 17 -22 38q-13 -26 -33 -45q-17 -17 -45 -31t-67 -14q-47 0 -81.5 10.5t-57.5 29t-34.5 43t-11.5 52.5q0 23 5 42.5t12 34.5q8 18 18 33q42 10 89 18q40 7 90 13.5t101 8.5v30q0 58 -7.5 96t-21.5 60t-34.5 30.5t-46.5 8.5q-11 0 -20 -1.5t-16 -3.5q-8 -3 -14 -5v-150
q-7 -2 -13 -3t-12.5 -1.5t-14.5 -0.5q-34 0 -54.5 20.5t-20.5 54.5q0 21 10.5 40.5t33 35t57.5 25t84 9.5zM285 710l40 -150h-35l-135 150h130z" />
    <glyph glyph-name="amacron" unicode="&#x101;" horiz-adv-x="605" 
d="M50 0zM235 235q-6 -13 -10 -30q-4 -14 -7 -33t-3 -42q0 -60 18.5 -85t41.5 -25t39.5 12.5t27.5 27.5q13 18 23 40v145q-23 0 -46 -1.5t-42 -3.5q-22 -3 -42 -5zM275 515q60 0 106.5 -16t78.5 -44.5t48.5 -68t16.5 -86.5v-270l60 -15v-15h-90q-36 0 -58 11.5t-35 25.5
q-15 17 -22 38q-13 -26 -33 -45q-17 -17 -45 -31t-67 -14q-47 0 -81.5 10.5t-57.5 29t-34.5 43t-11.5 52.5q0 23 5 42.5t12 34.5q8 18 18 33q42 10 89 18q40 7 90 13.5t101 8.5v30q0 58 -7.5 96t-21.5 60t-34.5 30.5t-46.5 8.5q-11 0 -20 -1.5t-16 -3.5q-8 -3 -14 -5v-150
q-7 -2 -13 -3t-12.5 -1.5t-14.5 -0.5q-34 0 -54.5 20.5t-20.5 54.5q0 21 10.5 40.5t33 35t57.5 25t84 9.5zM170 601v45h260v-45h-260z" />
    <glyph glyph-name="aogonek" unicode="&#x105;" horiz-adv-x="605" 
d="M275 515q60 0 106.5 -16t78.5 -44.5t48.5 -68t16.5 -86.5v-270l60 -15v-15q-27 -13 -48 -31q-18 -16 -32.5 -39t-14.5 -55q0 -40 40 -40q9 0 17.5 3t14.5 7q7 4 13 10v-30q-8 -4 -18 -8q-19 -7 -47 -7q-53 0 -79 22.5t-26 52.5q0 20 9 36.5t23 29t30.5 21.5t31.5 15t26 9
t14 4h-44q-34 0 -56 10.5t-35 24t-18 25t-6 14.5q0 -1 -8.5 -15t-26 -30.5t-44.5 -30t-66 -13.5q-47 0 -81.5 10.5t-57.5 29t-34.5 43t-11.5 52.5q0 23 5 42.5t12 34.5q8 18 18 33q42 10 89 18q40 7 90 13.5t101 8.5v30q0 58 -7.5 96t-21.5 60t-34.5 30.5t-46.5 8.5
q-11 0 -20 -1.5t-16 -3.5q-8 -3 -14 -5v-150q-7 -2 -13 -3t-12.5 -1.5t-14.5 -0.5q-34 0 -54.5 20.5t-20.5 54.5q0 21 10.5 40.5t33 35t57.5 25t84 9.5zM235 235q-6 -13 -10 -30q-4 -14 -7 -33t-3 -42q0 -60 18.5 -85t41.5 -25t39.5 12.5t27.5 27.5q13 18 23 40v145
q-23 0 -46 -1.5t-42 -3.5q-22 -3 -42 -5z" />
    <glyph glyph-name="aring" unicode="&#xe5;" horiz-adv-x="605" 
d="M50 0zM235 235q-6 -13 -10 -30q-4 -14 -7 -33t-3 -42q0 -60 18.5 -85t41.5 -25t39.5 12.5t27.5 27.5q13 18 23 40v145q-23 0 -46 -1.5t-42 -3.5q-22 -3 -42 -5zM275 515q60 0 106.5 -16t78.5 -44.5t48.5 -68t16.5 -86.5v-270l60 -15v-15h-90q-36 0 -58 11.5t-35 25.5
q-15 17 -22 38q-13 -26 -33 -45q-17 -17 -45 -31t-67 -14q-47 0 -81.5 10.5t-57.5 29t-34.5 43t-11.5 52.5q0 23 5 42.5t12 34.5q8 18 18 33q42 10 89 18q40 7 90 13.5t101 8.5v30q0 58 -7.5 96t-21.5 60t-34.5 30.5t-46.5 8.5q-11 0 -20 -1.5t-16 -3.5q-8 -3 -14 -5v-150
q-7 -2 -13 -3t-12.5 -1.5t-14.5 -0.5q-34 0 -54.5 20.5t-20.5 54.5q0 21 10.5 40.5t33 35t57.5 25t84 9.5zM405 665q0 -21 -8 -39t-22 -31.5t-33.5 -21.5t-41.5 -8q-23 0 -42 8t-33 21.5t-22 31.5t-8 39t8 39t22 31.5t33 21.5t42 8q22 0 41.5 -8t33.5 -21.5t22 -31.5t8 -39z
M355 665q0 30 -16 47.5t-39 17.5t-39 -17.5t-16 -47.5t16 -47.5t39 -17.5t39 17.5t16 47.5z" />
    <glyph glyph-name="atilde" unicode="&#xe3;" horiz-adv-x="605" 
d="M50 0zM235 235q-6 -13 -10 -30q-4 -14 -7 -33t-3 -42q0 -60 18.5 -85t41.5 -25t39.5 12.5t27.5 27.5q13 18 23 40v145q-23 0 -46 -1.5t-42 -3.5q-22 -3 -42 -5zM275 515q60 0 106.5 -16t78.5 -44.5t48.5 -68t16.5 -86.5v-270l60 -15v-15h-90q-36 0 -58 11.5t-35 25.5
q-15 17 -22 38q-13 -26 -33 -45q-17 -17 -45 -31t-67 -14q-47 0 -81.5 10.5t-57.5 29t-34.5 43t-11.5 52.5q0 23 5 42.5t12 34.5q8 18 18 33q42 10 89 18q40 7 90 13.5t101 8.5v30q0 58 -7.5 96t-21.5 60t-34.5 30.5t-46.5 8.5q-11 0 -20 -1.5t-16 -3.5q-8 -3 -14 -5v-150
q-7 -2 -13 -3t-12.5 -1.5t-14.5 -0.5q-34 0 -54.5 20.5t-20.5 54.5q0 21 10.5 40.5t33 35t57.5 25t84 9.5zM347 585q-23 0 -38.5 8t-29 17l-25.5 17t-27 8q-19 0 -32 -13t-13 -32h-20q0 60 24 87.5t66 27.5q22 0 38 -8t29.5 -17l25.5 -17t27 -8q19 0 32 13t13 32h20
q0 -60 -24 -87.5t-66 -27.5z" />
    <glyph glyph-name="cacute" unicode="&#x107;" horiz-adv-x="530" 
d="M40 0zM330 495q-26 0 -48 -11t-38 -38.5t-25 -75t-9 -120.5q0 -71 9 -117.5t25 -73.5t38 -38t48 -11q30 0 56.5 11t46 29.5t31 42t11.5 47.5h25q0 -30 -13.5 -58t-38.5 -49.5t-60 -34.5t-78 -13q-128 0 -199 70.5t-71 194.5t71 194.5t199 70.5q49 0 84 -9.5t57.5 -25
t33 -35t10.5 -40.5q0 -34 -20.5 -54.5t-54.5 -20.5q-8 0 -15.5 0.5t-12.5 1.5q-7 1 -12 3v150q-6 2 -14 5q-7 2 -16 3.5t-20 1.5zM425 710l-135 -150h-35l40 150h130z" />
    <glyph glyph-name="ccaron" unicode="&#x10d;" horiz-adv-x="530" 
d="M40 0zM330 495q-26 0 -48 -11t-38 -38.5t-25 -75t-9 -120.5q0 -71 9 -117.5t25 -73.5t38 -38t48 -11q30 0 56.5 11t46 29.5t31 42t11.5 47.5h25q0 -30 -13.5 -58t-38.5 -49.5t-60 -34.5t-78 -13q-128 0 -199 70.5t-71 194.5t71 194.5t199 70.5q49 0 84 -9.5t57.5 -25
t33 -35t10.5 -40.5q0 -34 -20.5 -54.5t-54.5 -20.5q-8 0 -15.5 0.5t-12.5 1.5q-7 1 -12 3v150q-6 2 -14 5q-7 2 -16 3.5t-20 1.5zM305 566h-60l-115 150h35l110 -80l110 80h35z" />
    <glyph glyph-name="ccedilla" unicode="&#xe7;" horiz-adv-x="530" 
d="M330 495q-26 0 -48 -11t-38 -38.5t-25 -75t-9 -120.5q0 -71 9 -117.5t25 -73.5t38 -38t48 -11q30 0 56.5 11t46 29.5t31 42t11.5 47.5h25q0 -30 -13.5 -58t-38.5 -49.5t-60 -34.5t-78 -13h-5v-35q45 0 70 -22.5t25 -52.5t-26 -52.5t-79 -22.5q-11 0 -21 0.5t-18 1.5
q-9 1 -17 3v30q4 -3 10 -5q10 -5 26 -5q23 0 36.5 13.5t13.5 36.5t-14.5 36.5t-40.5 13.5v62q-109 10 -169.5 79.5t-60.5 183.5q0 124 71 194.5t199 70.5q49 0 84 -9.5t57.5 -25t33 -35t10.5 -40.5q0 -34 -20.5 -54.5t-54.5 -20.5q-8 0 -15.5 0.5t-12.5 1.5q-7 1 -12 3v150
q-6 2 -14 5q-7 2 -16 3.5t-20 1.5z" />
    <glyph glyph-name="ccircumflex" unicode="&#x109;" horiz-adv-x="530" 
d="M40 0zM330 495q-26 0 -48 -11t-38 -38.5t-25 -75t-9 -120.5q0 -71 9 -117.5t25 -73.5t38 -38t48 -11q30 0 56.5 11t46 29.5t31 42t11.5 47.5h25q0 -30 -13.5 -58t-38.5 -49.5t-60 -34.5t-78 -13q-128 0 -199 70.5t-71 194.5t71 194.5t199 70.5q49 0 84 -9.5t57.5 -25
t33 -35t10.5 -40.5q0 -34 -20.5 -54.5t-54.5 -20.5q-8 0 -15.5 0.5t-12.5 1.5q-7 1 -12 3v150q-6 2 -14 5q-7 2 -16 3.5t-20 1.5zM285 730l145 -165h-35l-110 70l-110 -70h-35z" />
    <glyph glyph-name="cdotaccent" unicode="&#x10b;" horiz-adv-x="530" 
d="M40 0zM330 495q-26 0 -48 -11t-38 -38.5t-25 -75t-9 -120.5q0 -71 9 -117.5t25 -73.5t38 -38t48 -11q30 0 56.5 11t46 29.5t31 42t11.5 47.5h25q0 -30 -13.5 -58t-38.5 -49.5t-60 -34.5t-78 -13q-128 0 -199 70.5t-71 194.5t71 194.5t199 70.5q49 0 84 -9.5t57.5 -25
t33 -35t10.5 -40.5q0 -34 -20.5 -54.5t-54.5 -20.5q-8 0 -15.5 0.5t-12.5 1.5q-7 1 -12 3v150q-6 2 -14 5q-7 2 -16 3.5t-20 1.5zM225 645q0 30 20 50t50 20t50 -20t20 -50t-20 -50t-50 -20t-50 20t-20 50z" />
    <glyph glyph-name="dcaron" unicode="&#x10f;" horiz-adv-x="760" 
d="M40 0zM375 445q-11 11 -23 20q-11 8 -24 14t-28 6q-19 0 -35.5 -9.5t-28.5 -35t-19 -71.5t-7 -119q0 -71 7 -116t17.5 -70.5t24 -34.5t26.5 -9q23 0 39.5 12.5t27.5 27.5q13 18 23 40v345zM445 700q90 0 90 -90v-580l60 -15v-15h-90q-36 0 -58 11.5t-35 25.5
q-15 17 -22 38q-13 -26 -33 -45q-17 -17 -45 -31t-67 -14q-43 0 -80.5 17t-65 50t-43.5 82.5t-16 115.5t16 115.5t45 82.5t69.5 50t89.5 17q26 0 47.5 -6t36.5 -14q18 -9 31 -20v195l-60 15v15h130zM615 470q20 8 37 22q14 12 28 32.5t20 50.5q-5 -4 -11 -8q-12 -7 -29 -7
q-30 0 -50 20t-20 50t20 50t50 20q34 0 54.5 -21.5t20.5 -63.5q0 -49 -17.5 -80.5t-37.5 -50.5q-25 -22 -55 -34z" />
    <glyph glyph-name="dcroat" unicode="&#x111;" horiz-adv-x="625" 
d="M445 700q90 0 90 -90v-20h65v-30h-65v-530l60 -15v-15h-90q-36 0 -58 11.5t-35 25.5q-15 17 -22 38q-13 -26 -33 -45q-17 -17 -45 -31t-67 -14q-43 0 -80.5 16.5t-65 49t-43.5 80t-16 109.5t16 109.5t45 80t69.5 49t89.5 16.5q26 0 47.5 -6t36.5 -14q18 -9 31 -20v105
h-125v30h125v80l-60 15v15h130zM375 425l-6 6t-16.5 13.5t-24 14t-28.5 6.5q-19 0 -35.5 -9t-28.5 -34t-19 -69t-7 -113q0 -68 7 -110.5t17.5 -67t24 -33.5t26.5 -9q23 0 39.5 12.5t27.5 27.5q13 18 23 40v325z" />
    <glyph glyph-name="eacute" unicode="&#xe9;" 
d="M40 0zM210 250q34 0 60 1.5t44 3.5q21 2 36 5q2 10 5 22q2 11 3.5 24.5t1.5 28.5q0 45 -7 75.5t-17.5 49.5t-24 27t-26.5 8t-26.5 -9.5t-24 -36t-17.5 -74.5t-7 -125zM310 -15q-128 0 -199 70.5t-71 194.5q0 62 18 111t50 83.5t77.5 52.5t99.5 18q56 0 100.5 -16
t75.5 -43t47.5 -63.5t16.5 -77.5q0 -14 -1.5 -24.5t-3.5 -18.5l-5 -17q-44 -9 -93 -15q-42 -6 -97 -10.5t-115 -4.5q0 -62 9 -103.5t25 -66t38 -35t48 -10.5q30 0 56.5 11t46 29.5t31 42t11.5 47.5h25q0 -30 -13.5 -58t-38.5 -49.5t-60 -34.5t-78 -13zM420 710l-135 -150
h-35l40 150h130z" />
    <glyph glyph-name="ebreve" unicode="&#x115;" 
d="M40 0zM210 250q34 0 60 1.5t44 3.5q21 2 36 5q2 10 5 22q2 11 3.5 24.5t1.5 28.5q0 45 -7 75.5t-17.5 49.5t-24 27t-26.5 8t-26.5 -9.5t-24 -36t-17.5 -74.5t-7 -125zM310 -15q-128 0 -199 70.5t-71 194.5q0 62 18 111t50 83.5t77.5 52.5t99.5 18q56 0 100.5 -16
t75.5 -43t47.5 -63.5t16.5 -77.5q0 -14 -1.5 -24.5t-3.5 -18.5l-5 -17q-44 -9 -93 -15q-42 -6 -97 -10.5t-115 -4.5q0 -62 9 -103.5t25 -66t38 -35t48 -10.5q30 0 56.5 11t46 29.5t31 42t11.5 47.5h25q0 -30 -13.5 -58t-38.5 -49.5t-60 -34.5t-78 -13zM280 595
q26 0 40.5 5.5t14.5 4.5v110l12 2q5 1 11 2t12 1q26 0 43 -17t17 -43q0 -34 -34 -59.5t-116 -25.5q-41 0 -69.5 7t-46.5 18.5t-26 27t-8 32.5q0 26 17 43t43 17q5 0 11.5 -1t11.5 -2l12 -2v-110q0 1 14.5 -4.5t40.5 -5.5z" />
    <glyph glyph-name="ecaron" unicode="&#x11b;" 
d="M40 0zM210 250q34 0 60 1.5t44 3.5q21 2 36 5q2 10 5 22q2 11 3.5 24.5t1.5 28.5q0 45 -7 75.5t-17.5 49.5t-24 27t-26.5 8t-26.5 -9.5t-24 -36t-17.5 -74.5t-7 -125zM310 -15q-128 0 -199 70.5t-71 194.5q0 62 18 111t50 83.5t77.5 52.5t99.5 18q56 0 100.5 -16
t75.5 -43t47.5 -63.5t16.5 -77.5q0 -14 -1.5 -24.5t-3.5 -18.5l-5 -17q-44 -9 -93 -15q-42 -6 -97 -10.5t-115 -4.5q0 -62 9 -103.5t25 -66t38 -35t48 -10.5q30 0 56.5 11t46 29.5t31 42t11.5 47.5h25q0 -30 -13.5 -58t-38.5 -49.5t-60 -34.5t-78 -13zM320 566h-60l-115 150
h35l110 -80l110 80h35z" />
    <glyph glyph-name="ecircumflex" unicode="&#xea;" 
d="M40 0zM210 250q34 0 60 1.5t44 3.5q21 2 36 5q2 10 5 22q2 11 3.5 24.5t1.5 28.5q0 45 -7 75.5t-17.5 49.5t-24 27t-26.5 8t-26.5 -9.5t-24 -36t-17.5 -74.5t-7 -125zM310 -15q-128 0 -199 70.5t-71 194.5q0 62 18 111t50 83.5t77.5 52.5t99.5 18q56 0 100.5 -16
t75.5 -43t47.5 -63.5t16.5 -77.5q0 -14 -1.5 -24.5t-3.5 -18.5l-5 -17q-44 -9 -93 -15q-42 -6 -97 -10.5t-115 -4.5q0 -62 9 -103.5t25 -66t38 -35t48 -10.5q30 0 56.5 11t46 29.5t31 42t11.5 47.5h25q0 -30 -13.5 -58t-38.5 -49.5t-60 -34.5t-78 -13zM285 730l145 -165h-35
l-110 70l-110 -70h-35z" />
    <glyph glyph-name="edieresis" unicode="&#xeb;" 
d="M40 0zM210 250q34 0 60 1.5t44 3.5q21 2 36 5q2 10 5 22q2 11 3.5 24.5t1.5 28.5q0 45 -7 75.5t-17.5 49.5t-24 27t-26.5 8t-26.5 -9.5t-24 -36t-17.5 -74.5t-7 -125zM310 -15q-128 0 -199 70.5t-71 194.5q0 62 18 111t50 83.5t77.5 52.5t99.5 18q56 0 100.5 -16
t75.5 -43t47.5 -63.5t16.5 -77.5q0 -14 -1.5 -24.5t-3.5 -18.5l-5 -17q-44 -9 -93 -15q-42 -6 -97 -10.5t-115 -4.5q0 -62 9 -103.5t25 -66t38 -35t48 -10.5q30 0 56.5 11t46 29.5t31 42t11.5 47.5h25q0 -30 -13.5 -58t-38.5 -49.5t-60 -34.5t-78 -13zM122 645q0 30 20 50
t50 20t50 -20t20 -50t-20 -50t-50 -20t-50 20t-20 50zM307 645q0 30 20 50t50 20t50 -20t20 -50t-20 -50t-50 -20t-50 20t-20 50z" />
    <glyph glyph-name="edotaccent" unicode="&#x117;" 
d="M40 0zM210 250q34 0 60 1.5t44 3.5q21 2 36 5q2 10 5 22q2 11 3.5 24.5t1.5 28.5q0 45 -7 75.5t-17.5 49.5t-24 27t-26.5 8t-26.5 -9.5t-24 -36t-17.5 -74.5t-7 -125zM310 -15q-128 0 -199 70.5t-71 194.5q0 62 18 111t50 83.5t77.5 52.5t99.5 18q56 0 100.5 -16
t75.5 -43t47.5 -63.5t16.5 -77.5q0 -14 -1.5 -24.5t-3.5 -18.5l-5 -17q-44 -9 -93 -15q-42 -6 -97 -10.5t-115 -4.5q0 -62 9 -103.5t25 -66t38 -35t48 -10.5q30 0 56.5 11t46 29.5t31 42t11.5 47.5h25q0 -30 -13.5 -58t-38.5 -49.5t-60 -34.5t-78 -13zM215 645q0 30 20 50
t50 20t50 -20t20 -50t-20 -50t-50 -20t-50 20t-20 50z" />
    <glyph glyph-name="egrave" unicode="&#xe8;" 
d="M40 0zM210 250q34 0 60 1.5t44 3.5q21 2 36 5q2 10 5 22q2 11 3.5 24.5t1.5 28.5q0 45 -7 75.5t-17.5 49.5t-24 27t-26.5 8t-26.5 -9.5t-24 -36t-17.5 -74.5t-7 -125zM310 -15q-128 0 -199 70.5t-71 194.5q0 62 18 111t50 83.5t77.5 52.5t99.5 18q56 0 100.5 -16
t75.5 -43t47.5 -63.5t16.5 -77.5q0 -14 -1.5 -24.5t-3.5 -18.5l-5 -17q-44 -9 -93 -15q-42 -6 -97 -10.5t-115 -4.5q0 -62 9 -103.5t25 -66t38 -35t48 -10.5q30 0 56.5 11t46 29.5t31 42t11.5 47.5h25q0 -30 -13.5 -58t-38.5 -49.5t-60 -34.5t-78 -13zM270 710l40 -150h-35
l-135 150h130z" />
    <glyph glyph-name="emacron" unicode="&#x113;" 
d="M40 0zM210 250q34 0 60 1.5t44 3.5q21 2 36 5q2 10 5 22q2 11 3.5 24.5t1.5 28.5q0 45 -7 75.5t-17.5 49.5t-24 27t-26.5 8t-26.5 -9.5t-24 -36t-17.5 -74.5t-7 -125zM310 -15q-128 0 -199 70.5t-71 194.5q0 62 18 111t50 83.5t77.5 52.5t99.5 18q56 0 100.5 -16
t75.5 -43t47.5 -63.5t16.5 -77.5q0 -14 -1.5 -24.5t-3.5 -18.5l-5 -17q-44 -9 -93 -15q-42 -6 -97 -10.5t-115 -4.5q0 -62 9 -103.5t25 -66t38 -35t48 -10.5q30 0 56.5 11t46 29.5t31 42t11.5 47.5h25q0 -30 -13.5 -58t-38.5 -49.5t-60 -34.5t-78 -13zM155 601v45h260v-45
h-260z" />
    <glyph glyph-name="eogonek" unicode="&#x119;" 
d="M205 -115q0 19 8.5 35t21.5 28.5t29 21.5t31 15q-121 4 -188 74t-67 191q0 62 18 111t50 83.5t77.5 52.5t99.5 18q56 0 100.5 -16t75.5 -43t47.5 -63.5t16.5 -77.5q0 -15 -1.5 -26t-3.5 -19l-5 -15q-44 -9 -93 -15q-42 -6 -97 -10.5t-115 -4.5q0 -62 9 -103.5t25 -66
t38 -35t48 -10.5q30 0 56.5 11t46 29.5t31 42t11.5 47.5h25q0 -24 -9 -47.5t-26 -43t-41 -34.5t-54 -22q-10 -6 -23.5 -15.5t-26 -24t-21.5 -34t-9 -44.5q0 -40 40 -40q9 0 17.5 3t14.5 7q7 4 13 10v-30q-8 -4 -18 -8q-19 -7 -47 -7q-53 0 -79 22.5t-26 52.5zM210 250
q34 0 60 1.5t44 3.5q21 2 36 5q2 10 5 22q2 11 3.5 24.5t1.5 28.5q0 45 -7 75.5t-17.5 49.5t-24 27t-26.5 8t-26.5 -9.5t-24 -36t-17.5 -74.5t-7 -125z" />
    <glyph glyph-name="gbreve" unicode="&#x11f;" horiz-adv-x="605" 
d="M25 0zM280 505q49 0 88 -10t62 -25q8 17 21 30q11 11 29.5 20.5t44.5 9.5q34 0 57 -23.5t23 -61.5q0 -30 -16 -47.5t-39 -17.5q-8 0 -14 0.5t-11 1.5t-10 3v120q-17 0 -29 -8t-20 -17q-10 -11 -16 -25q26 -23 38 -52t12 -63q0 -36 -13.5 -66t-40.5 -52t-68.5 -34.5
t-97.5 -12.5q-38 0 -71 7t-59 18q-11 -5 -20 -10q-8 -5 -14 -11t-6 -14q0 -15 15.5 -25t64.5 -10h190q75 0 117.5 -43t42.5 -122q0 -38 -15.5 -70.5t-47.5 -57t-82.5 -38.5t-119.5 -14q-71 0 -119 10t-77 26t-41.5 35.5t-12.5 38.5q0 34 20.5 54.5t54.5 20.5q9 0 16.5 -1
t12.5 -2q6 -1 11 -2v-140q18 -6 38 -10q17 -4 39.5 -7t47.5 -3q66 0 110.5 10.5t72.5 27t40 38t12 44.5q0 13 -6 25t-20 21t-37 14t-57 5h-190q-79 0 -117 32.5t-38 77.5q0 30 14.5 50.5t32.5 34.5q21 15 48 25q-38 23 -54 55.5t-16 74.5q0 36 13.5 66t40.5 52t68.5 34.5
t97.5 12.5zM280 195q15 0 28 6.5t22 23t14.5 44.5t5.5 71t-5.5 71t-14.5 44.5t-22 23t-28 6.5t-28 -6.5t-22 -23t-14.5 -44.5t-5.5 -71t5.5 -71t14.5 -44.5t22 -23t28 -6.5zM280 590q26 0 40.5 5.5t14.5 4.5v110l12 2q5 1 11 2t12 1q26 0 43 -17t17 -43q0 -34 -34 -59.5
t-116 -25.5q-41 0 -69.5 7t-46.5 18.5t-26 27t-8 32.5q0 26 17 43t43 17q5 0 11.5 -1t11.5 -2l12 -2v-110q0 1 14.5 -4.5t40.5 -5.5z" />
    <glyph glyph-name="gcircumflex" unicode="&#x11d;" horiz-adv-x="605" 
d="M25 0zM280 505q49 0 88 -10t62 -25q8 17 21 30q11 11 29.5 20.5t44.5 9.5q34 0 57 -23.5t23 -61.5q0 -30 -16 -47.5t-39 -17.5q-8 0 -14 0.5t-11 1.5t-10 3v120q-17 0 -29 -8t-20 -17q-10 -11 -16 -25q26 -23 38 -52t12 -63q0 -36 -13.5 -66t-40.5 -52t-68.5 -34.5
t-97.5 -12.5q-38 0 -71 7t-59 18q-11 -5 -20 -10q-8 -5 -14 -11t-6 -14q0 -15 15.5 -25t64.5 -10h190q75 0 117.5 -43t42.5 -122q0 -38 -15.5 -70.5t-47.5 -57t-82.5 -38.5t-119.5 -14q-71 0 -119 10t-77 26t-41.5 35.5t-12.5 38.5q0 34 20.5 54.5t54.5 20.5q9 0 16.5 -1
t12.5 -2q6 -1 11 -2v-140q18 -6 38 -10q17 -4 39.5 -7t47.5 -3q66 0 110.5 10.5t72.5 27t40 38t12 44.5q0 13 -6 25t-20 21t-37 14t-57 5h-190q-79 0 -117 32.5t-38 77.5q0 30 14.5 50.5t32.5 34.5q21 15 48 25q-38 23 -54 55.5t-16 74.5q0 36 13.5 66t40.5 52t68.5 34.5
t97.5 12.5zM280 195q15 0 28 6.5t22 23t14.5 44.5t5.5 71t-5.5 71t-14.5 44.5t-22 23t-28 6.5t-28 -6.5t-22 -23t-14.5 -44.5t-5.5 -71t5.5 -71t14.5 -44.5t22 -23t28 -6.5zM290 725l145 -165h-35l-110 70l-110 -70h-35z" />
    <glyph glyph-name="gcommaaccent" unicode="&#x123;" horiz-adv-x="605" 
d="M25 0zM280 505q49 0 88 -10t62 -25q8 17 21 30q11 11 29.5 20.5t44.5 9.5q34 0 57 -23.5t23 -61.5q0 -30 -16 -47.5t-39 -17.5q-8 0 -14 0.5t-11 1.5t-10 3v120q-17 0 -29 -8t-20 -17q-10 -11 -16 -25q26 -23 38 -52t12 -63q0 -36 -13.5 -66t-40.5 -52t-68.5 -34.5
t-97.5 -12.5q-38 0 -71 7t-59 18q-11 -5 -20 -10q-8 -5 -14 -11t-6 -14q0 -15 15.5 -25t64.5 -10h190q75 0 117.5 -43t42.5 -122q0 -38 -15.5 -70.5t-47.5 -57t-82.5 -38.5t-119.5 -14q-71 0 -119 10t-77 26t-41.5 35.5t-12.5 38.5q0 34 20.5 54.5t54.5 20.5q9 0 16.5 -1
t12.5 -2q6 -1 11 -2v-140q18 -6 38 -10q17 -4 39.5 -7t47.5 -3q66 0 110.5 10.5t72.5 27t40 38t12 44.5q0 13 -6 25t-20 21t-37 14t-57 5h-190q-79 0 -117 32.5t-38 77.5q0 30 14.5 50.5t32.5 34.5q21 15 48 25q-38 23 -54 55.5t-16 74.5q0 36 13.5 66t40.5 52t68.5 34.5
t97.5 12.5zM280 195q15 0 28 6.5t22 23t14.5 44.5t5.5 71t-5.5 71t-14.5 44.5t-22 23t-28 6.5t-28 -6.5t-22 -23t-14.5 -44.5t-5.5 -71t5.5 -71t14.5 -44.5t22 -23t28 -6.5zM330.003 799.986q-19.999 -8 -36.998 -21.999q-13.999 -11.999 -27.998 -32.498t-19.999 -50.4971
q5 4 10.999 8q12 6.99902 28.999 6.99902q29.998 0 49.9961 -19.999q19.999 -19.998 19.999 -49.9961t-19.999 -49.9971q-19.998 -19.999 -49.9961 -19.999q-33.998 0 -54.4971 21.499q-20.499 21.498 -20.499 63.4961q0 48.9971 17.499 80.4951t37.498 50.4961
q24.998 21.999 54.9961 33.998z" />
    <glyph glyph-name="gdotaccent" unicode="&#x121;" horiz-adv-x="605" 
d="M25 0zM280 505q49 0 88 -10t62 -25q8 17 21 30q11 11 29.5 20.5t44.5 9.5q34 0 57 -23.5t23 -61.5q0 -30 -16 -47.5t-39 -17.5q-8 0 -14 0.5t-11 1.5t-10 3v120q-17 0 -29 -8t-20 -17q-10 -11 -16 -25q26 -23 38 -52t12 -63q0 -36 -13.5 -66t-40.5 -52t-68.5 -34.5
t-97.5 -12.5q-38 0 -71 7t-59 18q-11 -5 -20 -10q-8 -5 -14 -11t-6 -14q0 -15 15.5 -25t64.5 -10h190q75 0 117.5 -43t42.5 -122q0 -38 -15.5 -70.5t-47.5 -57t-82.5 -38.5t-119.5 -14q-71 0 -119 10t-77 26t-41.5 35.5t-12.5 38.5q0 34 20.5 54.5t54.5 20.5q9 0 16.5 -1
t12.5 -2q6 -1 11 -2v-140q18 -6 38 -10q17 -4 39.5 -7t47.5 -3q66 0 110.5 10.5t72.5 27t40 38t12 44.5q0 13 -6 25t-20 21t-37 14t-57 5h-190q-79 0 -117 32.5t-38 77.5q0 30 14.5 50.5t32.5 34.5q21 15 48 25q-38 23 -54 55.5t-16 74.5q0 36 13.5 66t40.5 52t68.5 34.5
t97.5 12.5zM280 195q15 0 28 6.5t22 23t14.5 44.5t5.5 71t-5.5 71t-14.5 44.5t-22 23t-28 6.5t-28 -6.5t-22 -23t-14.5 -44.5t-5.5 -71t5.5 -71t14.5 -44.5t22 -23t28 -6.5zM210 640q0 30 20 50t50 20t50 -20t20 -50t-20 -50t-50 -20t-50 20t-20 50z" />
    <glyph glyph-name="hbar" unicode="&#x127;" horiz-adv-x="670" 
d="M265 545v-125q13 18 31 32q16 12 40.5 22.5t58.5 10.5q43 0 79 -14t61.5 -37t40 -52.5t14.5 -61.5v-290l60 -15v-15h-130q-90 0 -90 90v230q0 34 -7 58.5t-17.5 40.5t-24 23.5t-26.5 7.5q-23 0 -40 -12.5t-28 -27.5q-13 -18 -22 -40v-340l60 -15v-15h-280v15l60 15v515
h-65v25h65v100l-60 15v15h130q90 0 90 -90v-40h125v-25h-125z" />
    <glyph glyph-name="hcircumflex" unicode="&#x125;" horiz-adv-x="665" 
d="M20 0zM425 350q0 34 -7 58.5t-17.5 40.5t-24 23.5t-26.5 7.5q-23 0 -40 -12.5t-28 -27.5q-13 -18 -22 -40v-370l60 -15v-15h-280v15l60 15v640l-60 15v15h130q90 0 90 -90v-160q13 18 31 32q16 12 40.5 22.5t58.5 10.5q43 0 79 -14t61.5 -37t40 -52.5t14.5 -61.5v-320
l60 -15v-15h-130q-90 0 -90 90v260zM165 905l145 -165h-35l-110 70l-110 -70h-35z" />
    <glyph glyph-name="dotlessi" unicode="&#x131;" horiz-adv-x="340" 
d="M170 500q90 0 90 -90v-380l60 -15v-15h-280v15l60 15v440l-60 15v15h130z" />
    <glyph glyph-name="iacute" unicode="&#xed;" horiz-adv-x="340" 
d="M40 0zM170 500q90 0 90 -90v-380l60 -15v-15h-280v15l60 15v440l-60 15v15h130zM305 700l-135 -150h-35l40 150h130z" />
    <glyph glyph-name="ibreve" unicode="&#x12d;" horiz-adv-x="340" 
d="M20 0zM170 500q90 0 90 -90v-380l60 -15v-15h-280v15l60 15v440l-60 15v15h130zM170 585q26 0 40.5 5.5t14.5 4.5v110l12 2q5 1 11 2t12 1q26 0 43 -17t17 -43q0 -34 -34 -59.5t-116 -25.5q-41 0 -69.5 7t-46.5 18.5t-26 27t-8 32.5q0 26 17 43t43 17q5 0 11.5 -1
t11.5 -2l12 -2v-110q0 1 14.5 -4.5t40.5 -5.5z" />
    <glyph glyph-name="icircumflex" unicode="&#xee;" horiz-adv-x="340" 
d="M25 0zM170 500q90 0 90 -90v-380l60 -15v-15h-280v15l60 15v440l-60 15v15h130zM170 725l145 -165h-35l-110 70l-110 -70h-35z" />
    <glyph glyph-name="idieresis" unicode="&#xef;" horiz-adv-x="340" 
d="M0 0zM170 500q90 0 90 -90v-380l60 -15v-15h-280v15l60 15v440l-60 15v15h130zM-1 640q0 30 20 50t50 20t50 -20t20 -50t-20 -50t-50 -20t-50 20t-20 50zM184 640q0 30 20 50t50 20t50 -20t20 -50t-20 -50t-50 -20t-50 20t-20 50z" />
    <glyph glyph-name="igrave" unicode="&#xec;" horiz-adv-x="340" 
d="M25 0zM170 500q90 0 90 -90v-380l60 -15v-15h-280v15l60 15v440l-60 15v15h130zM155 700l40 -150h-35l-135 150h130z" />
    <glyph glyph-name="imacron" unicode="&#x12b;" horiz-adv-x="340" 
d="M40 0zM170 500q90 0 90 -90v-380l60 -15v-15h-280v15l60 15v440l-60 15v15h130zM40 601v45h260v-45h-260z" />
    <glyph glyph-name="iogonek" unicode="&#x12f;" horiz-adv-x="340" 
d="M170 500q90 0 90 -90v-380l60 -15v-15h-60q-27 -13 -48 -31q-18 -16 -32.5 -39t-14.5 -55q0 -40 40 -40q9 0 17.5 3t14.5 7q7 4 13 10v-30q-8 -4 -18 -8q-19 -7 -47 -7q-53 0 -79 22.5t-26 52.5q0 20 9 36.5t23 29t30.5 21.5t31.5 15t26 9t14 4h-174v15l60 15v440l-60 15
v15h130zM95 625q0 17 7 32.5t18.5 27t27 18.5t32.5 7t32.5 -7t27 -18.5t18.5 -27t7 -32.5t-7 -32.5t-18.5 -27t-27 -18.5t-32.5 -7t-32.5 7t-27 18.5t-18.5 27t-7 32.5z" />
    <glyph glyph-name="itilde" unicode="&#x129;" horiz-adv-x="343" 
d="M35 0zM173 500q90 0 90 -90v-380l60 -15v-15h-280v15l60 15v440l-60 15v15h130zM220 576q-23 0 -38.5 8t-29 17l-25.5 17t-27 8q-19 0 -32 -13t-13 -32h-20q0 60 24 87.5t66 27.5q22 0 38 -8t29.5 -17l25.5 -17t27 -8q19 0 32 13t13 32h20q0 -60 -24 -87.5t-66 -27.5z
" />
    <glyph glyph-name="ij" unicode="&#x133;" horiz-adv-x="640" 
d="M315 -190q2 -2 6 -3q8 -2 14 -2q13 0 25.5 7.5t22.5 26t16 50.5t6 81v505h-145v-445l60 -15v-15h-280v15l60 15v440l-60 15v15h435q90 0 90 -90v-440q0 -39 -14.5 -73t-43 -59t-69.5 -39t-93 -14q-79 0 -112 26.5t-33 68.5q0 34 20.5 54.5t54.5 20.5q8 0 14.5 -1l12.5 -2
t13 -2v-140zM400 625q0 17 7 32.5t18.5 27t27 18.5t32.5 7t32.5 -7t27 -18.5t18.5 -27t7 -32.5t-7 -32.5t-18.5 -27t-27 -18.5t-32.5 -7t-32.5 7t-27 18.5t-18.5 27t-7 32.5zM95 625q0 17 7 32.5t18.5 27t27 18.5t32.5 7t32.5 -7t27 -18.5t18.5 -27t7 -32.5t-7 -32.5
t-18.5 -27t-27 -18.5t-32.5 -7t-32.5 7t-27 18.5t-18.5 27t-7 32.5z" />
    <glyph glyph-name="jcircumflex" unicode="&#x135;" horiz-adv-x="340" 
d="M5 -190q2 -2 6 -3q8 -2 14 -2q13 0 25.5 7.5t22.5 26t16 50.5t6 81v500l-60 15v15h130q90 0 90 -90v-440q0 -39 -14.5 -73t-43 -59t-69.5 -39t-93 -14q-79 0 -112 26.5t-33 68.5q0 34 20.5 54.5t54.5 20.5q8 0 14.5 -1l12.5 -2t13 -2v-140zM155 730l145 -165h-35l-110 70
l-110 -70h-35z" />
    <glyph glyph-name="lacute" unicode="&#x13a;" horiz-adv-x="340" 
d="M40 0zM170 700q90 0 90 -90v-580l60 -15v-15h-280v15l60 15v640l-60 15v15h130zM307 900l-135 -150h-35l40 150h130z" />
    <glyph glyph-name="lcaron" unicode="&#x13e;" horiz-adv-x="485" 
d="M40 0zM170 700q90 0 90 -90v-580l60 -15v-15h-280v15l60 15v640l-60 15v15h130zM340 470q20 8 37 22q14 12 28 32.5t20 50.5q-5 -4 -11 -8q-12 -7 -29 -7q-30 0 -50 20t-20 50t20 50t50 20q34 0 54.5 -21.5t20.5 -63.5q0 -49 -17.5 -80.5t-37.5 -50.5q-25 -22 -55 -34z
" />
    <glyph glyph-name="lcommaaccent" unicode="&#x13c;" horiz-adv-x="340" 
d="M40 0zM170 700q90 0 90 -90v-580l60 -15v-15h-280v15l60 15v640l-60 15v15h130zM138 -284q20 8 37 22q14 12 28 32.5t20 50.5q-5 -4 -11 -8q-12 -7 -29 -7q-30 0 -50 20t-20 50t20 50t50 20q34 0 54.5 -21.5t20.5 -63.5q0 -49 -17.5 -80.5t-37.5 -50.5q-25 -22 -55 -34z
" />
    <glyph glyph-name="ldot" unicode="&#x140;" horiz-adv-x="485" 
d="M40 0zM170 700q90 0 90 -90v-580l60 -15v-15h-280v15l60 15v640l-60 15v15h130zM315 351q0 30 20 50t50 20t50 -20t20 -50t-20 -50t-50 -20t-50 20t-20 50z" />
    <glyph glyph-name="lslash" unicode="&#x142;" horiz-adv-x="365" 
d="M175 700q90 0 90 -90v-159l80 49v-35l-80 -49v-386l60 -15v-15h-280v15l60 15v287l-85 -52v35l85 52v318l-60 15v15h130z" />
    <glyph glyph-name="nacute" unicode="&#x144;" horiz-adv-x="665" 
d="M40 0zM425 350q0 34 -7 58.5t-17.5 40.5t-24 23.5t-26.5 7.5q-23 0 -40 -12.5t-28 -27.5q-13 -18 -22 -40v-370l60 -15v-15h-280v15l60 15v440l-60 15v15h90q35 0 57.5 -12t35.5 -26q15 -17 22 -37q13 25 33 45q17 17 44.5 31t67.5 14q43 0 79 -14t61.5 -37t40 -52.5
t14.5 -61.5v-320l60 -15v-15h-130q-90 0 -90 90v260zM477 710l-135 -150h-35l40 150h130z" />
    <glyph glyph-name="ncaron" unicode="&#x148;" horiz-adv-x="665" 
d="M40 0zM425 350q0 34 -7 58.5t-17.5 40.5t-24 23.5t-26.5 7.5q-23 0 -40 -12.5t-28 -27.5q-13 -18 -22 -40v-370l60 -15v-15h-280v15l60 15v440l-60 15v15h90q35 0 57.5 -12t35.5 -26q15 -17 22 -37q13 25 33 45q17 17 44.5 31t67.5 14q43 0 79 -14t61.5 -37t40 -52.5
t14.5 -61.5v-320l60 -15v-15h-130q-90 0 -90 90v260zM357 566h-60l-115 150h35l110 -80l110 80h35z" />
    <glyph glyph-name="ncommaaccent" unicode="&#x146;" horiz-adv-x="665" 
d="M40 0zM425 350q0 34 -7 58.5t-17.5 40.5t-24 23.5t-26.5 7.5q-23 0 -40 -12.5t-28 -27.5q-13 -18 -22 -40v-370l60 -15v-15h-280v15l60 15v440l-60 15v15h90q35 0 57.5 -12t35.5 -26q15 -17 22 -37q13 25 33 45q17 17 44.5 31t67.5 14q43 0 79 -14t61.5 -37t40 -52.5
t14.5 -61.5v-320l60 -15v-15h-130q-90 0 -90 90v260zM315 -274q20 8 37 22q14 12 28 32.5t20 50.5q-5 -4 -11 -8q-12 -7 -29 -7q-30 0 -50 20t-20 50t20 50t50 20q34 0 54.5 -21.5t20.5 -63.5q0 -49 -17.5 -80.5t-37.5 -50.5q-25 -22 -55 -34z" />
    <glyph glyph-name="ntilde" unicode="&#xf1;" horiz-adv-x="665" 
d="M40 0zM425 350q0 34 -7 58.5t-17.5 40.5t-24 23.5t-26.5 7.5q-23 0 -40 -12.5t-28 -27.5q-13 -18 -22 -40v-370l60 -15v-15h-280v15l60 15v440l-60 15v15h90q35 0 57.5 -12t35.5 -26q15 -17 22 -37q13 25 33 45q17 17 44.5 31t67.5 14q43 0 79 -14t61.5 -37t40 -52.5
t14.5 -61.5v-320l60 -15v-15h-130q-90 0 -90 90v260zM390 576q-23 0 -38.5 8t-29 17l-25.5 17t-27 8q-19 0 -32 -13t-13 -32h-20q0 60 24 87.5t66 27.5q22 0 38 -8t29.5 -17l25.5 -17t27 -8q19 0 32 13t13 32h20q0 -60 -24 -87.5t-66 -27.5z" />
    <glyph glyph-name="oacute" unicode="&#xf3;" horiz-adv-x="600" 
d="M36 0zM301 5q17 0 34 11t30.5 38.5t22 75t8.5 120.5t-8.5 120.5t-22 75t-30.5 38.5t-34 11t-34 -11t-30.5 -38.5t-22 -75t-8.5 -120.5t8.5 -120.5t22 -75t30.5 -38.5t34 -11zM301 515q62 0 111 -18t83.5 -52.5t52.5 -83.5t18 -111t-18 -111t-52.5 -83.5t-83.5 -52.5
t-111 -18t-111 18t-83.5 52.5t-52.5 83.5t-18 111t18 111t52.5 83.5t83.5 52.5t111 18zM435 710l-135 -150h-35l40 150h130z" />
    <glyph glyph-name="obreve" unicode="&#x14f;" horiz-adv-x="610" 
d="M40 0zM305 5q17 0 34 11t30.5 38.5t22 75t8.5 120.5t-8.5 120.5t-22 75t-30.5 38.5t-34 11t-34 -11t-30.5 -38.5t-22 -75t-8.5 -120.5t8.5 -120.5t22 -75t30.5 -38.5t34 -11zM305 515q62 0 111 -18t83.5 -52.5t52.5 -83.5t18 -111t-18 -111t-52.5 -83.5t-83.5 -52.5
t-111 -18t-111 18t-83.5 52.5t-52.5 83.5t-18 111t18 111t52.5 83.5t83.5 52.5t111 18zM305 595q26 0 40.5 5.5t14.5 4.5v110l12 2q5 1 11 2t12 1q26 0 43 -17t17 -43q0 -34 -34 -59.5t-116 -25.5q-41 0 -69.5 7t-46.5 18.5t-26 27t-8 32.5q0 26 17 43t43 17q5 0 11.5 -1
t11.5 -2l12 -2v-110q0 1 14.5 -4.5t40.5 -5.5z" />
    <glyph glyph-name="ocircumflex" unicode="&#xf4;" horiz-adv-x="610" 
d="M40 0zM305 5q17 0 34 11t30.5 38.5t22 75t8.5 120.5t-8.5 120.5t-22 75t-30.5 38.5t-34 11t-34 -11t-30.5 -38.5t-22 -75t-8.5 -120.5t8.5 -120.5t22 -75t30.5 -38.5t34 -11zM305 515q62 0 111 -18t83.5 -52.5t52.5 -83.5t18 -111t-18 -111t-52.5 -83.5t-83.5 -52.5
t-111 -18t-111 18t-83.5 52.5t-52.5 83.5t-18 111t18 111t52.5 83.5t83.5 52.5t111 18zM305 730l145 -165h-35l-110 70l-110 -70h-35z" />
    <glyph glyph-name="odieresis" unicode="&#xf6;" horiz-adv-x="610" 
d="M40 0zM305 5q17 0 34 11t30.5 38.5t22 75t8.5 120.5t-8.5 120.5t-22 75t-30.5 38.5t-34 11t-34 -11t-30.5 -38.5t-22 -75t-8.5 -120.5t8.5 -120.5t22 -75t30.5 -38.5t34 -11zM305 515q62 0 111 -18t83.5 -52.5t52.5 -83.5t18 -111t-18 -111t-52.5 -83.5t-83.5 -52.5
t-111 -18t-111 18t-83.5 52.5t-52.5 83.5t-18 111t18 111t52.5 83.5t83.5 52.5t111 18zM142 645q0 30 20 50t50 20t50 -20t20 -50t-20 -50t-50 -20t-50 20t-20 50zM327 645q0 30 20 50t50 20t50 -20t20 -50t-20 -50t-50 -20t-50 20t-20 50z" />
    <glyph glyph-name="ograve" unicode="&#xf2;" horiz-adv-x="610" 
d="M40 0zM305 5q17 0 34 11t30.5 38.5t22 75t8.5 120.5t-8.5 120.5t-22 75t-30.5 38.5t-34 11t-34 -11t-30.5 -38.5t-22 -75t-8.5 -120.5t8.5 -120.5t22 -75t30.5 -38.5t34 -11zM305 515q62 0 111 -18t83.5 -52.5t52.5 -83.5t18 -111t-18 -111t-52.5 -83.5t-83.5 -52.5
t-111 -18t-111 18t-83.5 52.5t-52.5 83.5t-18 111t18 111t52.5 83.5t83.5 52.5t111 18zM290 710l40 -150h-35l-135 150h130z" />
    <glyph glyph-name="ohungarumlaut" unicode="&#x151;" horiz-adv-x="610" 
d="M40 0zM305 5q17 0 34 11t30.5 38.5t22 75t8.5 120.5t-8.5 120.5t-22 75t-30.5 38.5t-34 11t-34 -11t-30.5 -38.5t-22 -75t-8.5 -120.5t8.5 -120.5t22 -75t30.5 -38.5t34 -11zM305 515q62 0 111 -18t83.5 -52.5t52.5 -83.5t18 -111t-18 -111t-52.5 -83.5t-83.5 -52.5
t-111 -18t-111 18t-83.5 52.5t-52.5 83.5t-18 111t18 111t52.5 83.5t83.5 52.5t111 18zM352 710l-110 -150h-35l45 150h100zM482 710l-110 -150h-35l45 150h100z" />
    <glyph glyph-name="omacron" unicode="&#x14d;" horiz-adv-x="610" 
d="M40 0zM305 5q17 0 34 11t30.5 38.5t22 75t8.5 120.5t-8.5 120.5t-22 75t-30.5 38.5t-34 11t-34 -11t-30.5 -38.5t-22 -75t-8.5 -120.5t8.5 -120.5t22 -75t30.5 -38.5t34 -11zM305 515q62 0 111 -18t83.5 -52.5t52.5 -83.5t18 -111t-18 -111t-52.5 -83.5t-83.5 -52.5
t-111 -18t-111 18t-83.5 52.5t-52.5 83.5t-18 111t18 111t52.5 83.5t83.5 52.5t111 18zM175 601v45h260v-45h-260z" />
    <glyph glyph-name="oslash" unicode="&#xf8;" horiz-adv-x="610" 
d="M530 500l-41 -50q37 -34 59 -84.5t22 -115.5q0 -62 -18 -111t-52.5 -83.5t-83.5 -52.5t-111 -18q-99 0 -163 47l-27 -32h-35l41 49q-37 35 -59 85.5t-22 115.5q0 62 18 111t52.5 83.5t83.5 52.5t111 18q49 0 90 -12.5t73 -35.5l27 33h35zM305 5q17 0 34 11t30.5 38.5
t22 75t8.5 120.5q0 25 -1 47t-3 41l-177 -213q6 -35 15.5 -58t21 -37t24 -19.5t25.5 -5.5zM210 250q0 -26 1 -47.5t3 -41.5l177 213q-6 35 -16 58t-21 37t-24 20t-25 6q-17 0 -34 -11t-30.5 -38.5t-22 -75t-8.5 -120.5z" />
    <glyph glyph-name="oslashacute" unicode="&#x1ff;" horiz-adv-x="610" 
d="M530 500l-41 -50q37 -34 59 -84.5t22 -115.5q0 -62 -18 -111t-52.5 -83.5t-83.5 -52.5t-111 -18q-99 0 -163 47l-27 -32h-35l41 49q-37 35 -59 85.5t-22 115.5q0 62 18 111t52.5 83.5t83.5 52.5t111 18q49 0 90 -12.5t73 -35.5l27 33h35zM305 5q17 0 34 11t30.5 38.5
t22 75t8.5 120.5q0 25 -1 47t-3 41l-177 -213q6 -35 15.5 -58t21 -37t24 -19.5t25.5 -5.5zM210 250q0 -26 1 -47.5t3 -41.5l177 213q-6 35 -16 58t-21 37t-24 20t-25 6q-17 0 -34 -11t-30.5 -38.5t-22 -75t-8.5 -120.5zM430 710l-135 -150h-35l40 150h130z" />
    <glyph glyph-name="otilde" unicode="&#xf5;" horiz-adv-x="610" 
d="M40 0zM305 5q17 0 34 11t30.5 38.5t22 75t8.5 120.5t-8.5 120.5t-22 75t-30.5 38.5t-34 11t-34 -11t-30.5 -38.5t-22 -75t-8.5 -120.5t8.5 -120.5t22 -75t30.5 -38.5t34 -11zM305 515q62 0 111 -18t83.5 -52.5t52.5 -83.5t18 -111t-18 -111t-52.5 -83.5t-83.5 -52.5
t-111 -18t-111 18t-83.5 52.5t-52.5 83.5t-18 111t18 111t52.5 83.5t83.5 52.5t111 18zM352 576q-23 0 -38.5 8t-29 17l-25.5 17t-27 8q-19 0 -32 -13t-13 -32h-20q0 60 24 87.5t66 27.5q22 0 38 -8t29.5 -17l25.5 -17t27 -8q19 0 32 13t13 32h20q0 -60 -24 -87.5t-66 -27.5
z" />
    <glyph glyph-name="racute" unicode="&#x155;" horiz-adv-x="505" 
d="M40 0zM385 480q-30 0 -53.5 -12.5t-39.5 -27.5q-18 -18 -32 -40v-370l60 -15v-15h-280v15l60 15v440l-60 15v15h90q35 0 57.5 -12t35.5 -26q15 -17 22 -37q15 22 37 40q19 15 46.5 27.5t65.5 12.5q54 0 80 -25t26 -70q0 -34 -20.5 -54.5t-54.5 -20.5q-8 0 -15.5 0.5
t-12.5 1.5q-7 1 -12 3v140zM400 710l-135 -150h-35l40 150h130z" />
    <glyph glyph-name="rcaron" unicode="&#x159;" horiz-adv-x="505" 
d="M40 0zM385 480q-30 0 -53.5 -12.5t-39.5 -27.5q-18 -18 -32 -40v-370l60 -15v-15h-280v15l60 15v440l-60 15v15h90q35 0 57.5 -12t35.5 -26q15 -17 22 -37q15 22 37 40q19 15 46.5 27.5t65.5 12.5q54 0 80 -25t26 -70q0 -34 -20.5 -54.5t-54.5 -20.5q-8 0 -15.5 0.5
t-12.5 1.5q-7 1 -12 3v140zM300 561h-60l-115 150h35l110 -80l110 80h35z" />
    <glyph glyph-name="rcommaaccent" unicode="&#x157;" horiz-adv-x="505" 
d="M40 0zM385 480q-30 0 -53.5 -12.5t-39.5 -27.5q-18 -18 -32 -40v-370l60 -15v-15h-280v15l60 15v440l-60 15v15h90q35 0 57.5 -12t35.5 -26q15 -17 22 -37q15 22 37 40q19 15 46.5 27.5t65.5 12.5q54 0 80 -25t26 -70q0 -34 -20.5 -54.5t-54.5 -20.5q-8 0 -15.5 0.5
t-12.5 1.5q-7 1 -12 3v140zM133 -274q20 8 37 22q14 12 28 32.5t20 50.5q-5 -4 -11 -8q-12 -7 -29 -7q-30 0 -50 20t-20 50t20 50t50 20q34 0 54.5 -21.5t20.5 -63.5q0 -49 -17.5 -80.5t-37.5 -50.5q-25 -22 -55 -34z" />
    <glyph glyph-name="sacute" unicode="&#x15b;" horiz-adv-x="540" 
d="M45 0zM275 -15q-36 0 -63.5 8t-47.5 19q-23 12 -39 28q-8 -11 -17.5 -20t-17.5 -14q-10 -7 -20 -11h-25v170h40q14 -44 38 -78q20 -29 52 -53t80 -24q42 0 63.5 21t21.5 59q0 28 -21.5 48t-53.5 38t-70 36.5t-70 41.5t-53.5 53t-21.5 73q0 28 11.5 52.5t37 43t65.5 29
t96 10.5q30 0 55 -8.5t43 -19.5q21 -12 38 -27q8 11 17.5 19.5t17.5 14.5q10 6 20 11h25v-170h-40q-15 43 -37 77q-19 29 -48 53.5t-71 24.5q-26 0 -45.5 -20t-19.5 -50t21.5 -52t53.5 -41t70 -37t70 -40.5t53.5 -51t21.5 -68.5q0 -32 -12 -58.5t-39 -46t-71 -30t-108 -10.5
zM377 710l-135 -150h-35l40 150h130z" />
    <glyph glyph-name="scircumflex" unicode="&#x15d;" horiz-adv-x="540" 
d="M45 0zM275 -15q-36 0 -63.5 8t-47.5 19q-23 12 -39 28q-8 -11 -17.5 -20t-17.5 -14q-10 -7 -20 -11h-25v170h40q14 -44 38 -78q20 -29 52 -53t80 -24q42 0 63.5 21t21.5 59q0 28 -21.5 48t-53.5 38t-70 36.5t-70 41.5t-53.5 53t-21.5 73q0 28 11.5 52.5t37 43t65.5 29
t96 10.5q30 0 55 -8.5t43 -19.5q21 -12 38 -27q8 11 17.5 19.5t17.5 14.5q10 6 20 11h25v-170h-40q-15 43 -37 77q-19 29 -48 53.5t-71 24.5q-26 0 -45.5 -20t-19.5 -50t21.5 -52t53.5 -41t70 -37t70 -40.5t53.5 -51t21.5 -68.5q0 -32 -12 -58.5t-39 -46t-71 -30t-108 -10.5
zM267 730l145 -165h-35l-110 70l-110 -70h-35z" />
    <glyph glyph-name="scommaaccent" unicode="&#x219;" horiz-adv-x="540" 
d="M45 0zM275 -15q-36 0 -63.5 8t-47.5 19q-23 12 -39 28q-8 -11 -17.5 -20t-17.5 -14q-10 -7 -20 -11h-25v170h40q14 -44 38 -78q20 -29 52 -53t80 -24q42 0 63.5 21t21.5 59q0 28 -21.5 48t-53.5 38t-70 36.5t-70 41.5t-53.5 53t-21.5 73q0 28 11.5 52.5t37 43t65.5 29
t96 10.5q30 0 55 -8.5t43 -19.5q21 -12 38 -27q8 11 17.5 19.5t17.5 14.5q10 6 20 11h25v-170h-40q-15 43 -37 77q-19 29 -48 53.5t-71 24.5q-26 0 -45.5 -20t-19.5 -50t21.5 -52t53.5 -41t70 -37t70 -40.5t53.5 -51t21.5 -68.5q0 -32 -12 -58.5t-39 -46t-71 -30t-108 -10.5
zM235 -284q20 8 37 22q14 12 28 32.5t20 50.5q-5 -4 -11 -8q-12 -7 -29 -7q-30 0 -50 20t-20 50t20 50t50 20q34 0 54.5 -21.5t20.5 -63.5q0 -49 -17.5 -80.5t-37.5 -50.5q-25 -22 -55 -34z" />
    <glyph glyph-name="scedilla" unicode="&#x15f;" horiz-adv-x="540" 
d="M243 -13q-29 4 -51 12.5t-37 17.5q-18 11 -30 23q-8 -11 -17.5 -20t-17.5 -14q-10 -7 -20 -11h-25v170h40q14 -44 38 -78q20 -29 52 -53t80 -24q42 0 63.5 21t21.5 59q0 28 -21.5 48t-53.5 38t-70 36.5t-70 41.5t-53.5 53t-21.5 73q0 28 11.5 52.5t37 43t65.5 29t96 10.5
q30 0 55 -8.5t43 -19.5q21 -12 38 -27q8 11 17.5 19.5t17.5 14.5q10 6 20 11h25v-170h-40q-15 43 -37 77q-19 29 -48 53.5t-71 24.5q-26 0 -45.5 -20t-19.5 -50t21.5 -52t53.5 -41t70 -37t70 -40.5t53.5 -51t21.5 -68.5q0 -32 -12 -58.5t-39 -46t-70 -30t-106 -10.5v-35
q45 0 70 -22.5t25 -52.5t-26 -52.5t-79 -22.5q-11 0 -21 0.5t-18 1.5q-9 1 -17 3v30q4 -3 10 -5q10 -5 26 -5q23 0 36.5 13.5t13.5 36.5t-14.5 36.5t-40.5 13.5v62z" />
    <glyph glyph-name="tcaron" unicode="&#x165;" horiz-adv-x="545" 
d="M15 0zM85 550q0 90 90 90h70v-140h140v-25h-140v-305q0 -49 5.5 -80t15 -49t23.5 -24.5t31 -6.5t33 8.5t29 25t20.5 40.5t7.5 56h25q0 -75 -37.5 -115t-97.5 -40q-51 0 -90.5 14t-67.5 39t-42.5 59t-14.5 73v305h-70v25h70v50zM410 410q20 8 37 22q14 12 28 32.5t20 50.5
q-5 -4 -11 -8q-12 -7 -29 -7q-30 0 -50 20t-20 50t20 50t50 20q34 0 54.5 -21.5t20.5 -63.5q0 -49 -17.5 -80.5t-37.5 -50.5q-25 -22 -55 -34z" />
    <glyph glyph-name="tcommaaccent" unicode="&#x163;" horiz-adv-x="450" 
d="M15 0zM85 550q0 90 90 90h70v-140h140v-25h-140v-305q0 -49 5.5 -80t15 -49t23.5 -24.5t31 -6.5t33 8.5t29 25t20.5 40.5t7.5 56h25q0 -75 -37.5 -115t-97.5 -40q-51 0 -90.5 14t-67.5 39t-42.5 59t-14.5 73v305h-70v25h70v50zM225 -289q20 8 37 22q14 12 28 32.5
t20 50.5q-5 -4 -11 -8q-12 -7 -29 -7q-30 0 -50 20t-20 50t20 50t50 20q34 0 54.5 -21.5t20.5 -63.5q0 -49 -17.5 -80.5t-37.5 -50.5q-25 -22 -55 -34z" />
    <glyph glyph-name="uacute" unicode="&#xfa;" horiz-adv-x="650" 
d="M25 0zM155 500q90 0 90 -90v-260q0 -34 7 -58.5t17.5 -40.5t24 -23.5t26.5 -7.5q23 0 39.5 12.5t27.5 27.5q13 18 23 40v370l-60 15v15h280v-15l-60 -15v-475h-10q-44 0 -70.5 12.5t-40.5 27.5q-17 18 -24 40q-13 -26 -33 -45q-17 -17 -45 -31t-67 -14q-43 0 -79 14
t-61.5 37t-40 52.5t-14.5 61.5v320l-60 15v15h130zM465 700l-135 -150h-35l40 150h130z" />
    <glyph glyph-name="ubreve" unicode="&#x16d;" horiz-adv-x="650" 
d="M25 0zM155 500q90 0 90 -90v-260q0 -34 7 -58.5t17.5 -40.5t24 -23.5t26.5 -7.5q23 0 39.5 12.5t27.5 27.5q13 18 23 40v370l-60 15v15h280v-15l-60 -15v-475h-10q-44 0 -70.5 12.5t-40.5 27.5q-17 18 -24 40q-13 -26 -33 -45q-17 -17 -45 -31t-67 -14q-43 0 -79 14
t-61.5 37t-40 52.5t-14.5 61.5v320l-60 15v15h130zM320 590q26 0 40.5 5.5t14.5 4.5v110l12 2q5 1 11 2t12 1q26 0 43 -17t17 -43q0 -34 -34 -59.5t-116 -25.5q-41 0 -69.5 7t-46.5 18.5t-26 27t-8 32.5q0 26 17 43t43 17q5 0 11.5 -1t11.5 -2l12 -2v-110q0 1 14.5 -4.5
t40.5 -5.5z" />
    <glyph glyph-name="ucircumflex" unicode="&#xfb;" horiz-adv-x="650" 
d="M25 0zM155 500q90 0 90 -90v-260q0 -34 7 -58.5t17.5 -40.5t24 -23.5t26.5 -7.5q23 0 39.5 12.5t27.5 27.5q13 18 23 40v370l-60 15v15h280v-15l-60 -15v-475h-10q-44 0 -70.5 12.5t-40.5 27.5q-17 18 -24 40q-13 -26 -33 -45q-17 -17 -45 -31t-67 -14q-43 0 -79 14
t-61.5 37t-40 52.5t-14.5 61.5v320l-60 15v15h130zM330 730l145 -165h-35l-110 70l-110 -70h-35z" />
    <glyph glyph-name="udieresis" unicode="&#xfc;" horiz-adv-x="650" 
d="M25 0zM155 500q90 0 90 -90v-260q0 -34 7 -58.5t17.5 -40.5t24 -23.5t26.5 -7.5q23 0 39.5 12.5t27.5 27.5q13 18 23 40v370l-60 15v15h280v-15l-60 -15v-475h-10q-44 0 -70.5 12.5t-40.5 27.5q-17 18 -24 40q-13 -26 -33 -45q-17 -17 -45 -31t-67 -14q-43 0 -79 14
t-61.5 37t-40 52.5t-14.5 61.5v320l-60 15v15h130zM167 645q0 30 20 50t50 20t50 -20t20 -50t-20 -50t-50 -20t-50 20t-20 50zM352 645q0 30 20 50t50 20t50 -20t20 -50t-20 -50t-50 -20t-50 20t-20 50z" />
    <glyph glyph-name="uhungarumlaut" unicode="&#x171;" horiz-adv-x="650" 
d="M25 0zM155 500q90 0 90 -90v-260q0 -34 7 -58.5t17.5 -40.5t24 -23.5t26.5 -7.5q23 0 39.5 12.5t27.5 27.5q13 18 23 40v370l-60 15v15h280v-15l-60 -15v-475h-10q-44 0 -70.5 12.5t-40.5 27.5q-17 18 -24 40q-13 -26 -33 -45q-17 -17 -45 -31t-67 -14q-43 0 -79 14
t-61.5 37t-40 52.5t-14.5 61.5v320l-60 15v15h130zM357 710l-110 -150h-35l45 150h100zM487 710l-110 -150h-35l45 150h100z" />
    <glyph glyph-name="ugrave" unicode="&#xf9;" horiz-adv-x="650" 
d="M25 0zM155 500q90 0 90 -90v-260q0 -34 7 -58.5t17.5 -40.5t24 -23.5t26.5 -7.5q23 0 39.5 12.5t27.5 27.5q13 18 23 40v370l-60 15v15h280v-15l-60 -15v-475h-10q-44 0 -70.5 12.5t-40.5 27.5q-17 18 -24 40q-13 -26 -33 -45q-17 -17 -45 -31t-67 -14q-43 0 -79 14
t-61.5 37t-40 52.5t-14.5 61.5v320l-60 15v15h130zM305 710l40 -150h-35l-135 150h130z" />
    <glyph glyph-name="umacron" unicode="&#x16b;" horiz-adv-x="650" 
d="M25 0zM155 500q90 0 90 -90v-260q0 -34 7 -58.5t17.5 -40.5t24 -23.5t26.5 -7.5q23 0 39.5 12.5t27.5 27.5q13 18 23 40v370l-60 15v15h280v-15l-60 -15v-475h-10q-44 0 -70.5 12.5t-40.5 27.5q-17 18 -24 40q-13 -26 -33 -45q-17 -17 -45 -31t-67 -14q-43 0 -79 14
t-61.5 37t-40 52.5t-14.5 61.5v320l-60 15v15h130zM190 601v45h260v-45h-260z" />
    <glyph glyph-name="uogonek" unicode="&#x173;" horiz-adv-x="650" 
d="M155 500q90 0 90 -90v-260q0 -34 7 -58.5t17.5 -40.5t24 -23.5t26.5 -7.5q23 0 39.5 12.5t27.5 27.5q13 18 23 40v370l-60 15v15h280v-15l-60 -15v-470q-27 -13 -48 -31q-18 -16 -32.5 -39t-14.5 -55q0 -40 40 -40q9 0 17.5 3t14.5 7q7 4 13 10v-30q-8 -4 -18 -8
q-19 -7 -47 -7q-53 0 -79 22.5t-26 52.5q0 28 16.5 49t38 35.5t43 22.5t31.5 11q-30 5 -48 17.5t-29 24.5q-12 14 -17 30q-13 -26 -33 -45q-17 -17 -45 -31t-67 -14q-43 0 -79 14t-61.5 37t-40 52.5t-14.5 61.5v320l-60 15v15h130z" />
    <glyph glyph-name="uring" unicode="&#x16f;" horiz-adv-x="650" 
d="M25 0zM155 500q90 0 90 -90v-260q0 -34 7 -58.5t17.5 -40.5t24 -23.5t26.5 -7.5q23 0 39.5 12.5t27.5 27.5q13 18 23 40v370l-60 15v15h280v-15l-60 -15v-475h-10q-44 0 -70.5 12.5t-40.5 27.5q-17 18 -24 40q-13 -26 -33 -45q-17 -17 -45 -31t-67 -14q-43 0 -79 14
t-61.5 37t-40 52.5t-14.5 61.5v320l-60 15v15h130zM425 655q0 -21 -8 -39t-22 -31.5t-33.5 -21.5t-41.5 -8q-23 0 -42 8t-33 21.5t-22 31.5t-8 39t8 39t22 31.5t33 21.5t42 8q22 0 41.5 -8t33.5 -21.5t22 -31.5t8 -39zM375 655q0 30 -16 47.5t-39 17.5t-39 -17.5t-16 -47.5
t16 -47.5t39 -17.5t39 17.5t16 47.5z" />
    <glyph glyph-name="utilde" unicode="&#x169;" horiz-adv-x="650" 
d="M25 0zM155 500q90 0 90 -90v-260q0 -34 7 -58.5t17.5 -40.5t24 -23.5t26.5 -7.5q23 0 39.5 12.5t27.5 27.5q13 18 23 40v370l-60 15v15h280v-15l-60 -15v-475h-10q-44 0 -70.5 12.5t-40.5 27.5q-17 18 -24 40q-13 -26 -33 -45q-17 -17 -45 -31t-67 -14q-43 0 -79 14
t-61.5 37t-40 52.5t-14.5 61.5v320l-60 15v15h130zM377 576q-23 0 -38.5 8t-29 17l-25.5 17t-27 8q-19 0 -32 -13t-13 -32h-20q0 60 24 87.5t66 27.5q22 0 38 -8t29.5 -17l25.5 -17t27 -8q19 0 32 13t13 32h20q0 -60 -24 -87.5t-66 -27.5z" />
    <glyph glyph-name="wacute" unicode="&#x1e83;" horiz-adv-x="835" 
d="M0 0zM30 470l-50 15v15h115q56 0 86.5 -24t48.5 -61l110 -230l57 146l-67 139l-50 15v15h115q56 0 86.5 -24t48.5 -61l110 -230l105 270l-75 30v15h185v-15l-80 -30l-185 -465h-30l-148 308l-122 -308h-30zM547 710l-135 -150h-35l40 150h130z" />
    <glyph glyph-name="wcircumflex" unicode="&#x175;" horiz-adv-x="835" 
d="M0 0zM30 470l-50 15v15h115q56 0 86.5 -24t48.5 -61l110 -230l57 146l-67 139l-50 15v15h115q56 0 86.5 -24t48.5 -61l110 -230l105 270l-75 30v15h185v-15l-80 -30l-185 -465h-30l-148 308l-122 -308h-30zM412 730l145 -165h-35l-110 70l-110 -70h-35z" />
    <glyph glyph-name="wdieresis" unicode="&#x1e85;" horiz-adv-x="835" 
d="M0 0zM30 470l-50 15v15h115q56 0 86.5 -24t48.5 -61l110 -230l57 146l-67 139l-50 15v15h115q56 0 86.5 -24t48.5 -61l110 -230l105 270l-75 30v15h185v-15l-80 -30l-185 -465h-30l-148 308l-122 -308h-30zM250 645q0 30 20 50t50 20t50 -20t20 -50t-20 -50t-50 -20
t-50 20t-20 50zM435 645q0 30 20 50t50 20t50 -20t20 -50t-20 -50t-50 -20t-50 20t-20 50z" />
    <glyph glyph-name="wgrave" unicode="&#x1e81;" horiz-adv-x="835" 
d="M0 0zM30 470l-50 15v15h115q56 0 86.5 -24t48.5 -61l110 -230l57 146l-67 139l-50 15v15h115q56 0 86.5 -24t48.5 -61l110 -230l105 270l-75 30v15h185v-15l-80 -30l-185 -465h-30l-148 308l-122 -308h-30zM387 710l40 -150h-35l-135 150h130z" />
    <glyph glyph-name="yacute" unicode="&#xfd;" 
d="M0 0zM470 455l-75 30v15h185v-15l-80 -30l-200 -515q-32 -83 -68.5 -119t-81.5 -36t-70 24t-25 66q0 38 20.5 59t54.5 21q8 0 14.5 -1l12.5 -2t13 -2v-135q13 2 25.5 9t24.5 21.5t24 37.5t26 57l20 50l-260 480l-50 15v15h125q28 0 49 -6.5t36.5 -17.5t27.5 -26.5
t22 -34.5l125 -231zM447 700l-135 -150h-35l40 150h130z" />
    <glyph glyph-name="ycircumflex" unicode="&#x177;" 
d="M0 0zM470 455l-75 30v15h185v-15l-80 -30l-200 -515q-32 -83 -68.5 -119t-81.5 -36t-70 24t-25 66q0 38 20.5 59t54.5 21q8 0 14.5 -1l12.5 -2t13 -2v-135q13 2 25.5 9t24.5 21.5t24 37.5t26 57l20 50l-260 480l-50 15v15h125q28 0 49 -6.5t36.5 -17.5t27.5 -26.5
t22 -34.5l125 -231zM307 725l145 -165h-35l-110 70l-110 -70h-35z" />
    <glyph glyph-name="ydieresis" unicode="&#xff;" 
d="M0 0zM470 455l-75 30v15h185v-15l-80 -30l-200 -515q-32 -83 -68.5 -119t-81.5 -36t-70 24t-25 66q0 38 20.5 59t54.5 21q8 0 14.5 -1l12.5 -2t13 -2v-135q13 2 25.5 9t24.5 21.5t24 37.5t26 57l20 50l-260 480l-50 15v15h125q28 0 49 -6.5t36.5 -17.5t27.5 -26.5
t22 -34.5l125 -231zM145 645q0 30 20 50t50 20t50 -20t20 -50t-20 -50t-50 -20t-50 20t-20 50zM330 645q0 30 20 50t50 20t50 -20t20 -50t-20 -50t-50 -20t-50 20t-20 50z" />
    <glyph glyph-name="ygrave" unicode="&#x1ef3;" 
d="M0 0zM470 455l-75 30v15h185v-15l-80 -30l-200 -515q-32 -83 -68.5 -119t-81.5 -36t-70 24t-25 66q0 38 20.5 59t54.5 21q8 0 14.5 -1l12.5 -2t13 -2v-135q13 2 25.5 9t24.5 21.5t24 37.5t26 57l20 50l-260 480l-50 15v15h125q28 0 49 -6.5t36.5 -17.5t27.5 -26.5
t22 -34.5l125 -231zM297 700l40 -150h-35l-135 150h130z" />
    <glyph glyph-name="zacute" unicode="&#x17a;" horiz-adv-x="545" 
d="M40 0zM145 475q0 -36 -10.5 -63.5t-22.5 -47.5q-14 -23 -32 -39h-30v175h455v-25l-285 -450h190q0 35 10 63t22 48q14 23 33 39h30v-175h-465v25l285 450h-180zM412 710l-135 -150h-35l40 150h130z" />
    <glyph glyph-name="zdotaccent" unicode="&#x17c;" horiz-adv-x="545" 
d="M40 0zM145 475q0 -36 -10.5 -63.5t-22.5 -47.5q-14 -23 -32 -39h-30v175h455v-25l-285 -450h190q0 35 10 63t22 48q14 23 33 39h30v-175h-465v25l285 450h-180zM207 640q0 30 20 50t50 20t50 -20t20 -50t-20 -50t-50 -20t-50 20t-20 50z" />
    <glyph glyph-name="kcommaaccent" unicode="&#x137;" horiz-adv-x="600" 
d="M40 0zM170 700q90 0 90 -90v-350l185 195l-75 30v15h190v-15l-80 -30l-115 -120l195 -305l50 -15v-15h-130q-26 0 -46 6t-36 17.5t-28.5 27t-24.5 34.5l-85 135v-190l60 -15v-15h-280v15l60 15v640l-60 15v15h130zM285 -274q20 8 37 22q14 12 28 32.5t20 50.5
q-5 -4 -11 -8q-12 -7 -29 -7q-30 0 -50 20t-20 50t20 50t50 20q34 0 54.5 -21.5t20.5 -63.5q0 -49 -17.5 -80.5t-37.5 -50.5q-25 -22 -55 -34z" />
    <glyph glyph-name="Eth" unicode="&#xd0;" horiz-adv-x="715" 
d="M115 370v300l-60 15v15h255q180 0 275 -92.5t95 -257.5t-95 -257.5t-275 -92.5h-255v15l60 15v310h-65v30h65zM280 675v-305h120v-30h-120v-315h30q43 0 79 16.5t61.5 54.5t40 100t14.5 154t-14.5 154t-40 100t-61.5 54.5t-79 16.5h-30z" />
    <glyph glyph-name="florin" unicode="&#x192;" horiz-adv-x="450" 
d="M140 455h-70l5 25h70l10 50q8 39 26.5 73t48.5 59t71 39t94 14q75 0 110 -28.5t35 -66.5q0 -42 -23.5 -66t-61.5 -24q-8 0 -15.5 0.5t-12.5 1.5q-7 1 -12 3l25 155q-4 1 -9 2l-10.5 2t-10.5 1q-13 0 -26 -7.5t-25 -26.5t-23 -50.5t-21 -80.5l-10 -50h160l-5 -25h-160
l-75 -485q-6 -39 -23.5 -73t-46.5 -59t-69 -39t-91 -14q-57 0 -91 36.5t-34 108.5h25q0 -64 23 -92t57 -28q13 0 26 7.5t25 25.5t22 49t17 78z" />
    <glyph glyph-name="afii10017" unicode="&#x410;" horiz-adv-x="680" 
d="M165 15v-15h-185v15l80 30l275 665h30l285 -680l50 -15v-15h-120q-56 0 -88 25.5t-46 59.5l-51 120h-239l-66 -160zM166 230h219l-110 263z" />
    <glyph glyph-name="afii10019" unicode="&#x412;" horiz-adv-x="680" 
d="M395 365q71 -3 127 -22q24 -8 47 -21t41 -31.5t29 -43t11 -57.5q0 -41 -16 -76t-52.5 -60.5t-96 -39.5t-145.5 -14h-290v15l60 15v640l-60 15v15h270q81 0 137 -14t91 -38t51 -55.5t16 -67.5q0 -29 -9.5 -51.5t-25 -39t-35 -27.5t-40.5 -18q-48 -17 -110 -19v-5zM275 355
v-330h65q60 0 100 43t40 122t-40 122t-100 43h-65zM275 380h45q24 0 47 10.5t40 30t27.5 46t10.5 58.5q0 34 -10.5 61.5t-27.5 47t-40 30.5t-47 11h-45v-295z" />
    <glyph glyph-name="afii10035" unicode="&#x421;" horiz-adv-x="650" 
d="M361 715q35 0 64.5 -10.5t50.5 -22.5q25 -14 44 -32q8 13 17.5 23.5t17.5 17.5q10 8 20 14h25v-190h-40q-14 48 -39 87q-21 33 -56 60.5t-85 27.5q-30 0 -59 -16.5t-51.5 -56t-36 -105t-13.5 -162.5q0 -98 14 -163t39 -104.5t59 -56t73 -16.5q36 0 69 15.5t59 42
t41.5 60.5t15.5 72h25q0 -43 -17.5 -82t-48.5 -68.5t-73 -47t-91 -17.5q-79 0 -142 24t-107 70.5t-67.5 114.5t-23.5 156t23 156t65 114.5t100 70.5t128 24z" />
    <glyph glyph-name="afii10022" unicode="&#x415;" horiz-adv-x="645" 
d="M390 360q4 20 11 38.5t15 32.5q9 16 19 29h30v-225h-30q-10 13 -19 29q-8 14 -15 32t-11 39h-115v-310h235q0 39 10 68t22 49q14 23 33 38h30v-180h-555v15l60 15v640l-60 15v15h535v-180h-30q-19 15 -33 38q-12 20 -22 48.5t-10 68.5h-215v-315h115z" />
    <glyph glyph-name="afii10020" unicode="&#x413;" horiz-adv-x="610" 
d="M50 0v15l60 15v640l-60 15v15h535v-180h-30q-19 15 -33 38q-12 20 -22 48.5t-10 68.5h-215v-645l60 -15v-15h-285z" />
    <glyph glyph-name="afii10030" unicode="&#x41c;" horiz-adv-x="985" 
d="M935 700v-15l-60 -15v-640l60 -15v-15h-285v15l60 15v545l-235 -585h-30l-305 585v-530l80 -30v-15h-190v15l80 30v625l-70 15v15h135q28 0 49 -6.5t37 -17.5t27.5 -26.5t21.5 -34.5l218 -417l167 417q8 21 18.5 36.5t25.5 26.5t37 16.5t54 5.5h105z" />
    <glyph glyph-name="afii10031" unicode="&#x41d;" horiz-adv-x="765" 
d="M50 685v15h285v-15l-60 -15v-310h215v310l-60 15v15h285v-15l-60 -15v-640l60 -15v-15h-285v15l60 15v305h-215v-305l60 -15v-15h-285v15l60 15v640z" />
    <glyph glyph-name="afii10032" unicode="&#x41e;" horiz-adv-x="740" 
d="M520 350q0 99 -13.5 165.5t-35 106.5t-48.5 56.5t-53 16.5t-53 -16.5t-48.5 -56.5t-35 -106.5t-13.5 -165.5t13.5 -165.5t35 -106.5t48.5 -56.5t53 -16.5t53 16.5t48.5 56.5t35 106.5t13.5 165.5zM695 350q0 -88 -23.5 -156t-66 -114.5t-102.5 -70.5t-133 -24t-133 24
t-102.5 70.5t-66 114.5t-23.5 156t23.5 156t66 114.5t102.5 70.5t133 24t133 -24t102.5 -70.5t66 -114.5t23.5 -156z" />
    <glyph glyph-name="afii10034" unicode="&#x420;" horiz-adv-x="675" 
d="M330 295q30 0 55.5 11.5t44.5 35t29.5 59t10.5 84.5q0 97 -40 143.5t-100 46.5h-55v-380h55zM275 270v-240l60 -15v-15h-285v15l60 15v640l-60 15v15h280q86 0 145.5 -14.5t96 -42.5t52.5 -67.5t16 -90.5t-16 -90.5t-52.5 -67.5t-96 -42.5t-145.5 -14.5h-55z" />
    <glyph glyph-name="afii10036" unicode="&#x422;" horiz-adv-x="635" 
d="M175 0v15l60 15v645h-115q0 -40 -10.5 -68.5t-22.5 -48.5q-14 -23 -32 -38h-30v180h585v-180h-30q-19 15 -33 38q-12 20 -22 48.5t-10 68.5h-115v-645l60 -15v-15h-285z" />
    <glyph glyph-name="afii10039" unicode="&#x425;" horiz-adv-x="665" 
d="M265 296l-220 374l-50 15v15h145q53 0 82.5 -23.5t52.5 -61.5l96 -164l139 204l-75 30v15h190v-15l-80 -30l-157 -231l232 -394l50 -15v-15h-145q-53 0 -82.5 23.5t-52.5 61.5l-108 183l-152 -223l75 -30v-15h-190v15l80 30z" />
    <glyph glyph-name="afii10065" unicode="&#x430;" horiz-adv-x="605" 
d="M235 235q-6 -13 -10 -30q-4 -14 -7 -33t-3 -42q0 -60 18.5 -85t41.5 -25t39.5 12.5t27.5 27.5q13 18 23 40v145q-23 0 -46 -1.5t-42 -3.5q-22 -3 -42 -5zM275 515q60 0 106.5 -16t78.5 -44.5t48.5 -68t16.5 -86.5v-270l60 -15v-15h-90q-36 0 -58 11.5t-35 25.5
q-15 17 -22 38q-13 -26 -33 -45q-17 -17 -45 -31t-67 -14q-47 0 -81.5 10.5t-57.5 29t-34.5 43t-11.5 52.5q0 23 5 42.5t12 34.5q8 18 18 33q42 10 89 18q40 7 90 13.5t101 8.5v30q0 58 -7.5 96t-21.5 60t-34.5 30.5t-46.5 8.5q-11 0 -20 -1.5t-16 -3.5q-8 -3 -14 -5v-150
q-7 -2 -13 -3t-12.5 -1.5t-14.5 -0.5q-34 0 -54.5 20.5t-20.5 54.5q0 21 10.5 40.5t33 35t57.5 25t84 9.5z" />
    <glyph glyph-name="afii10070" unicode="&#x435;" 
d="M210 250q34 0 60 1.5t44 3.5q21 2 36 5q2 10 5 22q2 11 3.5 24.5t1.5 28.5q0 45 -7 75.5t-17.5 49.5t-24 27t-26.5 8t-26.5 -9.5t-24 -36t-17.5 -74.5t-7 -125zM310 -15q-128 0 -199 70.5t-71 194.5q0 62 18 111t50 83.5t77.5 52.5t99.5 18q56 0 100.5 -16t75.5 -43
t47.5 -63.5t16.5 -77.5q0 -14 -1.5 -24.5t-3.5 -18.5l-5 -17q-44 -9 -93 -15q-42 -6 -97 -10.5t-115 -4.5q0 -62 9 -103.5t25 -66t38 -35t48 -10.5q30 0 56.5 11t46 29.5t31 42t11.5 47.5h25q0 -30 -13.5 -58t-38.5 -49.5t-60 -34.5t-78 -13z" />
    <glyph glyph-name="afii10080" unicode="&#x43e;" horiz-adv-x="610" 
d="M305 5q17 0 34 11t30.5 38.5t22 75t8.5 120.5t-8.5 120.5t-22 75t-30.5 38.5t-34 11t-34 -11t-30.5 -38.5t-22 -75t-8.5 -120.5t8.5 -120.5t22 -75t30.5 -38.5t34 -11zM305 515q62 0 111 -18t83.5 -52.5t52.5 -83.5t18 -111t-18 -111t-52.5 -83.5t-83.5 -52.5t-111 -18
t-111 18t-83.5 52.5t-52.5 83.5t-18 111t18 111t52.5 83.5t83.5 52.5t111 18z" />
    <glyph glyph-name="afii10082" unicode="&#x440;" horiz-adv-x="625" 
d="M250 55q10 -11 22 -20q11 -8 24.5 -14t28.5 -6q19 0 35.5 9.5t28.5 35t19 71.5t7 119q0 71 -7 116t-17.5 70.5t-24 34.5t-26.5 9q-23 0 -40 -12.5t-28 -27.5q-13 -18 -22 -40v-345zM90 470l-60 15v15h90q35 0 57.5 -12t35.5 -26q15 -17 22 -37q13 25 33 45q17 17 44.5 31
t67.5 14q43 0 80.5 -17t65 -50t43.5 -82.5t16 -115.5t-16 -115.5t-45 -82.5t-69.5 -50t-89.5 -17q-26 0 -47.5 6t-36.5 14q-18 9 -31 20v-195l60 -15v-15h-280v15l60 15v640z" />
    <glyph glyph-name="afii10083" unicode="&#x441;" horiz-adv-x="530" 
d="M330 495q-26 0 -48 -11t-38 -38.5t-25 -75t-9 -120.5q0 -71 9 -117.5t25 -73.5t38 -38t48 -11q30 0 56.5 11t46 29.5t31 42t11.5 47.5h25q0 -30 -13.5 -58t-38.5 -49.5t-60 -34.5t-78 -13q-128 0 -199 70.5t-71 194.5t71 194.5t199 70.5q49 0 84 -9.5t57.5 -25t33 -35
t10.5 -40.5q0 -34 -20.5 -54.5t-54.5 -20.5q-8 0 -15.5 0.5t-12.5 1.5q-7 1 -12 3v150q-6 2 -14 5q-7 2 -16 3.5t-20 1.5z" />
    <glyph glyph-name="afii10018" unicode="&#x411;" horiz-adv-x="670" 
d="M330 410q86 0 145.5 -14.5t96 -41t52.5 -64.5t16 -85t-16 -85t-52.5 -64.5t-96 -41t-145.5 -14.5h-280v15l60 15v640l-60 15v15h530v-180h-30q-19 15 -33 38q-12 20 -22 48.5t-10 68.5h-210v-265h55zM275 385v-360h55q60 0 100 45t40 135t-40 135t-100 45h-55z" />
    <glyph glyph-name="afii10033" unicode="&#x41f;" horiz-adv-x="765" 
d="M50 685v15h665v-15l-60 -15v-640l60 -15v-15h-285v15l60 15v645h-215v-645l60 -15v-15h-285v15l60 15v640z" />
    <glyph glyph-name="afii10079" unicode="&#x43d;" horiz-adv-x="670" 
d="M350 485v15h280v-15l-60 -15v-440l60 -15v-15h-280v15l60 15v210h-150v-210l60 -15v-15h-280v15l60 15v440l-60 15v15h280v-15l-60 -15v-205h150v205z" />
    <glyph glyph-name="afii10081" unicode="&#x43f;" horiz-adv-x="670" 
d="M40 500h590v-15l-60 -15v-440l60 -15v-15h-280v15l60 15v445h-150v-445l60 -15v-15h-280v15l60 15v440l-60 15v15z" />
    <glyph glyph-name="afii10084" unicode="&#x442;" horiz-adv-x="550" 
d="M355 475v-445l60 -15v-15h-280v15l60 15v445h-75q0 -36 -10.5 -63.5t-22.5 -47.5q-14 -23 -32 -39h-30v175h500v-175h-30q-19 16 -33 39q-12 20 -22 47.5t-10 63.5h-75z" />
    <glyph glyph-name="afii10028" unicode="&#x41a;" horiz-adv-x="710" 
d="M415 380q71 0 105 -25.5t45 -59.5l90 -265l50 -15v-15h-120q-56 0 -84 23.5t-41 61.5l-95 275h-90v-330l60 -15v-15h-285v15l60 15v640l-60 15v15h285v-15l-60 -15v-285h50q38 0 63 25t37 70l35 130q12 45 39.5 72.5t65.5 27.5q45 0 72.5 -26t27.5 -64t-23 -61.5
t-57 -23.5q-8 0 -15.5 0.5t-12.5 1.5q-7 1 -12 3v140q-16 -4 -31.5 -22t-23.5 -48l-35 -130q-8 -30 -18.5 -49.5t-21.5 -30.5q-12 -13 -25 -20h25z" />
    <glyph glyph-name="afii10024" unicode="&#x416;" horiz-adv-x="1025" 
d="M319 380q-1 0 -8 5t-17 16t-20.5 30.5t-18.5 48.5l-35 130q-8 30 -23.5 48t-31.5 22v-140q-7 -2 -13 -3t-12.5 -1.5t-14.5 -0.5q-34 0 -57 23.5t-23 61.5t27.5 64t72.5 26q38 0 65.5 -27.5t39.5 -72.5l35 -130q12 -45 37 -70t63 -25h45v285l-60 15v15h285v-15l-60 -15
v-285h45q38 0 63 25t37 70l35 130q12 45 39.5 72.5t65.5 27.5q45 0 72.5 -26t27.5 -64t-23 -61.5t-57 -23.5q-8 0 -15.5 0.5t-12.5 1.5q-7 1 -12 3v140q-16 -4 -31.5 -22t-23.5 -48l-35 -130q-8 -30 -18.5 -49.5t-21.5 -30.5q-12 -13 -25 -20h25q71 0 105 -25.5t45 -59.5
l90 -265l50 -15v-15h-120q-56 0 -84 23.5t-41 61.5l-95 275h-85v-330l60 -15v-15h-285v15l60 15v330h-85l-95 -275q-13 -38 -41 -61.5t-84 -23.5h-120v15l50 15l90 265q11 34 45 59.5t105 25.5h24z" />
    <glyph glyph-name="afii10026" unicode="&#x418;" horiz-adv-x="785" 
d="M50 685v15h285v-15l-60 -15v-505l235 430v75l-60 15v15h285v-15l-60 -15v-640l60 -15v-15h-285v15l60 15v505l-235 -430v-75l60 -15v-15h-285v15l60 15v640z" />
    <glyph glyph-name="afii10027" unicode="&#x419;" horiz-adv-x="785" 
d="M390 790q26 0 40.5 5.5t14.5 4.5v110l12 2q5 1 11 2t12 1q26 0 43 -17t17 -43q0 -34 -34 -59.5t-116 -25.5q-41 0 -69.5 7t-46.5 18.5t-26 27t-8 32.5q0 26 17 43t43 17q5 0 11.5 -1t11.5 -2l12 -2v-110q0 1 14.5 -4.5t40.5 -5.5zM50 685v15h285v-15l-60 -15v-505
l235 430v75l-60 15v15h285v-15l-60 -15v-640l60 -15v-15h-285v15l60 15v505l-235 -430v-75l60 -15v-15h-285v15l60 15v640z" />
    <glyph glyph-name="afii10021" unicode="&#x414;" horiz-adv-x="700" 
d="M205 250q-3 -60 -19 -103t-34 -70q-21 -32 -47 -52h320v650h-200zM70 25q27 20 49 52q19 27 36 70t20 103l20 415l-70 20v15h525v-15l-60 -15v-645h95v-195h-30q-25 18 -43 44q-16 22 -29 53t-13 73h-465q0 -42 -13.5 -73t-29.5 -53q-18 -26 -42 -44h-30v195h80z" />
    <glyph glyph-name="afii10025" unicode="&#x417;" horiz-adv-x="615" 
d="M335 365q70 -3 125 -23q23 -9 45.5 -22.5t40 -33t28.5 -46t11 -60.5q0 -39 -17.5 -74.5t-55 -62.5t-96.5 -42.5t-141 -15.5q-56 0 -102 17.5t-79 47t-51 68.5t-18 82h25q0 -38 16 -72t43.5 -60.5t65 -42t80.5 -15.5q75 0 117.5 43.5t42.5 126.5q0 87 -40 131t-100 44h-75
v25h65q53 0 86.5 38t33.5 117t-33 117t-82 38q-24 0 -44.5 -7.5t-37.5 -20t-30.5 -28.5t-23.5 -32q-25 -39 -39 -87h-40v190h25q10 -6 20 -14q8 -7 17.5 -17.5t17.5 -23.5q19 18 44 32q20 12 48.5 22.5t62.5 10.5q66 0 115.5 -15.5t82.5 -41t50 -57.5t17 -66
q0 -31 -9.5 -54.5t-25 -41t-35 -29t-40.5 -19.5q-48 -18 -110 -21v-5z" />
    <glyph glyph-name="afii10040" unicode="&#x426;" horiz-adv-x="765" 
d="M50 0v15l60 15v640l-60 15v15h285v-15l-60 -15v-645h215v645l-60 15v15h285v-15l-60 -15v-645h95v-195h-30q-25 18 -43 44q-16 22 -29 53t-13 73h-585z" />
    <glyph glyph-name="afii10042" unicode="&#x428;" horiz-adv-x="1085" 
d="M110 30v640l-60 15v15h285v-15l-60 -15v-645h185v645l-60 15v15h285v-15l-60 -15v-645h185v645l-60 15v15h285v-15l-60 -15v-640l60 -15v-15h-985v15z" />
    <glyph glyph-name="afii10043" unicode="&#x429;" horiz-adv-x="1085" 
d="M975 25h95v-195h-30q-25 18 -43 44q-16 22 -29 53t-13 73h-905v15l60 15v640l-60 15v15h285v-15l-60 -15v-645h185v645l-60 15v15h285v-15l-60 -15v-645h185v645l-60 15v15h285v-15l-60 -15v-645z" />
    <glyph glyph-name="afii10049" unicode="&#x42f;" horiz-adv-x="705" 
d="M300 325q-65 2 -115 22q-22 8 -42.5 21t-36.5 32.5t-26 45t-10 59.5q0 43 16 79t53.5 61.5t99 40t151.5 14.5h265v-15l-60 -15v-640l60 -15v-15h-295v15l70 15v280h-70l-100 -225q-17 -38 -46 -61.5t-74 -23.5h-135v15l50 15l90 200q15 34 40.5 52.5t51.5 26.5
q30 10 63 11v5zM430 335v340h-40q-68 0 -109 -43.5t-41 -126.5t41 -126.5t109 -43.5h40z" />
    <glyph glyph-name="afii10047" unicode="&#x42d;" horiz-adv-x="650" 
d="M289 715q70 0 128 -24t100 -70.5t65 -114.5t23 -156t-23.5 -156t-67.5 -114.5t-107 -70.5t-142 -24q-49 0 -91 17.5t-73 47t-48.5 68.5t-17.5 82h25q0 -38 15.5 -72t41.5 -60.5t59 -42t69 -15.5q39 0 72.5 15.5t57.5 53t38.5 100t16.5 156.5h-130q-4 -21 -11 -39t-15 -32
q-9 -16 -19 -29h-30v225h30q10 -13 19 -29q8 -14 15 -32.5t11 -38.5h130q0 94 -14 157t-36.5 101.5t-51 55t-58.5 16.5q-51 0 -85.5 -27.5t-55.5 -60.5q-25 -39 -39 -87h-40v190h25q10 -6 20 -14q8 -7 17.5 -17.5t17.5 -23.5q19 18 44 32q21 12 50.5 22.5t64.5 10.5z" />
    <glyph glyph-name="afii10046" unicode="&#x42c;" horiz-adv-x="675" 
d="M340 420q86 0 145.5 -14.5t96 -41.5t52.5 -66t16 -88t-16 -88t-52.5 -66t-96 -41.5t-145.5 -14.5h-290v15l60 15v640l-60 15v15h285v-15l-60 -15v-250h65zM275 395v-370h65q60 0 100 45.5t40 139.5t-40 139.5t-100 45.5h-65z" />
    <glyph glyph-name="afii10045" unicode="&#x42b;" horiz-adv-x="1015" 
d="M680 685v15h285v-15l-60 -15v-640l60 -15v-15h-285v15l60 15v640zM340 420q86 0 145.5 -14.5t96 -41.5t52.5 -66t16 -88t-16 -88t-52.5 -66t-96 -41.5t-145.5 -14.5h-290v15l60 15v640l-60 15v15h285v-15l-60 -15v-250h65zM275 395v-370h65q60 0 100 45.5t40 139.5
t-40 139.5t-100 45.5h-65z" />
    <glyph glyph-name="afii10044" unicode="&#x42a;" horiz-adv-x="755" 
d="M120 675q0 -40 -10.5 -68.5t-22.5 -48.5q-14 -23 -32 -38h-30v180h400v-15l-60 -15v-250h55q86 0 145.5 -14.5t96 -41.5t52.5 -66t16 -88t-16 -88t-52.5 -66t-96 -41.5t-145.5 -14.5h-280v15l60 15v645h-80zM365 395v-370h55q60 0 100 45.5t40 139.5t-40 139.5t-100 45.5
h-55z" />
    <glyph glyph-name="afii10041" unicode="&#x427;" horiz-adv-x="725" 
d="M450 670l-60 15v15h285v-15l-60 -15v-640l60 -15v-15h-285v15l60 15v265q-16 -9 -35 -15q-17 -6 -41 -10.5t-54 -4.5q-64 0 -109.5 12.5t-74.5 35.5t-42.5 55.5t-13.5 71.5v230l-60 15v15h285v-15l-60 -15v-230q0 -83 29 -116.5t86 -33.5q19 0 35.5 4.5t28.5 10.5
q14 6 26 15v350z" />
    <glyph glyph-name="afii10048" unicode="&#x42e;" horiz-adv-x="1015" 
d="M665 715q66 0 121.5 -24t96.5 -70.5t64 -114.5t23 -156t-23 -156t-64 -114.5t-96.5 -70.5t-121.5 -24q-64 0 -119 23t-95.5 67.5t-64.5 110t-26 149.5h-85v-305l60 -15v-15h-285v15l60 15v640l-60 15v15h285v-15l-60 -15v-310h85q2 86 25 152.5t63.5 111.5t95.5 68
t121 23zM665 695q-23 0 -46 -15t-41.5 -54t-30.5 -106t-12 -170t12 -170t30.5 -106t41.5 -54t46 -15q22 0 45.5 15t42 54t30.5 106t12 170t-12 170t-30.5 106t-42 54t-45.5 15z" />
    <glyph glyph-name="afii10029" unicode="&#x41b;" horiz-adv-x="710" 
d="M90 -15q-45 0 -72.5 26t-27.5 64t23 61.5t57 23.5q8 0 14.5 -1l12.5 -2t13 -2v-140q13 4 26.5 15t25.5 37t21 70t12 113l20 415l-70 20v15h515v-15l-60 -15v-640l60 -15v-15h-285v15l60 15v645h-190l-20 -425q-4 -77 -16.5 -128t-30.5 -81.5t-41 -43t-47 -12.5z" />
    <glyph glyph-name="afii10038" unicode="&#x424;" horiz-adv-x="895" 
d="M365 85q-84 4 -148.5 27t-108 60t-66 85.5t-22.5 102.5t22.5 102.5t66 85.5t108 60t148.5 27v50l-60 15v15h285v-15l-60 -15v-50q84 -4 148.5 -27t108 -60t66 -85.5t22.5 -102.5t-22.5 -102.5t-66 -85.5t-108 -60t-148.5 -27v-55l60 -15v-15h-285v15l60 15v55zM530 105
q34 4 64.5 21t54 48.5t37.5 77.5t14 108t-14 108t-37.5 77.5t-54 48.5t-64.5 21v-510zM365 615q-34 -4 -64.5 -21t-54 -48.5t-37.5 -77.5t-14 -108t14 -108t37.5 -77.5t54 -48.5t64.5 -21v510z" />
    <glyph glyph-name="afii10037" unicode="&#x423;" horiz-adv-x="660" 
d="M40 670l-50 15v15h130q53 0 84 -25.5t51 -59.5l169 -293l146 333l-75 30v15h185v-15l-80 -30l-225 -515q-36 -83 -72 -119t-78 -36q-45 0 -72.5 26t-27.5 64t23 61.5t57 23.5q8 0 14.5 -1l12.5 -2t13 -2v-140q23 4 48.5 32.5t51.5 92.5z" />
    <glyph glyph-name="afii10078" unicode="&#x43c;" horiz-adv-x="810" 
d="M770 500v-15l-60 -15v-440l60 -15v-15h-280v15l60 15v350l-176 -390h-24l-220 390v-335l80 -30v-15h-190v15l80 30v425l-70 15v15h135q53 0 82 -23t48 -57l136 -241l109 241q17 37 45.5 58.5t84.5 21.5h100z" />
    <glyph glyph-name="afii10088" unicode="&#x446;" horiz-adv-x="675" 
d="M40 0v15l60 15v440l-60 15v15h280v-15l-60 -15v-445h150v445l-60 15v15h280v-15l-60 -15v-445h90v-190h-30q-25 16 -43 41q-16 20 -29 51t-13 73h-505z" />
    <glyph glyph-name="afii10090" unicode="&#x448;" horiz-adv-x="940" 
d="M40 15l60 15v440l-60 15v15h275v-15l-55 -15v-445h130v445l-55 15v15h270v-15l-55 -15v-445h130v445l-55 15v15h275v-15l-60 -15v-440l60 -15v-15h-860v15z" />
    <glyph glyph-name="afii10091" unicode="&#x449;" horiz-adv-x="945" 
d="M40 0v15l60 15v440l-60 15v15h275v-15l-55 -15v-445h130v445l-55 15v15h270v-15l-55 -15v-445h130v445l-55 15v15h275v-15l-60 -15v-445h90v-190h-30q-25 16 -43 41q-16 20 -29 51t-13 73h-775z" />
    <glyph glyph-name="afii10068" unicode="&#x433;" horiz-adv-x="530" 
d="M40 485v15h465v-175h-30q-19 16 -33 39q-12 20 -22 47.5t-10 63.5h-150v-445l60 -15v-15h-280v15l60 15v440z" />
    <glyph glyph-name="afii10067" unicode="&#x432;" horiz-adv-x="605" 
d="M365 255q58 -2 105 -15q19 -6 38 -14.5t34 -21t24 -30t9 -39.5q0 -26 -13 -50.5t-43.5 -43.5t-80.5 -30t-123 -11h-275v15l60 15v440l-60 15v15h255q69 0 117 -11t77.5 -29t42.5 -40.5t13 -44.5t-7.5 -38.5t-20.5 -28.5t-29 -20.5t-33 -13.5q-40 -12 -90 -14v-5zM260 245
v-220h55q42 0 68.5 28.5t26.5 81.5t-26.5 81.5t-68.5 28.5h-55zM260 475v-205h35q33 0 59 28t26 77q0 45 -25.5 72.5t-59.5 27.5h-35z" />
    <glyph glyph-name="afii10074" unicode="&#x438;" horiz-adv-x="680" 
d="M360 485v15h280v-15l-60 -15v-440l60 -15v-15h-280v15l60 15v330l-160 -275v-55l60 -15v-15h-280v15l60 15v440l-60 15v15h280v-15l-60 -15v-330l160 275v55z" />
    <glyph glyph-name="afii10075" unicode="&#x439;" horiz-adv-x="680" 
d="M360 485v15h280v-15l-60 -15v-440l60 -15v-15h-280v15l60 15v330l-160 -275v-55l60 -15v-15h-280v15l60 15v440l-60 15v15h280v-15l-60 -15v-330l160 275v55zM340 590q26 0 40.5 5.5t14.5 4.5v110l12 2q5 1 11 2t12 1q26 0 43 -17t17 -43q0 -34 -34 -59.5t-116 -25.5
q-41 0 -69.5 7t-46.5 18.5t-26 27t-8 32.5q0 26 17 43t43 17q5 0 11.5 -1t11.5 -2l12 -2v-110q0 1 14.5 -4.5t40.5 -5.5z" />
    <glyph glyph-name="afii10073" unicode="&#x437;" horiz-adv-x="530" 
d="M295 260q57 -2 102 -16q19 -6 37.5 -15.5t33 -23t23.5 -32.5t9 -43q0 -30 -13 -56.5t-43.5 -46t-80.5 -31t-123 -11.5q-51 0 -90 13t-65.5 34.5t-40.5 49.5t-14 58h25q0 -24 11.5 -47.5t33.5 -42t52 -29.5t68 -11q115 0 115 120q0 60 -26.5 90t-68.5 30h-65v25h45
q42 0 68.5 28.5t26.5 81.5t-26.5 81.5t-68.5 28.5q-14 0 -24.5 -1.5t-18.5 -3.5l-17 -5v-150q-7 -2 -13 -3t-12.5 -1.5t-14.5 -0.5q-34 0 -54.5 20.5t-20.5 54.5q0 21 11 40.5t34 35t60 25t90 9.5q66 0 111.5 -11t74 -29.5t41.5 -42t13 -47.5q0 -23 -8 -40t-21 -29.5
t-30 -21t-34 -14.5q-40 -13 -92 -15v-5z" />
    <glyph glyph-name="afii10096" unicode="&#x44e;" horiz-adv-x="885" 
d="M590 -15q-56 0 -102.5 17.5t-79.5 50t-52 80t-21 107.5h-75v-210l60 -15v-15h-280v15l60 15v440l-60 15v15h280v-15l-60 -15v-205h75q2 58 21 104.5t52 78.5t79.5 49.5t102.5 17.5q58 0 105 -18t80.5 -52.5t51.5 -83.5t18 -111t-18 -111t-51.5 -83.5t-80.5 -52.5
t-105 -18zM590 5q15 0 30 10t27.5 37.5t20 75t7.5 122.5t-7.5 122.5t-20 75t-27.5 37.5t-30 10t-30 -10t-27.5 -37.5t-20 -75t-7.5 -122.5t7.5 -122.5t20 -75t27.5 -37.5t30 -10z" />
    <glyph glyph-name="afii10095" unicode="&#x44d;" horiz-adv-x="530" 
d="M200 495q-11 0 -20 -1.5t-16 -3.5q-8 -3 -14 -5v-150q-7 -2 -13 -3t-12.5 -1.5t-14.5 -0.5q-34 0 -54.5 20.5t-20.5 54.5q0 21 10.5 40.5t33 35t57.5 25t84 9.5q64 0 114 -18t84.5 -52.5t53 -83.5t18.5 -111t-18.5 -111t-53 -83.5t-84.5 -52.5t-114 -18q-43 0 -78 13
t-60 34.5t-38.5 49.5t-13.5 58h25q0 -24 11.5 -47.5t31 -42t46 -29.5t56.5 -11q24 0 45.5 10t37 34.5t25.5 67t12 108.5h-75q-4 -15 -10.5 -28.5t-13.5 -24.5q-8 -12 -16 -22h-25v175h25l16 -23q7 -11 13.5 -24t10.5 -28h75q0 71 -9 117.5t-25 73.5t-38 38t-48 11z" />
    <glyph glyph-name="afii10094" unicode="&#x44c;" horiz-adv-x="590" 
d="M310 300q73 0 123 -11.5t80.5 -31.5t43.5 -47.5t13 -59.5t-13 -59.5t-43.5 -47.5t-80.5 -31.5t-123 -11.5h-270v15l60 15v440l-60 15v15h280v-15l-60 -15v-170h50zM260 275v-250h50q42 0 68.5 30.5t26.5 94.5t-26.5 94.5t-68.5 30.5h-50z" />
    <glyph glyph-name="afii10092" unicode="&#x44a;" horiz-adv-x="670" 
d="M120 475q0 -36 -10.5 -63.5t-22.5 -47.5q-14 -23 -32 -39h-30v175h385v-15l-60 -15v-170h40q73 0 123 -11.5t80.5 -31.5t43.5 -47.5t13 -59.5t-13 -59.5t-43.5 -47.5t-80.5 -31.5t-123 -11.5h-260v15l60 15v445h-70zM350 275v-250h40q42 0 68.5 30.5t26.5 94.5
t-26.5 94.5t-68.5 30.5h-40z" />
    <glyph glyph-name="afii10093" unicode="&#x44b;" horiz-adv-x="910" 
d="M310 300q73 0 123 -11.5t80.5 -31.5t43.5 -47.5t13 -59.5t-13 -59.5t-43.5 -47.5t-80.5 -31.5t-123 -11.5h-270v15l60 15v440l-60 15v15h280v-15l-60 -15v-170h50zM260 275v-250h50q42 0 68.5 30.5t26.5 94.5t-26.5 94.5t-68.5 30.5h-50zM810 30l60 -15v-15h-280v15
l60 15v440l-60 15v15h280v-15l-60 -15v-440z" />
    <glyph glyph-name="afii10076" unicode="&#x43a;" horiz-adv-x="625" 
d="M380 270q32 0 55.5 -7t40.5 -18.5t27.5 -27t16.5 -32.5l50 -155l50 -15v-15h-105q-56 0 -87.5 25.5t-42.5 59.5l-55 165h-70v-220l60 -15v-15h-280v15l60 15v440l-60 15v15h280v-15l-60 -15v-195h35q30 0 51 19.5t29 45.5l25 90q11 38 33.5 59t56.5 21q45 0 70 -24
t25 -66q0 -38 -20.5 -59t-54.5 -21q-8 0 -15.5 0.5t-12.5 1.5q-7 1 -12 3v135q-29 -7 -40 -50l-25 -90q-6 -21 -15 -34.5t-18 -21.5q-11 -10 -22 -14h30z" />
    <glyph glyph-name="afii10072" unicode="&#x436;" horiz-adv-x="880" 
d="M635 270q32 0 55.5 -7t40.5 -18.5t27.5 -27t16.5 -32.5l50 -155l50 -15v-15h-105q-56 0 -87.5 25.5t-42.5 59.5l-55 165h-65v-220l60 -15v-15h-280v15l60 15v220h-65l-55 -165q-11 -34 -42.5 -59.5t-87.5 -25.5h-105v15l50 15l50 155q6 17 16.5 32.5t27.5 27t40.5 18.5
t55.5 7h30q-11 4 -22 14q-9 8 -18.5 21.5t-14.5 34.5l-25 90q-11 43 -40 50v-135q-7 -2 -13 -3t-12.5 -1.5t-14.5 -0.5q-34 0 -54.5 21t-20.5 59q0 42 25 66t70 24q34 0 56.5 -21t33.5 -59l25 -90q8 -26 26.5 -45.5t48.5 -19.5h35v195l-60 15v15h280v-15l-60 -15v-195h30
q30 0 51 19.5t29 45.5l25 90q11 38 33.5 59t56.5 21q45 0 70 -24t25 -66q0 -38 -20.5 -59t-54.5 -21q-8 0 -15.5 0.5t-12.5 1.5q-7 1 -12 3v135q-29 -7 -40 -50l-25 -90q-6 -21 -15 -34.5t-18 -21.5q-11 -10 -22 -14h30z" />
    <glyph glyph-name="afii10086" unicode="&#x444;" horiz-adv-x="810" 
d="M485 15q24 2 47 15t40 40.5t27.5 71.5t10.5 108t-10.5 108t-27.5 71.5t-40 40.5t-47 15v-470zM325 670l-60 15v15h130q90 0 90 -90v-105q69 -2 124 -22.5t93 -54.5t58 -80t20 -98q0 -53 -20 -98.5t-58 -79.5t-93 -54.5t-124 -22.5v-165l60 -15v-15h-280v15l60 15v165
q-69 2 -124 22.5t-93 54.5t-58 79.5t-20 98.5q0 52 20 98t58 80t93 54.5t124 22.5v165zM325 485q-24 -2 -47 -15t-40 -40.5t-27.5 -71.5t-10.5 -108t10.5 -108t27.5 -71.5t40 -40.5t47 -15v470z" />
    <glyph glyph-name="afii10089" unicode="&#x447;" horiz-adv-x="635" 
d="M375 470l-60 15v15h280v-15l-60 -15v-440l60 -15v-15h-280v15l60 15v175q-12 -8 -28 -13q-14 -5 -33.5 -8.5t-43.5 -3.5q-101 0 -148 40.5t-47 104.5v145l-60 15v15h280v-15l-60 -15v-145q0 -34 5.5 -57t15 -37t23.5 -20t31 -6q13 0 25 3.5t21 8.5q11 5 19 13v240z" />
    <glyph glyph-name="afii10069" unicode="&#x434;" horiz-adv-x="615" 
d="M350 25v450h-155l-20 -305q-3 -38 -14 -65t-24 -45q-15 -21 -32 -35h245zM570 500v-15l-60 -15v-445h90v-190h-30q-25 16 -43 41q-16 20 -29 51t-13 73h-380q0 -42 -13.5 -73t-29.5 -51q-18 -25 -42 -41h-30v190h80q19 14 35 35q14 18 25.5 45t14.5 65l20 295l-70 20v15
h475z" />
    <glyph glyph-name="afii10077" unicode="&#x43b;" horiz-adv-x="625" 
d="M190 465l-70 20v15h465v-15l-60 -15v-440l60 -15v-15h-280v15l60 15v445h-145l-20 -305q-3 -51 -14 -86t-26.5 -57t-34.5 -32t-40 -10q-45 0 -70 24t-25 66q0 34 22.5 57t52.5 23q8 0 14.5 -1l12.5 -2t13 -2v-135q9 4 19.5 12.5t19.5 25.5t16 45.5t10 71.5z" />
    <glyph glyph-name="afii10097" unicode="&#x44f;" horiz-adv-x="630" 
d="M245 235q-50 2 -90 16q-17 6 -33 15t-29 22t-20.5 30.5t-7.5 41.5q0 28 13 53.5t43.5 44.5t80.5 30.5t123 11.5h265v-15l-60 -15v-440l60 -15v-15h-280v15l60 15v190h-80l-45 -140q-10 -30 -40.5 -55t-79.5 -25h-120v15l50 15l40 120q10 30 34.5 46t50.5 24q30 9 65 10v5
zM370 245v230h-45q-42 0 -68.5 -29t-26.5 -86t26.5 -86t68.5 -29h45z" />
    <glyph glyph-name="afii10066" unicode="&#x431;" horiz-adv-x="600" 
d="M305 435q-15 0 -30 -9.5t-27.5 -34t-20 -66t-7.5 -105.5t7.5 -105.5t20 -66t27.5 -34t30 -9.5t30 9.5t27.5 34t20 66t7.5 105.5t-7.5 105.5t-20 66t-27.5 34t-30 9.5zM85 300q7 26 25.5 53.5t47 50t65.5 37t82 14.5q125 0 190 -63t65 -172t-65 -172t-190 -63t-190 65
t-65 190v60q0 94 16 158.5t45.5 106.5t71 64t92.5 31l230 40l15 50h15v-90q0 -45 -21.5 -68.5t-63.5 -31.5l-230 -40q-24 -4 -48.5 -19.5t-43.5 -42.5t-31 -66.5t-12 -91.5z" />
    <glyph glyph-name="afii10023" unicode="&#x401;" horiz-adv-x="645" 
d="M180 840q0 30 20 50t50 20t50 -20t20 -50t-20 -50t-50 -20t-50 20t-20 50zM365 840q0 30 20 50t50 20t50 -20t20 -50t-20 -50t-50 -20t-50 20t-20 50zM390 360q4 20 11 38.5t15 32.5q9 16 19 29h30v-225h-30q-10 13 -19 29q-8 14 -15 32t-11 39h-115v-310h235q0 39 10 68
t22 49q14 23 33 38h30v-180h-555v15l60 15v640l-60 15v15h535v-180h-30q-19 15 -33 38q-12 20 -22 48.5t-10 68.5h-215v-315h115z" />
    <glyph glyph-name="afii10071" unicode="&#x451;" 
d="M120 650q0 30 20 50t50 20t50 -20t20 -50t-20 -50t-50 -20t-50 20t-20 50zM305 650q0 30 20 50t50 20t50 -20t20 -50t-20 -50t-50 -20t-50 20t-20 50zM210 250q34 0 60 1.5t44 3.5q21 2 36 5q2 10 5 22q2 11 3.5 24.5t1.5 28.5q0 45 -7 75.5t-17.5 49.5t-24 27t-26.5 8
t-26.5 -9.5t-24 -36t-17.5 -74.5t-7 -125zM310 -15q-128 0 -199 70.5t-71 194.5q0 62 18 111t50 83.5t77.5 52.5t99.5 18q56 0 100.5 -16t75.5 -43t47.5 -63.5t16.5 -77.5q0 -14 -1.5 -24.5t-3.5 -18.5l-5 -17q-44 -9 -93 -15q-42 -6 -97 -10.5t-115 -4.5q0 -62 9 -103.5
t25 -66t38 -35t48 -10.5q30 0 56.5 11t46 29.5t31 42t11.5 47.5h25q0 -30 -13.5 -58t-38.5 -49.5t-60 -34.5t-78 -13z" />
    <glyph glyph-name="afii61352" unicode="&#x2116;" horiz-adv-x="1100" 
d="M605 655l-80 30v15h190v-15l-80 -30v-670h-30l-465 545v-485l80 -30v-15h-190v15l80 30v620l-70 20v15h105q30 0 52 -6.5t38.5 -17t28.5 -23t21 -23.5l320 -375v400zM950 535q0 47 -5 77t-13 47.5t-18 24t-19 6.5t-19 -6.5t-18 -24t-13 -47.5t-5 -77t5 -77t13 -47.5
t18 -24t19 -6.5t19 6.5t18 24t13 47.5t5 77zM1060 535q0 -39 -12.5 -71.5t-34.5 -55.5t-52 -35.5t-66 -12.5t-66 12.5t-52 35.5t-34.5 55.5t-12.5 71.5t12.5 71.5t34.5 55.5t52 35.5t66 12.5t66 -12.5t52 -35.5t34.5 -55.5t12.5 -71.5zM750 265v40h290v-40h-290z" />
    <glyph glyph-name="afii10101" unicode="&#x454;" horiz-adv-x="530" 
d="M330 495q-26 0 -48 -11t-38 -38t-25 -73.5t-9 -117.5h75q4 15 10.5 28t13.5 24l16 23h25v-175h-25q-8 10 -16 22q-7 11 -13.5 24.5t-10.5 28.5h-75q2 -66 12 -108.5t25.5 -67t37 -34.5t45.5 -10q30 0 56.5 11t46 29.5t31 42t11.5 47.5h25q0 -30 -13.5 -58t-38.5 -49.5
t-60 -34.5t-78 -13q-128 0 -199 70.5t-71 194.5t71 194.5t199 70.5q49 0 84 -9.5t57.5 -25t33 -35t10.5 -40.5q0 -34 -20.5 -54.5t-54.5 -20.5q-8 0 -15.5 0.5t-12.5 1.5q-7 1 -12 3v150q-6 2 -14 5q-7 2 -16 3.5t-20 1.5z" />
    <glyph glyph-name="afii10053" unicode="&#x404;" horiz-adv-x="650" 
d="M361 715q35 0 64.5 -10.5t50.5 -22.5q25 -14 44 -32q8 13 17.5 23.5t17.5 17.5q10 8 20 14h25v-190h-40q-14 48 -39 87q-21 33 -56 60.5t-85 27.5q-30 0 -59 -16.5t-51.5 -55t-36 -101.5t-13.5 -157h130q4 20 11 38.5t15 32.5q9 16 19 29h30v-225h-30q-10 13 -19 29
q-8 14 -15 32t-11 39h-130q2 -94 16.5 -156.5t38.5 -100t57.5 -53t72.5 -15.5q36 0 69 15.5t59 42t41.5 60.5t15.5 72h25q0 -43 -17.5 -82t-48.5 -68.5t-73 -47t-91 -17.5q-79 0 -142 24t-107 70.5t-67.5 114.5t-23.5 156t23 156t65 114.5t100 70.5t128 24z" />
    <glyph glyph-name="afii10062" unicode="&#x40e;" horiz-adv-x="660" 
d="M0 0zM40 670l-50 15v15h130q53 0 84 -25.5t51 -59.5l169 -293l146 333l-75 30v15h185v-15l-80 -30l-225 -515q-36 -83 -72 -119t-78 -36q-45 0 -72.5 26t-27.5 64t23 61.5t57 23.5q8 0 14.5 -1l12.5 -2t13 -2v-140q23 4 48.5 32.5t51.5 92.5zM355 764q26 0 40.5 5.5
t14.5 4.5v110l12 2q5 1 11 2t12 1q26 0 43 -17t17 -43q0 -34 -34 -59.5t-116 -25.5q-41 0 -69.5 7t-46.5 18.5t-26 27t-8 32.5q0 26 17 43t43 17q5 0 11.5 -1t11.5 -2l12 -2v-110q0 1 14.5 -4.5t40.5 -5.5z" />
    <glyph glyph-name="afii10110" unicode="&#x45e;" 
d="M470 455l-75 30v15h185v-15l-80 -30l-200 -515q-32 -83 -68.5 -119t-81.5 -36t-70 24t-25 66q0 38 20.5 59t54.5 21q8 0 14.5 -1l12.5 -2t13 -2v-135q13 2 25.5 9t24.5 21.5t24 37.5t26 57l20 50l-260 480l-50 15v15h125q28 0 49 -6.5t36.5 -17.5t27.5 -26.5t22 -34.5
l125 -231zM292 570q26 0 40.5 5.5t14.5 4.5v110l12 2q5 1 11 2t12 1q26 0 43 -17t17 -43q0 -34 -34 -59.5t-116 -25.5q-41 0 -69.5 7t-46.5 18.5t-26 27t-8 32.5q0 26 17 43t43 17q5 0 11.5 -1t11.5 -2l12 -2v-110q0 1 14.5 -4.5t40.5 -5.5z" />
    <glyph glyph-name="afii10057" unicode="&#x408;" horiz-adv-x="550" 
d="M165 5q26 0 48 10t38 33t25 60.5t9 91.5v470l-60 15v15h285v-15l-60 -15v-470q0 -101 -63 -158t-202 -57q-49 0 -84 9.5t-57.5 25t-33 35t-10.5 40.5q0 34 20.5 54.5t54.5 20.5q8 0 14.5 -1l12.5 -2t13 -2v-150q6 -3 14 -5q15 -5 36 -5z" />
    <glyph glyph-name="afii10105" unicode="&#x458;" horiz-adv-x="330" 
d="M90 625q0 17 7 32.5t18.5 27t27 18.5t32.5 7t32.5 -7t27 -18.5t18.5 -27t7 -32.5t-7 -32.5t-18.5 -27t-27 -18.5t-32.5 -7t-32.5 7t-27 18.5t-18.5 27t-7 32.5zM5 -190q2 -2 6 -3q8 -2 14 -2q13 0 25.5 7.5t22.5 26t16 50.5t6 81v500l-60 15v15h130q90 0 90 -90v-440
q0 -39 -14.5 -73t-43 -59t-69.5 -39t-93 -14q-79 0 -112 26.5t-33 68.5q0 34 20.5 54.5t54.5 20.5q8 0 14.5 -1l12.5 -2t13 -2v-140z" />
    <glyph glyph-name="afii10054" unicode="&#x405;" horiz-adv-x="595" 
d="M275 10q57 0 91 34t34 91q0 39 -26.5 67.5t-65.5 53.5t-85.5 50t-85.5 57t-65.5 74.5t-26.5 102.5q0 36 15 67.5t45.5 55.5t76.5 38t108 14q35 0 65 -10.5t51 -22.5q25 -14 44 -32q8 13 17.5 23.5t17.5 17.5q10 8 20 14h25v-190h-40q-14 48 -39 87q-21 33 -56 60.5
t-85 27.5q-19 0 -36 -8t-30 -22.5t-21 -35t-8 -44.5q0 -43 26.5 -73.5t65.5 -56.5t85.5 -51t85.5 -55.5t65.5 -69.5t26.5 -94q0 -39 -17 -74.5t-51 -62.5t-86 -42.5t-121 -15.5q-44 0 -77 10t-56 22q-27 14 -47 33q-8 -14 -17.5 -24t-17.5 -17q-10 -8 -20 -14h-25v190h40
q15 -49 42 -88q12 -17 27 -32.5t34.5 -27.5t43.5 -19.5t53 -7.5z" />
    <glyph glyph-name="afii10104" unicode="&#x457;" horiz-adv-x="340" 
d="M9 0zM170 500q90 0 90 -90v-380l60 -15v-15h-280v15l60 15v440l-60 15v15h130zM9 630q0 30 20 50t50 20t50 -20t20 -50t-20 -50t-50 -20t-50 20t-20 50zM194 630q0 30 20 50t50 20t50 -20t20 -50t-20 -50t-50 -20t-50 20t-20 50z" />
    <glyph glyph-name="afii10055" unicode="&#x406;" horiz-adv-x="385" 
d="M50 685v15h285v-15l-60 -15v-640l60 -15v-15h-285v15l60 15v640z" />
    <glyph glyph-name="afii10103" unicode="&#x456;" horiz-adv-x="340" 
d="M95 625q0 17 7 32.5t18.5 27t27 18.5t32.5 7t32.5 -7t27 -18.5t18.5 -27t7 -32.5t-7 -32.5t-18.5 -27t-27 -18.5t-32.5 -7t-32.5 7t-27 18.5t-18.5 27t-7 32.5zM170 500q90 0 90 -90v-380l60 -15v-15h-280v15l60 15v440l-60 15v15h130z" />
    <glyph glyph-name="afii10056" unicode="&#x407;" horiz-adv-x="385" 
d="M30 0zM50 685v15h285v-15l-60 -15v-640l60 -15v-15h-285v15l60 15v640zM30 844q0 30 20 50t50 20t50 -20t20 -50t-20 -50t-50 -20t-50 20t-20 50zM215 844q0 30 20 50t50 20t50 -20t20 -50t-20 -50t-50 -20t-50 20t-20 50z" />
    <glyph glyph-name="afii10061" unicode="&#x40c;" horiz-adv-x="710" 
d="M50 0zM415 380q71 0 105 -25.5t45 -59.5l90 -265l50 -15v-15h-120q-56 0 -84 23.5t-41 61.5l-95 275h-90v-330l60 -15v-15h-285v15l60 15v640l-60 15v15h285v-15l-60 -15v-285h50q38 0 63 25t37 70l35 130q12 45 39.5 72.5t65.5 27.5q45 0 72.5 -26t27.5 -64t-23 -61.5
t-57 -23.5q-8 0 -15.5 0.5t-12.5 1.5q-7 1 -12 3v140q-16 -4 -31.5 -22t-23.5 -48l-35 -130q-8 -30 -18.5 -49.5t-21.5 -30.5q-12 -13 -25 -20h25zM510 884l-135 -150h-35l40 150h130z" />
    <glyph glyph-name="afii10109" unicode="&#x45c;" horiz-adv-x="625" 
d="M40 0zM380 270q32 0 55.5 -7t40.5 -18.5t27.5 -27t16.5 -32.5l50 -155l50 -15v-15h-105q-56 0 -87.5 25.5t-42.5 59.5l-55 165h-70v-220l60 -15v-15h-280v15l60 15v440l-60 15v15h280v-15l-60 -15v-195h35q30 0 51 19.5t29 45.5l25 90q11 38 33.5 59t56.5 21q45 0 70 -24
t25 -66q0 -38 -20.5 -59t-54.5 -21q-8 0 -15.5 0.5t-12.5 1.5q-7 1 -12 3v135q-29 -7 -40 -50l-25 -90q-6 -21 -15 -34.5t-18 -21.5q-11 -10 -22 -14h30zM460 700l-135 -150h-35l40 150h130z" />
    <glyph glyph-name="afii10052" unicode="&#x403;" horiz-adv-x="610" 
d="M50 0zM50 0v15l60 15v640l-60 15v15h535v-180h-30q-19 15 -33 38q-12 20 -22 48.5t-10 68.5h-215v-645l60 -15v-15h-285zM470 904l-135 -150h-35l40 150h130z" />
    <glyph glyph-name="afii10100" unicode="&#x453;" horiz-adv-x="530" 
d="M40 0zM40 485v15h465v-175h-30q-19 16 -33 39q-12 20 -22 47.5t-10 63.5h-150v-445l60 -15v-15h-280v15l60 15v440zM430 700l-135 -150h-35l40 150h130z" />
    <glyph glyph-name="afii10050" unicode="&#x490;" horiz-adv-x="590" 
d="M275 675v-645l60 -15v-15h-285v15l60 15v640l-60 15v15h440q0 39 10 68t22 49q14 23 33 38h30v-180h-310z" />
    <glyph glyph-name="afii10098" unicode="&#x491;" horiz-adv-x="510" 
d="M260 475v-445l60 -15v-15h-280v15l60 15v440l-60 15v15h370q0 35 10 63t22 48q14 23 33 39h30v-175h-245z" />
    <glyph glyph-name="afii10193" unicode="&#x45f;" horiz-adv-x="670" 
d="M40 15l60 15v440l-60 15v15h280v-15l-60 -15v-445h150v445l-60 15v15h280v-15l-60 -15v-440l60 -15v-15h-245q0 -38 -5.5 -68t-12.5 -50q-8 -25 -17 -42h-30q-10 17 -18 42q-7 20 -12 50t-5 68h-245v15z" />
    <glyph glyph-name="afii10145" unicode="&#x40f;" horiz-adv-x="765" 
d="M50 0v15l60 15v640l-60 15v15h285v-15l-60 -15v-645h215v645l-60 15v15h285v-15l-60 -15v-640l60 -15v-15h-280q0 -38 -5.5 -68t-12.5 -52q-8 -26 -17 -45h-35q-10 19 -18 45q-7 22 -12 52t-5 68h-280z" />
    <glyph glyph-name="afii10099" unicode="&#x452;" horiz-adv-x="655" 
d="M425 320q0 34 -7 58.5t-17.5 40.5t-24 23.5t-26.5 7.5q-23 0 -40 -12.5t-28 -27.5q-13 -18 -22 -40v-340l60 -15v-15h-280v15l60 15v515h-65v25h65v100l-60 15v15h130q90 0 90 -90v-40h125v-25h-125v-125q13 18 31 32q16 12 40.5 22.5t58.5 10.5q43 0 79 -14t61.5 -37
t40 -52.5t14.5 -61.5v-230q0 -26 -10.5 -48t-36 -38t-67.5 -25t-106 -9v20q23 0 41.5 23.5t18.5 76.5v230z" />
    <glyph glyph-name="afii10108" unicode="&#x45b;" horiz-adv-x="665" 
d="M260 545v-125q13 18 31 32q16 12 40.5 22.5t58.5 10.5q43 0 79 -14t61.5 -37t40 -52.5t14.5 -61.5v-290l60 -15v-15h-130q-90 0 -90 90v230q0 34 -7 58.5t-17.5 40.5t-24 23.5t-26.5 7.5q-23 0 -40 -12.5t-28 -27.5q-13 -18 -22 -40v-340l60 -15v-15h-280v15l60 15v515
h-65v25h65v100l-60 15v15h130q90 0 90 -90v-40h125v-25h-125z" />
    <glyph glyph-name="afii10060" unicode="&#x40b;" horiz-adv-x="805" 
d="M360 30l60 -15v-15h-285v15l60 15v645h-75q0 -40 -10.5 -68.5t-22.5 -48.5q-14 -23 -32 -38h-30v180h515v-180h-30q-19 15 -33 38q-12 20 -22 48.5t-10 68.5h-85v-270q15 8 35 15q17 5 41 10t54 5q127 0 183.5 -48t56.5 -127v-230l60 -15v-15h-285v15l60 15v230
q0 83 -29 116.5t-86 33.5q-19 0 -35.5 -5t-28.5 -10q-14 -7 -26 -15v-350z" />
    <glyph glyph-name="afii10051" unicode="&#x402;" horiz-adv-x="770" 
d="M565 260q0 83 -29 116.5t-86 33.5q-19 0 -35.5 -5t-28.5 -10q-14 -7 -26 -15v-350l60 -15v-15h-285v15l60 15v645h-75q0 -40 -10.5 -68.5t-22.5 -48.5q-14 -23 -32 -38h-30v180h515v-180h-30q-19 15 -33 38q-12 20 -22 48.5t-10 68.5h-85v-270q15 8 35 15q17 5 41 10
t54 5q127 0 183.5 -48t56.5 -127v-170q0 -26 -10.5 -48t-36.5 -38t-69 -25t-109 -9v20q23 0 41.5 23.5t18.5 76.5v170z" />
    <glyph glyph-name="afii10059" unicode="&#x40a;" horiz-adv-x="1055" 
d="M720 400q86 0 145.5 -14.5t96 -40.5t52.5 -63t16 -82t-16 -82t-52.5 -63t-96 -40.5t-145.5 -14.5h-290v15l60 15v345h-215v-345l60 -15v-15h-285v15l60 15v640l-60 15v15h285v-15l-60 -15v-270h215v270l-60 15v15h285v-15l-60 -15v-270h65zM655 375v-350h65q60 0 100 44
t40 131t-40 131t-100 44h-65z" />
    <glyph glyph-name="afii10107" unicode="&#x45a;" horiz-adv-x="900" 
d="M620 290q73 0 123 -11.5t80.5 -31t43.5 -46t13 -56.5t-13 -56.5t-43.5 -46t-80.5 -31t-123 -11.5h-270v15l60 15v230h-150v-230l60 -15v-15h-280v15l60 15v440l-60 15v15h280v-15l-60 -15v-185h150v185l-60 15v15h280v-15l-60 -15v-180h50zM570 265v-240h50q42 0 68.5 30
t26.5 90t-26.5 90t-68.5 30h-50z" />
    <glyph glyph-name="afii10058" unicode="&#x409;" horiz-adv-x="1000" 
d="M90 -15q-45 0 -72.5 26t-27.5 64t23 61.5t57 23.5q8 0 14.5 -1l12.5 -2t13 -2v-140q13 4 26.5 15t25.5 37t21 70t12 113l20 415l-70 20v15h515v-15l-60 -15v-250h65q86 0 145.5 -14.5t96 -41.5t52.5 -66t16 -88t-16 -88t-52.5 -66t-96 -41.5t-145.5 -14.5h-290v15l60 15
v645h-190l-20 -425q-4 -77 -16.5 -128t-30.5 -81.5t-41 -43t-47 -12.5zM600 395v-370h65q60 0 100 45.5t40 139.5t-40 139.5t-100 45.5h-65z" />
    <glyph glyph-name="afii10106" unicode="&#x459;" horiz-adv-x="855" 
d="M575 300q73 0 123 -11.5t80.5 -31.5t43.5 -47.5t13 -59.5t-13 -59.5t-43.5 -47.5t-80.5 -31.5t-123 -11.5h-270v15l60 15v445h-145l-20 -305q-3 -51 -14 -86t-26.5 -57t-34.5 -32t-40 -10q-45 0 -70 24t-25 66q0 34 22.5 57t52.5 23q8 0 14.5 -1l12.5 -2t13 -2v-135
q9 4 19.5 12.5t19.5 25.5t16 45.5t10 71.5l20 295l-70 20v15h465v-15l-60 -15v-170h50zM525 275v-250h50q42 0 68.5 30.5t26.5 94.5t-26.5 94.5t-68.5 30.5h-50z" />
    <glyph glyph-name="afii10102" unicode="&#x455;" horiz-adv-x="540" 
d="M275 -15q-36 0 -63.5 8t-47.5 19q-23 12 -39 28q-8 -11 -17.5 -20t-17.5 -14q-10 -7 -20 -11h-25v170h40q14 -44 38 -78q20 -29 52 -53t80 -24q42 0 63.5 21t21.5 59q0 28 -21.5 48t-53.5 38t-70 36.5t-70 41.5t-53.5 53t-21.5 73q0 28 11.5 52.5t37 43t65.5 29t96 10.5
q30 0 55 -8.5t43 -19.5q21 -12 38 -27q8 11 17.5 19.5t17.5 14.5q10 6 20 11h25v-170h-40q-15 43 -37 77q-19 29 -48 53.5t-71 24.5q-26 0 -45.5 -20t-19.5 -50t21.5 -52t53.5 -41t70 -37t70 -40.5t53.5 -51t21.5 -68.5q0 -32 -12 -58.5t-39 -46t-71 -30t-108 -10.5z" />
    <glyph glyph-name="afii10085" unicode="&#x443;" 
d="M470 455l-75 30v15h185v-15l-80 -30l-200 -515q-32 -83 -68.5 -119t-81.5 -36t-70 24t-25 66q0 38 20.5 59t54.5 21q8 0 14.5 -1l12.5 -2t13 -2v-135q13 2 25.5 9t24.5 21.5t24 37.5t26 57l20 50l-260 480l-50 15v15h125q28 0 49 -6.5t36.5 -17.5t27.5 -26.5t22 -34.5
l125 -231z" />
    <glyph glyph-name="afii10087" unicode="&#x445;" horiz-adv-x="555" 
d="M214 204l-169 266l-50 15v15h135q26 0 46 -6.5t35.5 -17.5t28.5 -26.5t25 -34.5l51 -81l94 121l-75 30v15h190v-15l-80 -30l-114 -145l179 -280l50 -15v-15h-135q-26 0 -46 6t-36 17.5t-28.5 27t-24.5 34.5l-60 94l-105 -134l75 -30v-15h-190v15l80 30z" />
    <glyph glyph-name="l" unicode="l" horiz-adv-x="340" 
d="M170 700q90 0 90 -90v-580l60 -15v-15h-280v15l60 15v640l-60 15v15h130z" />
    <glyph glyph-name="a" unicode="a" horiz-adv-x="605" 
d="M235 235q-6 -13 -10 -30q-4 -14 -7 -33t-3 -42q0 -60 18.5 -85t41.5 -25t39.5 12.5t27.5 27.5q13 18 23 40v145q-23 0 -46 -1.5t-42 -3.5q-22 -3 -42 -5zM275 515q60 0 106.5 -16t78.5 -44.5t48.5 -68t16.5 -86.5v-270l60 -15v-15h-90q-36 0 -58 11.5t-35 25.5
q-15 17 -22 38q-13 -26 -33 -45q-17 -17 -45 -31t-67 -14q-47 0 -81.5 10.5t-57.5 29t-34.5 43t-11.5 52.5q0 23 5 42.5t12 34.5q8 18 18 33q42 10 89 18q40 7 90 13.5t101 8.5v30q0 58 -7.5 96t-21.5 60t-34.5 30.5t-46.5 8.5q-11 0 -20 -1.5t-16 -3.5q-8 -3 -14 -5v-150
q-7 -2 -13 -3t-12.5 -1.5t-14.5 -0.5q-34 0 -54.5 20.5t-20.5 54.5q0 21 10.5 40.5t33 35t57.5 25t84 9.5z" />
    <glyph glyph-name=".ttfautohint" horiz-adv-x="605" 
d="M0 0z" />
    </font>
</defs>
</svg>
